<svg viewBox="0 0 73 75" fill="none" xmlns="http://www.w3.org/2000/svg">
<path d="M26.3146 8.79571C23.4912 8.96392 18.7364 23.6641 18.2643 26.6687L43.307 28.0918L43.6356 44.5354C45.2701 45.4302 47.2222 45.7525 46.5985 47.6282C46.1092 49.0999 44.8448 49.7333 42.6303 48.47C40.1524 47.4705 34.9124 46.0093 33.7756 48.1605C32.3546 50.8495 42.1594 53.0557 45.9551 54.3177C49.7507 55.5798 51.6474 54.6297 53.7006 51.624C55.3432 49.2194 52.8517 44.1405 51.9534 41.0316L50.0532 37.2383L47.8362 32.8128C45.1436 26.6484 50.6976 11.0177 46.2384 10.6781C42.1272 10.3649 41.788 21.8443 41.0301 23.173C40.609 23.9112 40.0835 26.0197 35.6568 26.6555C31.2289 25.7102 30.715 25.671 28.222 22.0758C25.3729 17.967 32.2907 8.43966 26.3146 8.79571Z" fill="black" stroke="black"/>
<path d="M13.7386 26.6911L43.1492 28.5663L43.3225 48.6466M13.7386 26.6911L12.4944 54.2038L43.3284 56.5523L43.326 53.39M13.7386 26.6911L18.6386 24.6319M28.1231 21.4625L39.8209 17.9752L40.1423 24.9319" stroke="black"/>
<path d="M37.4845 20.9936L13.9845 26.9936L37.4845 27.4936V25.9936V20.9936Z" stroke="black"/>
<path d="M45.3852 58.29L44.7435 45.9576L43.4779 45.0099L43.3284 56.5523L17.0801 54.6747L18.9803 58.468C18.0969 61.125 17.7709 62.1055 19.1417 62.737C24.6241 64.2086 37.5804 66.2332 45.5466 62.559C53.5127 58.8847 48.7582 58.1821 45.3852 58.29Z" fill="black" stroke="black"/>
<path d="M35.4845 23.4936L15.4845 27.1859L35.4845 27.4936V26.5705V23.4936Z" stroke="black"/>
<path d="M50.24 56.9277C51.437 56.8358 53.0874 56.9517 53.6895 57.6734C54.1212 58.1909 54.0138 59.0199 52.8139 60.3069" stroke="black"/>
<path d="M56.5236 54.518C57.4092 54.4859 58.6362 54.6053 59.1008 55.1075C59.4338 55.4675 59.3749 56.0244 58.517 56.8631" stroke="black"/>
<path d="M53.9822 55.9764C54.9166 55.7972 56.1868 55.7867 56.5993 56.4454C56.8951 56.9177 56.7499 57.734 55.7237 59.0789" stroke="black"/>
<path d="M21 34.7648C21 32.4117 18 32.4117 18 34.7648C18 37.118 19.8 39 21 39C22.2 39 24 37.4498 24 34.7648C24 32.4117 21 32.4117 21 34.7648Z" stroke="black"/>
<path d="M23.5 44.4707C23.5 42.5098 21 42.5098 21 44.4707C21 46.4316 22.5 48 23.5 48C24.5 48 26 46.7082 26 44.4707C26 42.5098 23.5 42.5098 23.5 44.4707Z" stroke="black"/>
<path d="M34 34.7648C34 32.4117 31 32.4117 31 34.7648C31 37.118 32.8 39 34 39C35.2 39 37 37.4498 37 34.7648C37 32.4117 34 32.4117 34 34.7648Z" stroke="black"/>
<path d="M25.5 45C26.8333 45.6667 29.7 46.6 30.5 45" stroke="black"/>
<path d="M29.3444 50.4375C28.3388 48.982 25.893 46.3425 24.154 47.4276" stroke="black"/>
</svg>
