<svg xmlns="http://www.w3.org/2000/svg" viewBox="0 96 960 960">
  <path d="m511 985-11-114h-35q-145.682 0-249.341-102.962Q112 665.076 112 518.5q0-145.5 104.091-249T467.017 166q72.417 0 134.64 26.408 62.224 26.407 108.01 72.923 45.785 46.516 72.059 110.446Q808 439.706 808 515q0 68.887-20.5 136.444Q767 719 728.5 780.5 690 842 635.097 894.36 580.194 946.721 511 985Zm55-116q83-69 130-163.866 47-94.866 47-189.715 0-125.852-78.682-205.136Q585.637 231 466.818 231 346 231 261.5 315 177 399 177 518.5T261 722q84 84 204.086 84H566v63Zm-98.052-114Q484 755 496 743.379q12-11.62 12-28.5Q508 698 496.052 686q-11.949-12-28.5-12Q451 674 439 685.828q-12 11.827-12 29Q427 732 438.863 743.5t29.085 11.5ZM438 616h53q0-23 9.5-41.5T536 530q29-29 39-51.459 10-22.459 10-48.413Q585 383 554 354t-83-29q-43.269 0-77.135 23Q360 371 344 410l48.754 20Q404 404 423.5 391t44.5-13q29 0 46 13.812 17 13.813 17 38.188 0 19.386-9.5 37.693T481 517q-28 29-35.5 46.781T438 616Zm22-66Z"/>
</svg>