<svg xmlns="http://www.w3.org/2000/svg" fill="current" viewBox="0 96 960 960">
  <path d="M480.009 572q31.353 0 54.172-22.328Q557 527.345 557 495.991q0-31.353-22.907-54.172Q511.185 419 479.832 419q-31.354 0-53.593 22.907Q404 464.815 404 496.168q0 31.354 22.328 53.593Q448.655 572 480.009 572ZM480 888q130-118 192-213.817Q734 578.366 734 504q0-115.153-73.565-188.577Q586.87 242 479.962 242q-106.908 0-179.935 73.363T227 503.784q0 74.216 62.975 170.077T480 888Zm0 96Q316 845 235 725.396 154 605.791 154 504q0-153.201 98.227-244.101Q350.454 169 479.727 169T708 259.899q99 90.9 99 244.101 0 101.791-81.5 221.396Q644 845 480 984Zm0-480Z"/>
</svg>