<?xml version="1.0" standalone="no"?>
<!DOCTYPE svg PUBLIC "-//W3C//DTD SVG 20010904//EN"
 "http://www.w3.org/TR/2001/REC-SVG-20010904/DTD/svg10.dtd">
<svg version="1.0" xmlns="http://www.w3.org/2000/svg"
 width="204.000000pt" height="191.000000pt" viewBox="0 0 204.000000 191.000000"
 preserveAspectRatio="xMidYMid meet">

<g transform="translate(0.000000,191.000000) scale(0.100000,-0.100000)"
fill="#000000" stroke="none">
<path d="M967 1816 c-47 -17 -117 -63 -117 -76 0 -5 -17 -2 -37 7 -27 11 -58
14 -110 11 -152 -10 -299 -116 -377 -272 -26 -52 -43 -75 -52 -72 -39 15 14
-81 198 -357 110 -166 202 -303 203 -305 2 -2 34 28 73 67 57 56 90 79 173
120 130 62 296 99 335 73 6 -4 15 -18 19 -32 13 -42 44 -79 89 -105 79 -46 94
-25 16 23 -52 32 -88 87 -77 116 8 20 86 59 162 82 78 23 225 24 277 1 45 -19
57 -8 31 32 -10 16 -121 168 -248 340 l-229 312 -66 20 c-86 27 -213 34 -263
15z m260 -43 c52 -18 55 -21 252 -288 109 -149 198 -271 197 -272 -2 -2 -28
11 -60 28 -66 36 -161 49 -219 30 -19 -7 -56 -30 -82 -53 -25 -22 -47 -39 -49
-37 -5 6 -248 336 -330 447 -77 105 -77 104 7 147 48 24 59 26 142 22 50 -3
114 -13 142 -24z m-404 -62 c22 -13 418 -530 412 -538 0 -1 -23 9 -50 22 -88
45 -201 30 -313 -42 -58 -36 -143 -120 -170 -165 -9 -16 -19 -28 -23 -28 -4 0
-80 111 -169 246 -123 187 -161 251 -156 267 10 41 69 119 120 160 120 95 264
127 349 78z"/>
<path d="M510 595 c0 -36 1 -37 14 -19 11 14 12 23 3 34 -6 8 -13 17 -14 19
-2 2 -3 -13 -3 -34z"/>
<path d="M663 560 c0 -41 2 -58 4 -37 2 20 2 54 0 75 -2 20 -4 3 -4 -38z"/>
<path d="M853 595 c0 -22 2 -30 4 -17 2 12 2 30 0 40 -3 9 -5 -1 -4 -23z"/>
<path d="M1223 618 c-2 -5 20 -9 49 -10 l53 -1 -50 -6 c-55 -7 -69 -30 -25
-42 23 -6 22 -7 -10 -11 -20 -3 -5 -5 35 -5 51 -1 62 1 40 7 -24 6 -26 8 -7 9
41 2 22 20 -25 24 l-48 3 48 2 c33 1 47 6 47 16 0 10 -16 15 -51 18 -28 1 -53
0 -56 -4z"/>
<path d="M1420 618 c0 -5 8 -8 19 -8 10 0 31 -7 47 -15 15 -8 31 -12 34 -8 3
3 -1 8 -8 10 -6 3 -10 8 -7 13 3 4 -15 10 -40 12 -25 2 -45 0 -45 -4z"/>
<path d="M1653 560 c0 -41 2 -59 4 -40 3 19 10 38 16 42 9 6 9 8 0 8 -6 0 -14
15 -16 33 -2 17 -4 -2 -4 -43z"/>
<path d="M410 595 c0 -22 4 -25 35 -25 31 0 35 3 35 25 0 22 -4 25 -35 25 -31
0 -35 -3 -35 -25z m60 0 c0 -8 -9 -15 -20 -15 -11 0 -20 7 -20 15 0 8 9 15 20
15 11 0 20 -7 20 -15z"/>
<path d="M564 607 c-3 -8 -4 -34 -2 -58 3 -41 5 -44 33 -44 30 0 30 1 30 55 0
53 -1 55 -28 58 -17 2 -29 -2 -33 -11z m51 -47 c0 -38 -3 -45 -20 -45 -15 0
-21 8 -23 33 -4 45 4 64 25 60 14 -3 18 -13 18 -48z"/>
<path d="M746 603 c-7 -16 16 -43 35 -43 16 0 38 31 33 45 -8 21 -60 19 -68
-2z m54 -8 c0 -8 -9 -15 -20 -15 -11 0 -20 7 -20 15 0 8 9 15 20 15 11 0 20
-7 20 -15z"/>
<path d="M890 605 c0 -13 10 -15 55 -13 30 2 55 8 55 13 0 6 -25 11 -55 13
-45 2 -55 0 -55 -13z m83 -2 c-13 -2 -33 -2 -45 0 -13 2 -3 4 22 4 25 0 35 -2
23 -4z"/>
<path d="M1122 600 c-7 -11 -19 -20 -27 -20 -8 0 -15 -4 -15 -10 0 -14 13 -12
35 4 16 12 22 12 42 -1 12 -8 28 -13 35 -10 8 3 2 9 -14 15 -14 6 -30 18 -35
26 -7 13 -10 13 -21 -4z"/>
<path d="M1550 560 l0 -60 38 1 c36 1 36 2 7 8 -28 6 -30 9 -30 51 0 42 2 45
30 51 29 6 29 7 -7 8 l-38 1 0 -60z"/>
<path d="M1420 590 c-13 -9 -13 -10 0 -9 8 0 24 4 35 9 l20 9 -20 0 c-11 0
-27 -4 -35 -9z"/>
<path d="M1430 570 l-35 -7 33 -2 c36 -1 35 -20 -1 -22 -17 -1 -15 -3 8 -9
l30 -8 -28 -1 c-50 -2 -24 -26 31 -29 42 -2 52 0 52 12 0 10 -10 16 -27 17
-25 2 -24 2 7 9 31 6 32 8 8 9 -39 2 -46 21 -7 21 18 0 30 2 28 4 -10 8 -67
12 -99 6z m63 -67 c-13 -2 -33 -2 -45 0 -13 2 -3 4 22 4 25 0 35 -2 23 -4z"/>
<path d="M907 563 c18 -2 50 -2 70 0 21 2 7 4 -32 4 -38 0 -55 -2 -38 -4z"/>
<path d="M475 549 c-15 -6 -11 -8 18 -8 20 -1 37 1 37 3 0 9 -37 12 -55 5z"/>
<path d="M416 538 c-5 -10 -6 -25 -2 -33 6 -17 46 -21 46 -5 0 6 -6 10 -14 10
-8 0 -16 10 -19 23 -3 19 -4 20 -11 5z"/>
<path d="M770 540 c24 -8 24 -8 3 -9 -16 -1 -23 -7 -23 -21 0 -16 6 -20 33
-19 23 1 26 3 10 6 -26 5 -31 23 -8 23 8 0 15 7 15 15 0 10 -9 15 -27 14 l-28
-1 25 -8z"/>
<path d="M827 543 c14 -3 23 -13 26 -31 4 -24 4 -24 6 6 1 29 -2 32 -26 31
-23 -1 -24 -2 -6 -6z"/>
<path d="M935 540 l50 -6 -45 -5 c-31 -3 -45 -9 -45 -19 0 -11 13 -15 55 -16
l55 -1 -50 6 -50 7 45 5 c33 3 46 9 48 22 3 15 -4 17 -55 15 l-58 -1 50 -7z"/>
<path d="M1097 533 c23 -3 33 -10 36 -26 l4 -22 2 22 c1 17 9 23 34 26 17 2 1
4 -38 4 -38 0 -56 -2 -38 -4z"/>
<path d="M475 521 c-9 -16 3 -31 26 -31 14 0 19 6 17 17 -4 20 -33 29 -43 14z
m35 -11 c0 -5 -4 -10 -10 -10 -5 0 -10 5 -10 10 0 6 5 10 10 10 6 0 10 -4 10
-10z"/>
<path d="M1268 513 c28 -2 52 -9 52 -14 0 -6 5 -7 10 -4 25 16 5 25 -52 23
l-63 -2 53 -3z"/>
<path d="M455 398 c-3 -8 -4 -86 -3 -173 3 -134 5 -160 18 -160 12 0 16 17 18
82 3 76 4 82 25 85 29 4 29 32 0 36 -20 3 -22 10 -25 69 -2 42 -8 68 -15 71
-7 2 -15 -3 -18 -10z"/>
<path d="M886 395 c-3 -9 -6 -83 -6 -165 0 -110 3 -150 13 -159 24 -20 37 9
37 85 0 68 2 73 23 76 28 4 29 32 0 36 -20 3 -22 10 -25 70 -2 52 -7 67 -19
70 -9 2 -19 -4 -23 -13z"/>
<path d="M1160 403 c-42 -13 -60 -29 -70 -58 -21 -64 22 -115 98 -115 102 0
130 127 37 166 -36 15 -41 15 -65 7z m60 -53 c23 -23 25 -39 7 -64 -16 -21
-60 -24 -82 -6 -22 18 -18 57 7 74 30 21 44 20 68 -4z"/>
<path d="M1350 311 c0 -55 4 -102 9 -105 22 -14 32 25 29 110 -3 75 -6 89 -20
92 -16 3 -18 -7 -18 -97z"/>
<path d="M210 240 l0 -161 93 3 c74 2 92 6 92 18 0 12 -16 16 -72 18 l-73 3 0
119 0 119 73 3 c56 2 72 6 72 18 0 12 -18 16 -92 18 l-93 3 0 -161z"/>
<path d="M646 384 c-3 -9 -6 -73 -6 -144 0 -71 3 -135 6 -144 5 -13 23 -16 93
-16 92 0 103 3 94 26 -4 10 -24 14 -74 14 l-69 0 0 120 0 120 70 0 c63 0 70 2
70 20 0 19 -7 20 -89 20 -72 0 -90 -3 -95 -16z"/>
<path d="M1542 343 l3 -58 58 -3 c49 -3 58 -6 55 -20 -3 -14 -17 -18 -76 -20
-63 -2 -73 -5 -70 -20 3 -15 21 -17 157 -20 104 -2 158 1 167 9 24 20 4 29
-67 29 -62 0 -69 2 -69 20 0 16 8 19 57 22 46 2 59 7 61 21 3 15 -8 17 -117
17 l-121 0 0 25 0 25 120 0 c100 0 120 3 120 15 0 13 -22 15 -140 15 l-141 0
3 -57z"/>
<path d="M1107 184 c-4 -4 -7 -13 -7 -20 0 -10 30 -14 123 -16 l122 -3 3 -30
c5 -51 10 -59 28 -45 11 10 14 28 12 64 l-3 51 -136 3 c-74 1 -138 -1 -142 -4z"/>
<path d="M1540 165 c-18 -21 -4 -24 125 -27 l110 -3 5 -35 c3 -22 10 -35 20
-35 20 0 27 94 8 106 -7 5 -68 9 -134 9 -96 0 -124 -3 -134 -15z"/>
</g>
</svg>
