<svg viewBox="0 0 79 79" fill="none" xmlns="http://www.w3.org/2000/svg">
<path d="M28.9183 9.7957C26.0949 9.96391 21.34 24.6641 20.8679 27.6686L45.9107 29.0918L46.2393 45.5354C47.8738 46.4302 49.8259 46.7525 49.2022 48.6282C48.7129 50.0998 47.4485 50.7333 45.2339 49.47C42.756 48.4705 37.5161 47.0092 36.3793 49.1605C34.9583 51.8495 44.763 54.0557 48.5587 55.3177C52.3544 56.5798 54.251 55.6297 56.3043 52.6239C57.9468 50.2194 55.4553 45.1405 54.557 42.0316L52.6568 38.2383L50.4399 33.8128C47.7473 27.6484 53.3013 12.0177 48.8421 11.6781C44.7309 11.3649 44.3917 22.8443 43.6337 24.173C43.2126 24.9112 42.6872 27.0197 38.2605 27.6555C33.8326 26.7102 33.3187 26.671 30.8257 23.0758C27.9765 18.967 34.8944 9.43965 28.9183 9.7957Z" fill="black" stroke="black"/>
<path d="M26.4733 43.1786L30.5845 43.4917" stroke="black"/>
<path d="M21.8268 35.7072C22.0092 32.7128 23.9852 33.1671 25.0036 32.8952C25.8354 32.9459 27.4625 33.6461 27.3166 36.0417C27.1706 38.4372 25.4908 38.6021 24.6692 38.385C23.6812 38.1578 21.7295 37.3042 21.8268 35.7072Z" stroke="black"/>
<path d="M21.8217 35.7901C21.8876 34.709 22.6062 34.8734 22.9765 34.7754C23.2789 34.7938 23.8707 35.0469 23.818 35.9117C23.7653 36.7765 23.1545 36.8358 22.8557 36.7573C22.4964 36.6751 21.7866 36.3666 21.8217 35.7901Z" fill="black" stroke="black"/>
<path d="M30.8101 36.2545C30.9925 33.2601 32.9686 33.7144 33.987 33.4425C34.8188 33.4932 36.4459 34.1935 36.2999 36.589C36.154 38.9846 34.4742 39.1494 33.6525 38.9323C32.6645 38.7052 30.7128 37.8516 30.8101 36.2545Z" stroke="black"/>
<path d="M30.805 36.3374C30.8709 35.2564 31.5895 35.4207 31.9598 35.3227C32.2623 35.3411 32.854 35.5942 32.8013 36.459C32.7487 37.3239 32.1379 37.3831 31.8391 37.3046C31.4797 37.2224 30.7699 36.9139 30.805 36.3374Z" fill="black" stroke="black"/>
<path d="M16.3423 27.6911L45.7529 29.5663L45.9261 49.6466M16.3423 27.6911L15.0981 55.2038L45.9321 57.5523L45.9297 54.39M16.3423 27.6911L21.2423 25.6319M30.7267 22.4625L42.4245 18.9751L42.746 25.9319" stroke="black"/>
<path d="M40.0881 21.9936L16.5881 27.9936L40.0881 28.4936V26.9936V21.9936Z" stroke="black"/>
<path d="M47.9889 59.29L47.3471 46.9576L46.0815 46.0099L45.9321 57.5523L19.6838 55.6747L21.584 59.468C20.7006 62.125 20.3745 63.1055 21.7453 63.737C27.2277 65.2086 40.184 67.2332 48.1502 63.559C56.1164 59.8847 51.3619 59.1821 47.9889 59.29Z" fill="black" stroke="black"/>
<path d="M38.0881 24.4936L18.0881 28.1859L38.0881 28.4936V27.5705V24.4936Z" stroke="black"/>
<path d="M52.8436 57.9276C54.0406 57.8358 55.6911 57.9517 56.2931 58.6734C56.7248 59.1909 56.6175 60.0198 55.4175 61.3069" stroke="black"/>
<path d="M59.1273 55.518C60.0128 55.4859 61.2399 55.6053 61.7044 56.1075C62.0375 56.4675 61.9786 57.0243 61.1207 57.8631" stroke="black"/>
<path d="M56.5858 56.9764C57.5202 56.7972 58.7905 56.7867 59.203 57.4454C59.4987 57.9177 59.3535 58.734 58.3274 60.0788" stroke="black"/>
<path d="M8.87479 12.2637C8.95017 12.4138 9.04531 12.6122 9.16021 12.8589C9.28227 13.102 9.40435 13.363 9.52646 13.6418C9.65213 13.9099 9.76885 14.1781 9.87664 14.4462C9.98083 14.7072 10.0599 14.9271 10.1139 15.1059C10.1462 15.206 10.1661 15.308 10.1734 15.4117C10.1843 15.5047 10.1415 15.571 10.045 15.6105C10.0021 15.632 9.95734 15.6321 9.91079 15.6107C9.86425 15.5893 9.81948 15.5626 9.77649 15.5304C9.72992 15.4911 9.68871 15.4537 9.65287 15.4179C9.6206 15.3715 9.59907 15.3375 9.5883 15.3161C9.48426 15.1445 9.36764 14.939 9.23844 14.6995C9.10924 14.46 8.98002 14.2116 8.85079 13.9542C8.64005 14.1585 8.43112 14.3753 8.224 14.6046C8.01688 14.8339 7.83479 15.0596 7.67775 15.2817C7.66704 15.2961 7.6599 15.3086 7.65634 15.3193C7.65278 15.3301 7.64385 15.339 7.62956 15.3462C7.70503 15.55 7.78049 15.7449 7.85593 15.9308C7.93138 16.1167 7.99785 16.2847 8.05534 16.4349C8.09492 16.5672 8.10943 16.6852 8.09887 16.789C8.09187 16.8821 8.03833 16.9537 7.93824 17.004C7.83814 17.0542 7.73436 17.0347 7.62688 16.9454C7.5194 16.8562 7.43694 16.7544 7.3795 16.64C7.31848 16.5184 7.24306 16.3504 7.15326 16.1359C7.06345 15.9214 6.97005 15.6908 6.87303 15.4441C6.77602 15.1974 6.68438 14.9525 6.5981 14.7093C6.51183 14.4662 6.43991 14.2516 6.38236 14.0657C6.3356 13.9191 6.31568 13.7724 6.32259 13.6257C6.33306 13.4683 6.38834 13.3644 6.48843 13.3142C6.53847 13.2891 6.59393 13.2925 6.65481 13.3246C6.71924 13.346 6.77834 13.3835 6.83209 13.437C6.88585 13.4906 6.93425 13.5514 6.9773 13.6193C7.01675 13.68 7.04547 13.7372 7.06345 13.7908C7.10659 13.9124 7.14974 14.0429 7.19291 14.1824C7.23963 14.3111 7.28995 14.447 7.34386 14.59C7.48301 14.3679 7.65258 14.1441 7.85255 13.9183C8.05967 13.689 8.27933 13.4668 8.51152 13.2518C8.43611 13.0837 8.36608 12.9264 8.30143 12.7799C8.24393 12.6297 8.19721 12.501 8.16125 12.3937C8.11452 12.265 8.11437 12.1755 8.1608 12.1254C8.20364 12.0681 8.23935 12.0322 8.26795 12.0179C8.43598 11.9424 8.56656 11.944 8.65972 12.0226C8.75643 12.0904 8.82812 12.1708 8.87479 12.2637ZM4.08784 18.6687C4.00554 18.6653 3.92676 18.6242 3.8515 18.5457C3.7798 18.4563 3.74028 18.3598 3.73295 18.2561C3.71476 18.0772 3.71438 17.8536 3.73182 17.5852C3.74567 17.3097 3.76846 17.0342 3.8002 16.7587C3.83549 16.4724 3.87619 16.2058 3.92228 15.9589C3.97553 15.7083 4.02171 15.5151 4.06084 15.379C3.89291 15.5081 3.7125 15.6658 3.51961 15.8522C3.33029 16.0278 3.16421 16.1963 3.02137 16.3575C2.93567 16.4542 2.8463 16.4991 2.75327 16.4921C2.65665 16.478 2.57431 16.4477 2.50625 16.4013C2.44179 16.362 2.40413 16.3049 2.39327 16.2298C2.38241 16.1546 2.40374 16.0723 2.45725 15.9828C2.56075 15.8323 2.69464 15.6711 2.85893 15.4991C3.02322 15.3271 3.20183 15.1658 3.39477 15.0152C3.10817 14.7832 2.83943 14.5421 2.58857 14.2921C2.33771 14.0421 2.08503 13.7706 1.83052 13.4776C1.65845 13.2776 1.65639 13.113 1.82432 12.9839C1.87078 12.9517 1.92441 12.9337 1.98523 12.93C2.0496 12.9156 2.11221 12.9155 2.17306 12.9297C2.24105 12.9403 2.30369 12.9581 2.36098 12.983C2.41826 13.008 2.46125 13.0401 2.48994 13.0794C2.69778 13.2794 2.91642 13.5188 3.14587 13.7974C3.37531 14.0761 3.6155 14.3673 3.86645 14.671C3.90935 14.6494 3.95225 14.6279 3.99514 14.6064C4.03445 14.5777 4.07198 14.5544 4.10772 14.5364C4.20067 14.4897 4.29902 14.4717 4.40279 14.4822C4.50298 14.4857 4.58889 14.5141 4.66053 14.5677C4.73933 14.6176 4.80028 14.6944 4.84338 14.7981C4.8829 14.8947 4.88489 15.0145 4.84935 15.1577C4.80317 15.351 4.75525 15.5764 4.70559 15.8341C4.6595 16.081 4.61701 16.3441 4.57812 16.6232C4.54639 16.8987 4.51644 17.1779 4.4883 17.4605C4.4673 17.7396 4.46059 18.0026 4.46816 18.2495C4.46475 18.3496 4.41482 18.4463 4.31838 18.5395C4.22194 18.6327 4.14509 18.6758 4.08784 18.6687ZM10.4975 16.6455C10.5871 16.7348 10.6714 16.867 10.7504 17.0422C10.8294 17.2173 10.8995 17.4104 10.9607 17.6214C11.029 17.8288 11.0848 18.038 11.1281 18.249C11.1749 18.4493 11.2092 18.6156 11.2309 18.7479C11.2779 19.0376 11.1887 19.2167 10.9634 19.285C10.8705 19.3138 10.7828 19.2996 10.7004 19.2425C10.6216 19.1926 10.5678 19.1032 10.539 18.9745C10.5065 18.8386 10.4651 18.6848 10.4148 18.5132C10.3679 18.3308 10.314 18.152 10.2529 17.9768C10.1953 17.7908 10.1342 17.6156 10.0695 17.4512C10.0084 17.276 9.94376 17.1294 9.87558 17.0114C9.67178 17.0869 9.49846 17.2053 9.35562 17.3665C9.21278 17.5277 9.0878 17.6711 8.98068 17.7965C8.85214 17.9505 8.69478 17.9848 8.5086 17.8992C8.39044 17.8422 8.33487 17.7761 8.3419 17.7009C8.34534 17.6186 8.37738 17.522 8.43801 17.411C8.55213 17.1925 8.70206 16.9919 8.88779 16.8092C9.07353 16.6264 9.27366 16.499 9.48821 16.4271C9.6956 16.3588 9.88162 16.346 10.0463 16.3886C10.2181 16.4277 10.3685 16.5133 10.4975 16.6455ZM5.86605 16.5942C5.94503 16.7515 6.03833 16.9195 6.14596 17.0982C6.25 17.2698 6.35762 17.4395 6.46881 17.6075C6.57641 17.7683 6.67863 17.9184 6.77546 18.0578C6.8687 18.19 6.94401 18.2954 7.00139 18.374C7.05517 18.4455 7.08395 18.5384 7.08772 18.6529C7.09505 18.7567 7.05763 18.8426 6.97546 18.9107C6.93974 18.9465 6.87894 18.9592 6.79306 18.9486C6.71432 18.9344 6.64092 18.8952 6.57283 18.8309C6.46173 18.7166 6.33986 18.5808 6.20722 18.4236C6.07814 18.2557 5.95084 18.0824 5.82532 17.9037C5.70695 17.7215 5.59395 17.541 5.48632 17.3623C5.37509 17.1764 5.28179 17.0084 5.20641 16.8583C5.14176 16.7117 5.11653 16.599 5.13071 16.5203C5.14844 16.4308 5.18232 16.3646 5.23234 16.3216C5.33237 16.2355 5.44685 16.2318 5.57578 16.3103C5.71186 16.3852 5.80862 16.4798 5.86605 16.5942ZM17.2711 11.096C17.3535 11.1889 17.4056 11.3194 17.4274 11.4875C17.4491 11.6556 17.4512 11.8381 17.4337 12.0349C17.4125 12.2245 17.3806 12.4106 17.338 12.5931C17.2954 12.7757 17.2509 12.9278 17.2046 13.0495C17.2582 12.9958 17.3314 12.9366 17.4243 12.8721C17.5244 12.8039 17.628 12.7429 17.7353 12.6891C17.8497 12.6316 17.9641 12.5921 18.0786 12.5704C18.1966 12.538 18.2985 12.5361 18.3844 12.5646C18.5062 12.6109 18.6065 12.7037 18.6854 12.8431C18.7679 12.9718 18.7932 13.1202 18.7613 13.2884C18.7294 13.4387 18.6903 13.6105 18.6441 13.8038C18.6015 13.9863 18.5571 14.1742 18.5109 14.3675C18.4719 14.5572 18.4328 14.7469 18.3938 14.9366C18.3512 15.1191 18.3175 15.2837 18.2927 15.4305C18.5821 15.2225 18.8697 14.993 19.1555 14.7421C19.4377 14.484 19.6806 14.2457 19.8842 14.0271C19.9485 13.959 20.0235 13.9034 20.1093 13.8604C20.1951 13.8173 20.2666 13.7993 20.3239 13.8063C20.4241 13.8276 20.4832 13.8919 20.5013 13.9992C20.5229 14.0958 20.5177 14.1745 20.4856 14.2354C20.3608 14.5039 20.1877 14.7654 19.9663 15.0198C19.7449 15.2742 19.5092 15.5089 19.2591 15.724C19.0198 15.9426 18.784 16.1327 18.5517 16.294C18.3266 16.4518 18.1461 16.5648 18.0102 16.633C17.9531 16.6618 17.8833 16.6744 17.801 16.671C17.7187 16.6675 17.6382 16.6498 17.5594 16.6177C17.4878 16.582 17.4269 16.5321 17.3767 16.4677C17.3265 16.4034 17.3067 16.3194 17.3173 16.2156C17.3559 15.7934 17.4428 15.3335 17.5779 14.836C17.7094 14.3313 17.8446 13.8427 17.9833 13.3702C17.9297 13.424 17.8601 13.4903 17.7743 13.5691C17.6886 13.648 17.5993 13.7286 17.5064 13.8111C17.4099 13.8864 17.3188 13.9634 17.2331 14.0423C17.1438 14.114 17.067 14.175 17.0027 14.2251C16.9169 14.2861 16.8186 14.331 16.7077 14.3598C16.5933 14.3815 16.4895 14.3799 16.3964 14.355C16.3034 14.3301 16.2335 14.2801 16.1869 14.2051C16.1403 14.13 16.1455 14.0244 16.2025 13.8884C16.3414 13.5411 16.4642 13.1796 16.5709 12.8037C16.674 12.4207 16.7093 12.0987 16.6766 11.8376C16.6051 11.8556 16.5086 11.904 16.3871 11.983C16.2656 12.0619 16.1405 12.1515 16.0119 12.2519C15.8868 12.3416 15.7671 12.433 15.6528 12.5262C15.542 12.6087 15.458 12.6732 15.4009 12.7198C15.3116 12.7915 15.2132 12.8364 15.1059 12.8545C15.0022 12.8618 14.9055 12.8119 14.8159 12.7047C14.7621 12.6333 14.7441 12.5528 14.7618 12.4633C14.776 12.3667 14.8223 12.2718 14.9009 12.1786C14.983 12.0748 15.0866 11.969 15.2116 11.8615C15.3366 11.754 15.4689 11.6518 15.6082 11.5549C15.744 11.451 15.8816 11.3595 16.021 11.2805C16.1639 11.1909 16.298 11.1191 16.4231 11.0652C16.8021 10.8928 17.0847 10.9031 17.2711 11.096ZM11.6063 9.25404C11.5273 9.11464 11.5146 9.00017 11.5681 8.91064C11.6252 8.81037 11.6877 8.74765 11.7556 8.7225C11.9129 8.66141 12.04 8.68266 12.1368 8.78625C12.2407 8.88626 12.3357 9.01311 12.4218 9.1668C12.5008 9.32409 12.5816 9.48495 12.6641 9.64939C12.7539 9.81023 12.8436 9.97108 12.9333 10.1319C13.2688 9.6591 13.6026 9.22743 13.9346 8.8369C14.2703 8.43563 14.581 8.09165 14.8667 7.80495C14.9703 7.70818 15.0972 7.67577 15.2476 7.70771C15.3979 7.73966 15.5 7.80925 15.5538 7.91649C15.6077 8.05951 15.6724 8.21503 15.7478 8.38306C15.8268 8.54035 15.904 8.703 15.9794 8.87103C16.0583 9.02831 16.1337 9.1874 16.2056 9.34827C16.281 9.49841 16.3456 9.63604 16.3995 9.76117C16.4354 9.85056 16.4481 9.94713 16.4375 10.0509C16.4341 10.1511 16.3877 10.2281 16.2984 10.2819C16.2376 10.3214 16.1625 10.3322 16.073 10.3145C15.9907 10.2932 15.9065 10.2235 15.8204 10.1056C15.7703 10.0413 15.7093 9.94659 15.6375 9.82149C15.5729 9.6928 15.5011 9.55875 15.4222 9.41935C15.3504 9.27637 15.2804 9.13695 15.2122 9.00111C15.1404 8.85813 15.0829 8.74374 15.0399 8.65794C14.7542 8.98042 14.4596 9.32974 14.1561 9.70591C13.8527 10.0821 13.5653 10.4636 13.294 10.8504C13.5094 11.2794 13.7051 11.6959 13.8811 12.0999C14.0606 12.4931 14.1954 12.8507 14.2854 13.1725C14.3214 13.3155 14.3145 13.4444 14.2646 13.5589C14.2218 13.6699 14.1504 13.7595 14.0504 13.8276C13.9575 13.8922 13.8502 13.9281 13.7286 13.9355C13.6033 13.9357 13.4673 13.8966 13.3205 13.8181C13.1952 13.7468 13.0698 13.6486 12.9443 13.5236C12.8261 13.395 12.7167 13.2574 12.6163 13.1109C12.5123 12.9572 12.4226 12.8053 12.3472 12.6552C12.2682 12.4979 12.2125 12.3513 12.1801 12.2154C12.1224 11.9579 12.1184 11.7093 12.1681 11.4695C12.2178 11.2297 12.3015 11.0131 12.4192 10.8197C12.2721 10.5266 12.1285 10.2496 11.9885 9.98862C11.8557 9.72409 11.7283 9.47923 11.6063 9.25404ZM10.4018 11.027C10.5381 11.2629 10.7049 11.5328 10.9022 11.8365C11.1066 12.1367 11.3164 12.4387 11.5316 12.7424C11.7468 13.0462 11.9602 13.3374 12.1717 13.6161C12.3833 13.8948 12.5661 14.1342 12.7203 14.3343C12.853 14.5452 12.8408 14.699 12.6835 14.7959C12.6335 14.821 12.5637 14.8426 12.4743 14.8606C12.3885 14.8679 12.2811 14.8145 12.1521 14.7002C11.9765 14.5288 11.7757 14.3073 11.5499 14.0357C11.3276 13.7535 11.1035 13.4587 10.8776 13.1514C10.6481 12.8369 10.4275 12.5225 10.2159 12.208C10.0079 11.8828 9.83207 11.5951 9.68854 11.3449C9.63469 11.2376 9.60234 11.1464 9.59148 11.0713C9.58777 10.9926 9.63417 10.9246 9.73067 10.8672C9.84147 10.8026 9.96846 10.7881 10.1116 10.8236C10.2548 10.8591 10.3515 10.9269 10.4018 11.027ZM12.8833 12.3055C12.912 12.3984 12.9569 12.4968 13.0179 12.6004C13.0825 12.6933 13.1434 12.7791 13.2008 12.8577C13.2653 12.9327 13.3281 12.9952 13.389 13.0452C13.4463 13.088 13.4857 13.1041 13.5071 13.0933C13.4173 12.8788 13.315 12.6482 13.2001 12.4015C13.0816 12.1477 12.9541 11.885 12.8177 11.6133C12.7857 11.7457 12.7806 11.8692 12.8022 11.9836C12.8239 12.0981 12.8509 12.2053 12.8833 12.3055ZM18.4117 7.67661C18.4941 7.73371 18.5783 7.81228 18.6643 7.91231C18.7575 8.00876 18.8346 8.12669 18.8957 8.26612C18.9531 8.3984 18.9874 8.54682 18.9984 8.71137C19.0165 8.87234 18.9936 9.04053 18.9295 9.21595C19.0188 9.16213 19.1082 9.13515 19.1977 9.135C19.2835 9.1277 19.3605 9.1383 19.4285 9.16681C19.5037 9.19173 19.5681 9.23097 19.6219 9.28455C19.672 9.33097 19.7115 9.37384 19.7402 9.41315C19.8585 9.59541 19.9537 9.78487 20.0255 9.98152C20.101 10.1674 20.1603 10.357 20.2036 10.5501C20.2433 10.7361 20.2776 10.9202 20.3065 11.1027C20.3354 11.2851 20.3625 11.455 20.3878 11.6124C20.5843 11.4331 20.7361 11.2808 20.8432 11.1554C20.9468 11.0229 21.061 10.876 21.1859 10.7148C21.2502 10.6288 21.3252 10.5464 21.4109 10.4676C21.4931 10.3815 21.5825 10.3725 21.6792 10.4403C21.7222 10.4724 21.7509 10.5206 21.7653 10.585C21.7797 10.6494 21.7834 10.7192 21.7764 10.7943C21.7694 10.8694 21.7552 10.9482 21.7339 11.0305C21.7089 11.1057 21.6822 11.1683 21.6537 11.2185C21.5645 11.3796 21.4253 11.5748 21.2361 11.8041C21.054 12.0298 20.8683 12.2126 20.6789 12.3524C20.4895 12.4923 20.2999 12.5248 20.1102 12.45C19.924 12.3645 19.8039 12.2054 19.7498 11.973C19.7246 11.8514 19.6939 11.7012 19.6578 11.5223C19.6218 11.3435 19.5785 11.1593 19.5281 10.9698C19.4848 10.7767 19.4291 10.5943 19.3608 10.4227C19.2961 10.2403 19.2189 10.0866 19.1293 9.96156C19.0504 9.85794 18.9448 9.83486 18.8125 9.89233C18.6874 9.94621 18.5713 10.018 18.4641 10.1076C18.3533 10.1901 18.2424 10.2189 18.1315 10.194C18.017 10.162 17.9399 10.1067 17.9005 10.028C17.8251 9.87789 17.8463 9.71507 17.964 9.53956C18.0533 9.41419 18.1389 9.28167 18.221 9.142C18.3066 8.9916 18.3117 8.84132 18.2363 8.69119C18.1573 8.5339 18.057 8.42316 17.9352 8.35897C17.8206 8.29118 17.6649 8.24851 17.4681 8.23095C17.393 8.22392 17.3249 8.19542 17.264 8.14543C17.1995 8.0883 17.1618 8.00428 17.1509 7.89339C17.1436 7.78965 17.181 7.70372 17.2632 7.63561C17.3489 7.55675 17.4454 7.50829 17.5527 7.49022C17.7459 7.46485 17.9176 7.47709 18.068 7.52692C18.2147 7.56961 18.3293 7.61951 18.4117 7.67661ZM23.8125 5.67654C23.9345 5.90173 24.0727 6.15909 24.227 6.44862C24.3849 6.72742 24.5499 7.02052 24.7222 7.32791C24.8908 7.62815 25.0613 7.93197 25.2335 8.23937C25.4022 8.53961 25.5637 8.81661 25.7179 9.07037C25.7968 9.19188 25.8221 9.29559 25.7936 9.38151C25.7687 9.45668 25.7169 9.51401 25.6382 9.5535C25.5382 9.60375 25.4326 9.60751 25.3216 9.56476C25.2142 9.51128 25.1336 9.4488 25.0798 9.37734C24.6853 8.78768 24.3337 8.2212 24.0251 7.67791C23.7129 7.12747 23.4294 6.58055 23.1744 6.03717C23.1385 5.94779 23.1223 5.87089 23.1258 5.80649C23.1292 5.74208 23.1435 5.69018 23.1684 5.65079C23.2006 5.6078 23.2345 5.57733 23.2702 5.55938C23.306 5.54143 23.34 5.52885 23.3721 5.52164C23.458 5.49646 23.5438 5.4981 23.6298 5.52658C23.7157 5.55506 23.7766 5.60504 23.8125 5.67654ZM22.8603 7.52424C22.9322 7.703 23.0184 7.90142 23.1189 8.11949C23.2159 8.33041 23.32 8.54669 23.4313 8.76832C23.5425 8.98995 23.6502 9.20443 23.7543 9.41177C23.8656 9.61551 23.9625 9.7996 24.0451 9.96403C24.0953 10.0641 24.0865 10.1536 24.0187 10.2324C23.9473 10.3041 23.8847 10.3489 23.8311 10.3669C23.7739 10.3956 23.7023 10.3957 23.6164 10.3672C23.5305 10.3388 23.4696 10.3067 23.4338 10.271C23.3585 10.1924 23.2671 10.0637 23.1595 9.88502C23.0482 9.69917 22.9352 9.5008 22.8204 9.28991C22.7091 9.06827 22.5996 8.85022 22.4919 8.63574C22.3914 8.41766 22.307 8.23176 22.2387 8.07804C22.1387 8.18196 22.0334 8.30199 21.9227 8.43813C21.8156 8.56353 21.7085 8.69787 21.6014 8.84116C21.4979 8.97371 21.4015 9.10267 21.3122 9.22804C21.2266 9.34267 21.157 9.43581 21.1034 9.50745C21.0285 9.60776 20.9284 9.68484 20.8033 9.73872C20.6817 9.78186 20.5815 9.77845 20.5027 9.72849C20.4347 9.6821 20.4006 9.60523 20.4004 9.4979C20.3966 9.38342 20.4197 9.27784 20.4696 9.18116C20.5409 9.03793 20.6319 8.88036 20.7425 8.70844C20.8603 8.53294 20.9888 8.36099 21.128 8.1926C21.2637 8.01707 21.4029 7.84868 21.5458 7.68744C21.6886 7.52621 21.8243 7.38645 21.9529 7.26817C22.053 7.18213 22.1477 7.1301 22.2371 7.11206C22.3337 7.09043 22.4213 7.09565 22.5001 7.12772C22.5789 7.15978 22.6505 7.21333 22.715 7.28835C22.776 7.35623 22.8244 7.43485 22.8603 7.52424Z" fill="black"/>
<path d="M32.1452 69.8012C32.1462 69.9692 32.1436 70.1892 32.1373 70.4613C32.139 70.7333 32.1328 71.0213 32.1188 71.3254C32.1126 71.6215 32.0985 71.9136 32.0763 72.2017C32.054 72.4818 32.0275 72.714 31.9966 72.8982C31.9813 73.0023 31.9539 73.1025 31.9145 73.1987C31.8831 73.2869 31.8153 73.3274 31.7113 73.32C31.6633 73.3203 31.6232 73.3006 31.5909 73.2608C31.5587 73.221 31.5304 73.1772 31.5061 73.1293C31.4817 73.0735 31.4614 73.0216 31.4451 72.9737C31.4367 72.9177 31.4325 72.8778 31.4323 72.8538C31.4151 72.6539 31.4016 72.4179 31.3919 72.146C31.3822 71.8741 31.3764 71.5941 31.3746 71.3061C31.0952 71.3959 30.8118 71.4976 30.5245 71.6114C30.2372 71.7252 29.974 71.8469 29.7348 71.9764C29.7189 71.9845 29.7069 71.9926 29.699 72.0006C29.691 72.0087 29.679 72.0128 29.663 72.0129C29.6404 72.229 29.6217 72.4371 29.6069 72.6372C29.5922 72.8373 29.5773 73.0174 29.5623 73.1775C29.5392 73.3137 29.4999 73.4259 29.4445 73.5143C29.397 73.5946 29.3172 73.6351 29.2052 73.6358C29.0932 73.6365 29.0088 73.573 28.952 73.4454C28.8952 73.3177 28.8664 73.1899 28.8656 73.0619C28.8647 72.9259 28.8716 72.7418 28.8861 72.5098C28.9007 72.2777 28.9191 72.0295 28.9415 71.7654C28.9638 71.5012 28.9902 71.2411 29.0206 70.9849C29.0509 70.7287 29.0815 70.5045 29.1123 70.3123C29.1354 70.1601 29.1825 70.0198 29.2537 69.8914C29.3328 69.7549 29.4284 69.6863 29.5404 69.6856C29.5964 69.6852 29.6446 69.7129 29.6849 69.7687C29.7332 69.8164 29.7696 69.8761 29.7941 69.948C29.8185 70.0198 29.835 70.0957 29.8435 70.1757C29.8519 70.2476 29.8523 70.3116 29.8447 70.3677C29.8295 70.4958 29.8104 70.6319 29.7873 70.7761C29.7721 70.9122 29.757 71.0563 29.742 71.2083C29.9651 71.0709 30.2163 70.9454 30.4956 70.8316C30.7829 70.7178 31.0783 70.6159 31.3817 70.526C31.3886 70.342 31.3955 70.1699 31.4025 70.0099C31.4175 69.8498 31.4326 69.7137 31.4479 69.6016C31.4631 69.4655 31.5026 69.3853 31.5664 69.3609C31.6302 69.3284 31.6781 69.3121 31.7101 69.3119C31.8941 69.3188 32.0105 69.3781 32.0592 69.4898C32.1159 69.5934 32.1445 69.6972 32.1452 69.8012ZM25.0158 73.4221C24.9435 73.3825 24.8911 73.3109 24.8584 73.2071C24.8337 73.0952 24.8411 72.9912 24.8805 72.8949C24.9434 72.7265 25.0422 72.5259 25.1767 72.2931C25.3112 72.0522 25.4537 71.8153 25.6042 71.5824C25.7627 71.3414 25.9173 71.1204 26.0681 70.9194C26.2268 70.7184 26.3539 70.5656 26.4492 70.461C26.2415 70.5023 26.0099 70.5638 25.7544 70.6454C25.5068 70.7189 25.2833 70.7964 25.0838 70.8776C24.9641 70.9264 24.8641 70.927 24.7838 70.8795C24.7035 70.824 24.6431 70.7604 24.6026 70.6886C24.5622 70.6249 24.5538 70.5569 24.5773 70.4848C24.6009 70.4126 24.6565 70.3483 24.7441 70.2917C24.9036 70.2027 25.095 70.1175 25.3185 70.0361C25.542 69.9547 25.7736 69.8893 26.0133 69.8397C25.8592 69.5047 25.7251 69.1695 25.611 68.8343C25.4969 68.499 25.3906 68.1436 25.2923 67.7682C25.2267 67.5126 25.2977 67.3642 25.5055 67.3229C25.5614 67.3145 25.6175 67.3222 25.6736 67.3458C25.7377 67.3614 25.7939 67.3891 25.8422 67.4288C25.8984 67.4684 25.9467 67.5121 25.987 67.5599C26.0273 67.6076 26.0516 67.6555 26.0599 67.7034C26.1576 67.9748 26.2475 68.2862 26.3298 68.6377C26.412 68.9892 26.4983 69.3567 26.5887 69.7401C26.6367 69.7398 26.6847 69.7395 26.7327 69.7392C26.7806 69.7309 26.8246 69.7266 26.8646 69.7264C26.9686 69.7257 27.0648 69.7531 27.1531 69.8086C27.2414 69.856 27.3058 69.9196 27.3463 69.9994C27.3948 70.0791 27.4154 70.1749 27.4081 70.287C27.4008 70.391 27.3495 70.4994 27.2542 70.612C27.1271 70.7648 26.9843 70.9457 26.8256 71.1547C26.6748 71.3556 26.5202 71.5726 26.3617 71.8056C26.2111 72.0385 26.0606 72.2755 25.9101 72.5164C25.7676 72.7573 25.6451 72.9901 25.5425 73.2148C25.4951 73.3031 25.4075 73.3676 25.2797 73.4084C25.152 73.4492 25.064 73.4538 25.0158 73.4221ZM31.6584 74.4484C31.6991 74.5681 31.7161 74.724 31.7093 74.9161C31.7025 75.1081 31.6798 75.3123 31.6412 75.5285C31.6105 75.7447 31.5678 75.957 31.5132 76.1653C31.4664 76.3656 31.4234 76.5299 31.3842 76.6581C31.298 76.9387 31.1388 77.0597 30.9065 77.0211C30.8104 77.0058 30.7381 76.9542 30.6895 76.8665C30.641 76.7868 30.6324 76.6829 30.6636 76.5547C30.6947 76.4185 30.7257 76.2623 30.7566 76.0861C30.7955 75.9018 30.8263 75.7176 30.8492 75.5335C30.88 75.3413 30.9028 75.1571 30.9177 74.981C30.9405 74.7969 30.9475 74.6368 30.9387 74.5009C30.7225 74.4783 30.5147 74.5076 30.3152 74.5888C30.1157 74.6701 29.9402 74.7432 29.7886 74.8081C29.6051 74.8893 29.4488 74.8503 29.3198 74.6911C29.2392 74.5876 29.2187 74.5037 29.2583 74.4395C29.2978 74.3672 29.3694 74.2948 29.4729 74.2221C29.672 74.0768 29.8953 73.9634 30.1428 73.8819C30.3903 73.8003 30.6261 73.7748 30.8503 73.8054C31.0665 73.8361 31.239 73.907 31.3677 74.0182C31.5044 74.1293 31.6013 74.2727 31.6584 74.4484ZM27.5291 72.3503C27.5302 72.5263 27.5394 72.7182 27.5567 72.9261C27.574 73.126 27.5952 73.3259 27.6205 73.5257C27.6457 73.7176 27.6708 73.8974 27.6959 74.0653C27.7209 74.2251 27.7417 74.353 27.7583 74.4489C27.7748 74.5368 27.7595 74.6329 27.7121 74.7372C27.6727 74.8334 27.6011 74.8939 27.4972 74.9185C27.4493 74.9348 27.3892 74.9192 27.3169 74.8717C27.2526 74.8241 27.2042 74.7564 27.1717 74.6686C27.1227 74.5169 27.0736 74.3412 27.0243 74.1415C26.983 73.9337 26.9457 73.722 26.9124 73.5062C26.887 73.2903 26.8657 73.0785 26.8484 72.8706C26.831 72.6547 26.8218 72.4627 26.8207 72.2947C26.8277 72.1347 26.855 72.0225 26.9026 71.9582C26.9582 71.8859 27.0179 71.8415 27.0818 71.8251C27.2096 71.7923 27.3139 71.8396 27.3947 71.9671C27.4835 72.0946 27.5283 72.2223 27.5291 72.3503ZM35.2218 72.5059C35.2857 72.4895 35.4015 72.4648 35.5693 72.4318C35.7451 72.3907 35.9448 72.3534 36.1686 72.32C36.3924 72.2786 36.6202 72.2452 36.852 72.2197C37.0918 72.1862 37.3037 72.1689 37.4877 72.1677C37.6717 72.1666 37.7999 72.2017 37.8724 72.2733C37.9528 72.3368 37.9972 72.4005 38.0056 72.4645C38.0223 72.5764 37.9949 72.6725 37.9234 72.753C37.8519 72.8334 37.7362 72.8782 37.5762 72.8872C37.3443 72.9046 37.0845 72.9343 36.7968 72.9761C36.509 73.0179 36.2173 73.0677 35.9217 73.1256C35.626 73.1754 35.3383 73.2332 35.0587 73.299C34.7871 73.3567 34.5475 73.4142 34.3398 73.4715C34.228 73.5042 34.128 73.5088 34.0399 73.4854C33.9517 73.4619 33.8955 73.4223 33.8711 73.3665C33.8062 73.2149 33.7974 73.0829 33.8447 72.9706C33.9 72.8583 33.9793 72.7578 34.0828 72.6691C34.3135 72.4677 34.5042 72.2545 34.6548 72.0295C34.8133 71.7965 34.9474 71.4917 35.057 71.115C34.8404 71.0123 34.6755 70.8693 34.5623 70.6861C34.4572 70.5027 34.3999 70.3071 34.3906 70.0991C34.3735 69.9152 34.4084 69.739 34.4953 69.5705C34.5902 69.3939 34.7092 69.2411 34.8524 69.1122C35.0036 68.9753 35.1709 68.8622 35.3543 68.773C35.5377 68.6759 35.7213 68.6107 35.9051 68.5776C35.912 68.4015 35.9149 68.2295 35.9139 68.0615C35.9128 67.8935 35.9117 67.7255 35.9107 67.5575C35.9101 67.4615 35.9255 67.3734 35.957 67.2932C35.9885 67.213 36.0483 67.1687 36.1362 67.1601C36.2721 67.1432 36.3844 67.1905 36.4731 67.302C36.5698 67.4054 36.6267 67.549 36.6438 67.7329C36.6613 67.9728 36.6747 68.2007 36.6841 68.4167C36.7015 68.6326 36.7068 68.8445 36.7001 69.0526C36.6934 69.2526 36.6707 69.4608 36.632 69.677C36.6013 69.8852 36.5507 70.1096 36.4802 70.35C36.4097 70.5824 36.3148 70.763 36.1956 70.8918C36.0845 71.0205 35.961 71.1093 35.8253 71.1581C35.7474 71.4946 35.6611 71.7632 35.5664 71.9638C35.4716 72.1644 35.3568 72.3451 35.2218 72.5059ZM37.6371 74.9388C37.542 75.0754 37.4267 75.1962 37.2914 75.301C37.156 75.4059 37.0087 75.5148 36.8494 75.6278C36.9854 75.6189 37.1254 75.6261 37.2696 75.6491C37.4137 75.6722 37.542 75.7194 37.6545 75.7907C37.7027 75.8224 37.739 75.8702 37.7634 75.9341C37.7957 75.9898 37.8121 76.0537 37.8126 76.1257C37.821 76.1977 37.8095 76.2738 37.778 76.354C37.7544 76.4261 37.7108 76.4904 37.6472 76.5468C37.4642 76.7079 37.2652 76.8612 37.0501 77.0066C36.835 77.1599 36.6242 77.3532 36.4177 77.5865C36.6338 77.6012 36.8338 77.5999 37.0177 77.5828C37.2016 77.5656 37.3814 77.5405 37.5572 77.5074C37.741 77.4742 37.9288 77.437 38.1205 77.3958C38.3203 77.3546 38.544 77.3092 38.7917 77.2596C38.8397 77.2513 38.9077 77.2589 38.9958 77.2823C39.092 77.3057 39.1484 77.3694 39.1651 77.4733C39.1818 77.5852 39.1265 77.6975 38.9992 77.8103C38.8719 77.9311 38.7045 78.0202 38.4968 78.0775C38.0575 78.1922 37.6141 78.279 37.1664 78.3378C36.7269 78.4046 36.3109 78.4152 35.9186 78.3697C35.8225 78.3463 35.7263 78.3149 35.63 78.2755C35.5338 78.2361 35.4534 78.1846 35.389 78.121C35.3326 78.0574 35.2922 77.9816 35.2676 77.8938C35.2511 77.8139 35.2705 77.7217 35.3259 77.6174C35.421 77.4728 35.5321 77.3361 35.6593 77.2073C35.7945 77.0784 35.9297 76.9576 36.065 76.8447C36.2084 76.7398 36.3478 76.643 36.4832 76.5541C36.6266 76.4572 36.7541 76.3724 36.8656 76.2997C36.6576 76.301 36.4378 76.3344 36.2062 76.3998C35.9746 76.4573 35.743 76.5228 35.5115 76.5962C35.4157 76.6288 35.3277 76.6414 35.2477 76.6339C35.1757 76.6263 35.1116 76.6107 35.0554 76.5871C34.9993 76.5634 34.9551 76.5357 34.9229 76.5039C34.8987 76.4721 34.8865 76.4481 34.8864 76.4321C34.87 76.3602 34.8775 76.2922 34.9091 76.228C34.9487 76.1557 35.0003 76.0914 35.0639 76.035C35.1275 75.9706 35.1992 75.9102 35.2788 75.8537C35.3584 75.7972 35.4421 75.7446 35.5298 75.6961C35.6095 75.6476 35.7052 75.591 35.8168 75.5263C35.9363 75.4615 36.0559 75.3928 36.1755 75.32C36.303 75.2392 36.4265 75.1584 36.5459 75.0777C36.6654 74.9969 36.765 74.9203 36.8445 74.8478C36.9082 74.7914 36.9239 74.7473 36.8917 74.7155C36.8594 74.6757 36.8193 74.656 36.7713 74.6563C36.5152 74.6419 36.2754 74.6674 36.0518 74.7328C35.8282 74.7982 35.6286 74.8634 35.453 74.9285C35.3811 74.953 35.2931 74.9535 35.189 74.9302C35.0848 74.9069 35.0006 74.8714 34.9363 74.8238C34.872 74.7682 34.8356 74.7044 34.8271 74.6325C34.8266 74.5525 34.8861 74.4721 35.0056 74.3913C35.1331 74.3105 35.2806 74.2376 35.4482 74.1726C35.6238 74.0995 35.8075 74.0463 35.9993 74.0131C36.191 73.9719 36.3868 73.9467 36.5868 73.9374C36.7867 73.9281 36.9788 73.9389 37.163 73.9698C37.4272 74.0081 37.6119 74.111 37.717 74.2783C37.83 74.4456 37.8034 74.6658 37.6371 74.9388ZM34.0428 68.2173C34.0282 68.4334 34.0174 68.6374 34.0106 68.8295C34.0038 69.0135 34.001 69.2056 34.0023 69.4055C34.0035 69.5975 34.0088 69.8015 34.0181 70.0175C34.0354 70.2254 34.0568 70.4532 34.0824 70.7011C34.0991 70.813 34.0917 70.905 34.0601 70.9772C34.0285 71.0414 33.9728 71.0818 33.8929 71.0983C33.797 71.1149 33.7009 71.0955 33.6045 71.0401C33.5082 70.9847 33.4354 70.8691 33.3863 70.6934C33.321 70.4779 33.2756 70.2501 33.25 70.0103C33.2245 69.7704 33.2111 69.5345 33.2096 69.3025C33.2081 69.0705 33.2148 68.8505 33.2295 68.6424C33.2441 68.4263 33.2629 68.2302 33.2858 68.054C33.3008 67.8939 33.3401 67.7897 33.4038 67.7413C33.4675 67.6929 33.5313 67.6685 33.5953 67.6681C33.7633 67.667 33.8837 67.7263 33.9565 67.8458C34.0292 67.9654 34.058 68.0892 34.0428 68.2173ZM34.9788 70.1194C34.9794 70.2234 35.024 70.3151 35.1125 70.3946C35.209 70.474 35.3253 70.5133 35.4612 70.5124C35.5332 70.512 35.597 70.4796 35.6526 70.4152C35.7162 70.3428 35.7595 70.2345 35.7826 70.0904C35.7977 69.9463 35.8128 69.8062 35.828 69.6701C35.8431 69.526 35.8582 69.3859 35.8733 69.2498C35.7855 69.2823 35.6858 69.327 35.5742 69.3837C35.4705 69.4403 35.3749 69.5089 35.2874 69.5895C35.2 69.67 35.1245 69.7545 35.061 69.8429C35.0056 69.9313 34.9782 70.0234 34.9788 70.1194ZM40.0203 69.9318C40.0689 70.0194 40.1095 70.1272 40.1423 70.255C40.1832 70.3827 40.2 70.5226 40.193 70.6747C40.1859 70.8187 40.1508 70.967 40.0878 71.1194C40.0327 71.2717 39.9376 71.4123 39.8024 71.5412C39.9064 71.5325 39.9985 71.5479 40.0787 71.5874C40.1589 71.6189 40.2232 71.6625 40.2715 71.7182C40.3279 71.7739 40.3683 71.8376 40.3927 71.9095C40.4171 71.9733 40.4335 72.0292 40.4418 72.0771C40.4672 72.293 40.4685 72.505 40.4458 72.7131C40.4311 72.9132 40.4003 73.1094 40.3535 73.3017C40.3066 73.486 40.2558 73.6663 40.2009 73.8427C40.146 74.019 40.095 74.1834 40.048 74.3357C40.3035 74.2621 40.5071 74.1928 40.6587 74.1278C40.8102 74.0549 40.9777 73.9738 41.1612 73.8847C41.2569 73.8361 41.3606 73.7954 41.4724 73.7627C41.5842 73.722 41.6684 73.7535 41.725 73.8571C41.7493 73.905 41.7537 73.9609 41.7381 74.025C41.7225 74.0891 41.6949 74.1533 41.6553 74.2176C41.6157 74.2818 41.5681 74.3461 41.5125 74.4105C41.4568 74.4668 41.4051 74.5111 41.3573 74.5434C41.206 74.6484 40.9947 74.7617 40.7234 74.8834C40.4602 75.0051 40.2127 75.0866 39.981 75.1281C39.7492 75.1696 39.5649 75.1147 39.4279 74.9636C39.2989 74.8044 39.2617 74.6086 39.3162 74.3763C39.3475 74.2561 39.3865 74.1078 39.4334 73.9315C39.4803 73.7552 39.5232 73.5709 39.562 73.3787C39.6088 73.1864 39.6396 72.9982 39.6544 72.8141C39.6772 72.622 39.6761 72.45 39.6512 72.2981C39.6264 72.1703 39.5419 72.1028 39.3979 72.0957C39.2618 72.0886 39.1259 72.1014 38.9901 72.1343C38.8543 72.1591 38.7421 72.1358 38.6537 72.0644C38.5652 71.9849 38.5207 71.9012 38.5201 71.8132C38.519 71.6452 38.6102 71.5086 38.7935 71.4035C38.9291 71.3306 39.0646 71.2498 39.2 71.1609C39.3434 71.064 39.4146 70.9316 39.4135 70.7636C39.4124 70.5876 39.3715 70.4438 39.2908 70.3323C39.2181 70.2208 39.0974 70.1136 38.9288 70.0106C38.8645 69.971 38.8162 69.9153 38.7837 69.8435C38.7512 69.7637 38.7547 69.6717 38.794 69.5674C38.8334 69.4712 38.905 69.4107 39.0089 69.3861C39.1207 69.3534 39.2287 69.3527 39.3329 69.3841C39.5173 69.4469 39.6658 69.534 39.7785 69.6453C39.8912 69.7486 39.9718 69.8441 40.0203 69.9318ZM45.7482 70.5318C45.7578 70.7877 45.7676 71.0797 45.7777 71.4076C45.7957 71.7275 45.8138 72.0634 45.832 72.4153C45.8502 72.7592 45.8684 73.1071 45.8866 73.459C45.9048 73.8029 45.9268 74.1227 45.9526 74.4186C45.9695 74.5625 45.9462 74.6666 45.8826 74.731C45.8269 74.7874 45.7551 74.8158 45.6671 74.8164C45.5551 74.8171 45.4588 74.7737 45.3783 74.6862C45.3057 74.5906 45.2611 74.4989 45.2446 74.411C45.1521 73.7076 45.088 73.044 45.052 72.4202C45.0161 71.7884 45.0042 71.1725 45.0164 70.5724C45.0238 70.4763 45.0434 70.4002 45.075 70.344C45.1067 70.2878 45.1424 70.2476 45.1822 70.2233C45.2301 70.199 45.274 70.1868 45.314 70.1865C45.354 70.1862 45.39 70.19 45.4221 70.1978C45.5102 70.2133 45.5864 70.2528 45.6508 70.3164C45.7152 70.38 45.7477 70.4518 45.7482 70.5318ZM44.0759 71.7663C44.0611 71.9584 44.0505 72.1745 44.044 72.4145C44.0374 72.6466 44.035 72.8866 44.0365 73.1346C44.0381 73.3826 44.0396 73.6226 44.041 73.8546C44.0505 74.0865 44.0558 74.2945 44.057 74.4785C44.0577 74.5905 44.0101 74.6668 43.9144 74.7074C43.8186 74.74 43.7427 74.7525 43.6866 74.7448C43.6226 74.7452 43.5584 74.7136 43.494 74.65C43.4296 74.5864 43.3893 74.5307 43.373 74.4828C43.3403 74.379 43.3153 74.2231 43.298 74.0152C43.2807 73.7993 43.2672 73.5714 43.2577 73.3315C43.2562 73.0835 43.2546 72.8395 43.2531 72.5995C43.2596 72.3595 43.2663 72.1554 43.2733 71.9874C43.1376 72.0362 42.99 72.0971 42.8304 72.1701C42.6788 72.2351 42.5233 72.3081 42.3638 72.3891C42.2123 72.462 42.0687 72.5349 41.9332 72.6078C41.8056 72.6726 41.7019 72.7252 41.6222 72.7657C41.5105 72.8224 41.3867 72.8472 41.2506 72.8401C41.1225 72.8249 41.0342 72.7774 40.9857 72.6977C40.9453 72.626 40.9487 72.542 40.9961 72.4457C41.0435 72.3414 41.1109 72.2569 41.1985 72.1924C41.3259 72.0956 41.4773 71.9946 41.6526 71.8895C41.836 71.7844 42.0274 71.6872 42.2268 71.5979C42.4262 71.5007 42.6257 71.4114 42.8252 71.3302C43.0246 71.2489 43.2082 71.1837 43.3759 71.1347C43.5037 71.1019 43.6117 71.0972 43.6999 71.1207C43.796 71.1441 43.8723 71.1876 43.9287 71.2512C43.9851 71.3149 44.0256 71.3946 44.0502 71.4905C44.0747 71.5783 44.0833 71.6703 44.0759 71.7663Z" fill="black"/>
<path d="M60.6251 11.9173C60.5277 12.0541 60.3969 12.2311 60.2326 12.448C60.0749 12.6697 59.9014 12.8997 59.7121 13.1381C59.534 13.3746 59.3517 13.6033 59.1651 13.824C58.9832 14.0382 58.8259 14.211 58.6932 14.3424C58.6198 14.4178 58.539 14.4831 58.4508 14.5381C58.3737 14.5912 58.2951 14.5844 58.215 14.5176C58.1759 14.4898 58.1549 14.4503 58.152 14.3991C58.1491 14.348 58.1518 14.2959 58.1601 14.2429C58.173 14.1833 58.1869 14.1294 58.2017 14.081C58.2276 14.0307 58.2475 13.9958 58.2615 13.9763C58.3644 13.804 58.4914 13.6048 58.6426 13.3785C58.7938 13.1523 58.9529 12.9218 59.1199 12.6872C58.8407 12.5965 58.5513 12.5133 58.2518 12.4376C57.9522 12.3619 57.6675 12.3066 57.3977 12.2717C57.3801 12.269 57.3656 12.2685 57.3545 12.2704C57.3433 12.2723 57.3312 12.2686 57.3182 12.2593C57.1734 12.4214 57.0365 12.5793 56.9075 12.7329C56.7785 12.8866 56.6611 13.024 56.5553 13.1451C56.4569 13.242 56.3594 13.31 56.2627 13.3493C56.1773 13.3866 56.0889 13.3728 55.9976 13.3079C55.9064 13.243 55.875 13.1421 55.9036 13.0053C55.9322 12.8686 55.9836 12.7481 56.0578 12.6438C56.1367 12.533 56.2499 12.3877 56.3974 12.2079C56.545 12.0282 56.7051 11.8377 56.8777 11.6365C57.0503 11.4354 57.2239 11.2398 57.3984 11.0497C57.5729 10.8597 57.7288 10.6958 57.8662 10.5579C57.9739 10.4479 58.0942 10.3617 58.227 10.2992C58.3711 10.2347 58.4887 10.235 58.58 10.2999C58.6256 10.3324 58.6485 10.383 58.6486 10.4519C58.6599 10.5188 58.6544 10.5886 58.6322 10.6611C58.61 10.7337 58.579 10.8049 58.5391 10.8747C58.5039 10.938 58.4668 10.9902 58.4278 11.0312C58.3406 11.1262 58.2454 11.2254 58.1424 11.3288C58.0505 11.4303 57.954 11.5384 57.8528 11.653C58.1142 11.672 58.3914 11.7171 58.6844 11.7882C58.984 11.8639 59.2832 11.9541 59.5819 12.0586C59.6951 11.9133 59.8013 11.7778 59.9006 11.6521C60.0064 11.531 60.0983 11.4295 60.1763 11.3475C60.2682 11.246 60.3471 11.204 60.4132 11.2215C60.4839 11.2326 60.5323 11.2474 60.5584 11.2659C60.7036 11.3791 60.7634 11.4953 60.7375 11.6144C60.7229 11.7316 60.6854 11.8325 60.6251 11.9173ZM52.7245 10.6842C52.6891 10.6098 52.6885 10.521 52.7227 10.4177C52.7681 10.3126 52.8349 10.2325 52.9231 10.1774C53.0727 10.0777 53.2701 9.9727 53.5154 9.86252C53.7654 9.74583 54.0196 9.63704 54.2779 9.53614C54.5474 9.43337 54.8021 9.34457 55.0419 9.26974C55.2882 9.19956 55.4806 9.14993 55.6191 9.12085C55.4265 9.03284 55.2027 8.94722 54.9477 8.86397C54.7039 8.77885 54.4773 8.71089 54.268 8.66012C54.1424 8.62965 54.0609 8.57167 54.0236 8.48618C53.9908 8.39417 53.9791 8.30724 53.9882 8.22538C53.9927 8.15004 54.0256 8.09 54.0869 8.04525C54.1482 8.00051 54.231 7.98083 54.3351 7.98623C54.5165 8.00729 54.7217 8.05017 54.9506 8.11487C55.1794 8.17956 55.4056 8.26193 55.6289 8.36197C55.6999 8.00008 55.7872 7.64979 55.8907 7.31109C55.9943 6.97239 56.116 6.62204 56.2557 6.26002C56.352 6.01434 56.4965 5.9355 56.6892 6.0235C56.7394 6.04946 56.7804 6.08844 56.8121 6.14046C56.855 6.19061 56.8844 6.24589 56.9003 6.30631C56.9227 6.37137 56.9363 6.43505 56.9411 6.49735C56.9459 6.55965 56.9376 6.61267 56.9163 6.65642C56.8368 6.9337 56.7276 7.23892 56.5887 7.5721C56.4498 7.90528 56.3049 8.25382 56.1539 8.61771C56.193 8.64554 56.2321 8.67337 56.2712 8.7012C56.315 8.72251 56.3532 8.74477 56.3857 8.76796C56.4705 8.82826 56.5325 8.90673 56.5717 9.00338C56.6156 9.09351 56.6306 9.18276 56.6168 9.27113C56.6095 9.36414 56.5702 9.45396 56.4987 9.54057C56.4319 9.62067 56.3269 9.67851 56.1838 9.71411C55.9913 9.76374 55.7697 9.82691 55.5187 9.90361C55.2789 9.97843 55.0266 10.064 54.7617 10.1602C54.5033 10.2611 54.2426 10.3653 53.9797 10.4727C53.7232 10.5848 53.4876 10.7019 53.273 10.8241C53.1829 10.868 53.0741 10.8691 52.9466 10.8275C52.8191 10.7858 52.7451 10.7381 52.7245 10.6842ZM57.5121 15.4018C57.4751 15.5228 57.3977 15.6592 57.2799 15.811C57.162 15.9628 57.0242 16.1151 56.8664 16.2679C56.7151 16.4253 56.5563 16.5725 56.3901 16.7095C56.235 16.8447 56.1041 16.9528 55.9973 17.0339C55.7632 17.211 55.5633 17.216 55.3975 17.0489C55.3285 16.9802 55.3 16.8961 55.3119 16.7965C55.3192 16.7035 55.373 16.6142 55.4733 16.5284C55.5782 16.4362 55.6947 16.3276 55.8228 16.2028C55.9621 16.076 56.0948 15.9447 56.2211 15.8087C56.3585 15.6708 56.4847 15.5348 56.5998 15.4007C56.726 15.2647 56.8253 15.139 56.8976 15.0235C56.7356 14.8787 56.5499 14.7809 56.3405 14.7302C56.1312 14.6794 55.946 14.636 55.7851 14.6C55.5888 14.5585 55.4849 14.4355 55.4734 14.2309C55.4685 14.0998 55.5009 14.0197 55.5706 13.9908C55.6449 13.9553 55.7453 13.9384 55.8718 13.94C56.1182 13.9387 56.3657 13.9773 56.6141 14.0559C56.8626 14.1345 57.0688 14.2518 57.2327 14.4077C57.3902 14.559 57.4886 14.7174 57.5279 14.8829C57.5738 15.053 57.5685 15.226 57.5121 15.4018ZM55.39 11.2849C55.288 11.4283 55.1832 11.5893 55.0756 11.7681C54.9727 11.9403 54.873 12.1149 54.7766 12.2917C54.6849 12.4621 54.6 12.6226 54.5222 12.7734C54.449 12.9177 54.3911 13.0336 54.3484 13.1211C54.3105 13.2021 54.2418 13.271 54.1423 13.3279C54.0541 13.3829 53.9606 13.3901 53.862 13.3493C53.8136 13.3346 53.774 13.2867 53.7432 13.2059C53.7189 13.1297 53.7192 13.0464 53.7441 12.9562C53.7931 12.8045 53.8561 12.6333 53.9329 12.4425C54.0209 12.2498 54.1145 12.0562 54.2137 11.8617C54.3194 11.6718 54.426 11.4874 54.5335 11.3087C54.6457 11.1234 54.7505 10.9624 54.8479 10.8255C54.9472 10.6998 55.035 10.6247 55.1112 10.6004C55.1986 10.5742 55.273 10.5732 55.3344 10.5972C55.4572 10.6454 55.5141 10.7448 55.5051 10.8955C55.5026 11.0508 55.4642 11.1806 55.39 11.2849ZM61.5385 15.9106C61.5999 15.9346 61.7084 15.9823 61.8638 16.0537C62.0304 16.1231 62.2142 16.2098 62.4153 16.3136C62.621 16.4108 62.8253 16.517 63.0282 16.6319C63.2423 16.745 63.4243 16.8549 63.5743 16.9616C63.7242 17.0682 63.8076 17.1718 63.8245 17.2722C63.8526 17.3707 63.8513 17.4484 63.8207 17.5052C63.7688 17.6057 63.6904 17.6677 63.5853 17.6911C63.4803 17.7145 63.3602 17.6831 63.2252 17.5969C63.0269 17.4754 62.7989 17.3475 62.541 17.2131C62.2832 17.0787 62.0174 16.9485 61.7438 16.8225C61.4748 16.69 61.2077 16.5687 60.9424 16.4585C60.6884 16.3464 60.4603 16.2529 60.2584 16.1779C60.1486 16.139 60.0648 16.0843 60.007 16.0137C59.9492 15.9432 59.9268 15.8781 59.9397 15.8186C59.9757 15.6576 60.0457 15.5454 60.1498 15.482C60.2603 15.4232 60.3835 15.3881 60.5192 15.3767C60.8242 15.3483 61.1036 15.2869 61.3573 15.1925C61.6222 15.0962 61.9092 14.9274 62.2185 14.686C62.1028 14.476 62.0527 14.2636 62.0681 14.0487C62.09 13.8385 62.1581 13.6464 62.2721 13.4723C62.3658 13.3131 62.4972 13.1905 62.6663 13.1047C62.8465 13.0169 63.0324 12.9627 63.224 12.9419C63.4267 12.9192 63.6285 12.9253 63.8294 12.9603C64.035 12.9888 64.222 13.0433 64.3905 13.1239C64.499 12.9852 64.602 12.8474 64.6994 12.7105C64.7968 12.5736 64.8942 12.4367 64.9916 12.2998C65.0473 12.2216 65.1114 12.1592 65.1838 12.1126C65.2563 12.0659 65.3307 12.0649 65.407 12.1094C65.5271 12.1752 65.5905 12.2792 65.5973 12.4215C65.6152 12.5619 65.5773 12.7117 65.4837 12.8709C65.3576 13.0757 65.2352 13.2684 65.1164 13.4491C65.0042 13.6343 64.8846 13.8094 64.7575 13.9742C64.635 14.1325 64.4948 14.2881 64.337 14.4409C64.1903 14.5918 64.0181 14.7442 63.8203 14.898C63.6271 15.0452 63.4445 15.1362 63.2726 15.171C63.1071 15.2103 62.955 15.2101 62.8164 15.1704C62.5564 15.3977 62.3293 15.5651 62.1351 15.6724C61.941 15.7797 61.7421 15.8591 61.5385 15.9106ZM62.0746 19.2966C61.9175 19.3518 61.7535 19.3823 61.5823 19.3882C61.4112 19.394 61.228 19.3962 61.0327 19.3947C61.1482 19.4671 61.2576 19.5547 61.361 19.6578C61.4644 19.7608 61.5409 19.8742 61.5904 19.9978C61.611 20.0517 61.6125 20.1116 61.5949 20.1777C61.5885 20.2419 61.5644 20.3033 61.5227 20.362C61.4875 20.4253 61.4336 20.4802 61.3612 20.5269C61.2999 20.5716 61.2269 20.5982 61.1423 20.6068C60.8996 20.6304 60.6485 20.6383 60.3891 20.6304C60.1249 20.629 59.8409 20.6625 59.5369 20.731C59.7036 20.8692 59.8666 20.9852 60.0258 21.0788C60.185 21.1725 60.3455 21.2573 60.5075 21.3333C60.676 21.4139 60.85 21.4936 61.0296 21.5723C61.2158 21.6556 61.4238 21.7497 61.6537 21.8544C61.6974 21.8757 61.7482 21.9216 61.806 21.9922C61.8703 22.0674 61.8788 22.152 61.8315 22.246C61.7796 22.3466 61.6691 22.4053 61.4998 22.4224C61.326 22.4459 61.1381 22.4202 60.9361 22.3453C60.5127 22.1814 60.1023 21.9924 59.7048 21.7783C59.3092 21.5753 58.9656 21.3407 58.674 21.0743C58.6097 20.9991 58.5501 20.9173 58.495 20.8291C58.44 20.7408 58.405 20.6521 58.3899 20.5628C58.3814 20.4782 58.3929 20.3931 58.4244 20.3075C58.4577 20.233 58.5273 20.1697 58.6333 20.1174C58.795 20.0557 58.9651 20.0099 59.1436 19.9798C59.3286 19.9543 59.509 19.9354 59.6847 19.923C59.8624 19.9218 60.0321 19.9247 60.1939 19.9319C60.3669 19.9372 60.5199 19.9429 60.6529 19.9492C60.4834 19.8286 60.2856 19.7271 60.0595 19.6448C59.838 19.5559 59.6119 19.4735 59.3811 19.3977C59.2843 19.3681 59.2057 19.3268 59.1451 19.2739C59.0911 19.2257 59.0482 19.1755 59.0165 19.1235C58.9848 19.0715 58.9652 19.0231 58.9577 18.9785C58.9567 18.9385 58.9608 18.912 58.9701 18.899C58.9988 18.831 59.0447 18.7803 59.1079 18.7467C59.1823 18.7112 59.2617 18.6892 59.3463 18.6807C59.4356 18.6657 59.529 18.6585 59.6267 18.6593C59.7243 18.66 59.8229 18.6664 59.9225 18.6783C60.0155 18.6856 60.1262 18.6956 60.2545 18.7084C60.3894 18.7258 60.5266 18.74 60.6661 18.7509C60.8168 18.7599 60.9642 18.7666 61.1084 18.771C61.2525 18.7754 61.3781 18.7715 61.485 18.7592C61.5696 18.7507 61.6081 18.7241 61.6006 18.6795C61.5977 18.6283 61.5767 18.5889 61.5376 18.561C61.3383 18.3996 61.1289 18.28 60.9093 18.2022C60.6896 18.1245 60.4896 18.0607 60.3091 18.0108C60.2365 17.9886 60.1648 17.9376 60.094 17.8577C60.0232 17.7779 59.9756 17.6998 59.9513 17.6236C59.9316 17.5409 59.9394 17.4679 59.9746 17.4046C60.021 17.3394 60.1163 17.309 60.2604 17.3134C60.4111 17.3224 60.5734 17.3496 60.7474 17.3948C60.9326 17.4382 61.1126 17.5025 61.2876 17.5878C61.4672 17.6665 61.6408 17.7606 61.8084 17.87C61.976 17.9795 62.1255 18.1006 62.2569 18.2333C62.4488 18.419 62.5384 18.6104 62.5257 18.8076C62.5196 19.0094 62.3692 19.1724 62.0746 19.2966ZM63.0907 11.7424C62.9524 11.9091 62.8244 12.0684 62.7065 12.2202C62.5933 12.3655 62.4788 12.5196 62.3628 12.6825C62.2515 12.839 62.1365 13.0075 62.0177 13.1881C61.9102 13.3669 61.7943 13.5642 61.67 13.7802C61.6181 13.8807 61.5583 13.9511 61.4905 13.9912C61.4273 14.0248 61.3585 14.0249 61.284 13.9915C61.1965 13.9489 61.1299 13.877 61.0842 13.7757C61.0384 13.6744 61.047 13.5381 61.1099 13.3669C61.183 13.1538 61.2794 12.9425 61.399 12.7331C61.5186 12.5236 61.6456 12.3244 61.7801 12.1353C61.9146 11.9463 62.0487 11.7717 62.1823 11.6115C62.3206 11.4448 62.4505 11.2967 62.5721 11.1672C62.6779 11.0461 62.7708 10.9846 62.8508 10.9826C62.9308 10.9806 62.9968 10.9981 63.049 11.0352C63.1859 11.1327 63.2489 11.2511 63.2379 11.3906C63.227 11.5301 63.178 11.6474 63.0907 11.7424ZM62.7373 13.8327C62.677 13.9175 62.6595 14.0179 62.6848 14.1341C62.7167 14.255 62.788 14.3548 62.8988 14.4337C62.9574 14.4754 63.0281 14.4865 63.1109 14.4668C63.2048 14.4452 63.3032 14.3827 63.4063 14.2793C63.5028 14.1713 63.597 14.0665 63.6889 13.965C63.7854 13.8569 63.8796 13.7521 63.9715 13.6506C63.8813 13.6256 63.7743 13.6035 63.6506 13.5842C63.5334 13.5695 63.4157 13.5693 63.2976 13.5834C63.1796 13.5976 63.0689 13.622 62.9658 13.6566C62.8691 13.6958 62.793 13.7545 62.7373 13.8327ZM66.7347 21.7143C66.676 21.6726 66.6345 21.6136 66.6102 21.5374C66.597 21.4593 66.5918 21.377 66.5944 21.2905C66.6017 21.1975 66.6145 21.1036 66.633 21.0087C66.6579 20.9184 66.6903 20.8384 66.7302 20.7686C66.9507 20.3069 67.2192 19.8744 67.5356 19.4712C67.852 19.068 68.1801 18.6828 68.5198 18.3158C68.6117 18.2143 68.7059 18.1439 68.8026 18.1047C68.9104 18.0636 68.9997 18.0829 69.0705 18.1628C69.1386 18.2603 69.1681 18.3844 69.1591 18.5351C69.1566 18.6904 69.1024 18.8286 68.9966 18.9497C68.8722 19.0968 68.7479 19.244 68.6235 19.3911C68.5103 19.5364 68.3916 19.6826 68.2672 19.8298C68.2895 19.826 68.3151 19.8246 68.3439 19.8255C68.3727 19.8264 68.4048 19.8296 68.4402 19.8351C68.7034 19.8653 68.9983 19.9131 69.3248 19.9786C69.6625 20.0422 69.9635 20.109 70.2278 20.1793C70.4978 19.8412 70.7521 19.5459 70.9906 19.2935C71.0528 19.2199 71.1327 19.1491 71.2302 19.081C71.3389 19.0111 71.4235 19.0026 71.484 19.0555C71.5725 19.1381 71.6243 19.224 71.6393 19.3133C71.6609 19.4071 71.6582 19.4936 71.6314 19.5727C71.6111 19.6565 71.5754 19.7342 71.5244 19.8059C71.4734 19.8776 71.4261 19.9372 71.3824 19.9847C71.194 20.1943 70.9936 20.4346 70.7811 20.7056C70.5751 20.9812 70.3645 21.2634 70.1493 21.552C69.9406 21.8454 69.7341 22.1354 69.5301 22.4222C69.3371 22.7071 69.1651 22.9627 69.0139 23.189C68.9323 23.3175 68.8426 23.3813 68.745 23.3806C68.6539 23.3844 68.592 23.3748 68.5594 23.3516C68.4877 23.3006 68.4476 23.2328 68.4391 23.1481C68.4371 23.0682 68.4486 22.9831 68.4735 22.8928C68.5031 22.796 68.5415 22.7006 68.5888 22.6066C68.636 22.5126 68.6773 22.434 68.7125 22.3707C68.8376 22.1258 68.9888 21.8652 69.1659 21.5887C69.3495 21.3168 69.5453 21.0486 69.7531 20.7841C69.5615 20.7361 69.354 20.6965 69.1308 20.6653C68.9122 20.6275 68.6889 20.5963 68.461 20.5716C68.3438 20.5569 68.2326 20.5269 68.1275 20.4815C68.0334 20.4342 67.9724 20.3613 67.9443 20.2628C67.6363 20.6819 67.3284 21.1353 67.0205 21.6232C66.9342 21.7582 66.839 21.7886 66.7347 21.7143ZM66.9957 17.084C66.9607 17.2849 66.8973 17.4361 66.8054 17.5377C66.72 17.6438 66.6188 17.724 66.5017 17.7781C66.3846 17.8323 66.2559 17.8683 66.1155 17.8862C65.9751 17.9042 65.8435 17.9235 65.7208 17.9441C65.8093 18.0267 65.8755 18.1131 65.9194 18.2032C65.9744 18.2915 65.9969 18.391 65.9868 18.5016C65.9749 18.6012 65.9407 18.7045 65.8842 18.8115C65.8276 18.9186 65.7367 19.0257 65.6113 19.1328C65.486 19.24 65.3341 19.343 65.1557 19.4419C64.9773 19.5408 64.7948 19.6318 64.608 19.7149C64.8219 19.7592 65.0592 19.8053 65.3197 19.8532C65.5848 19.8945 65.8443 19.9369 66.0983 19.9801C66.1932 19.9986 66.2988 20.0295 66.4151 20.073C66.5379 20.1212 66.5896 20.1727 66.5702 20.2276C66.5693 20.2564 66.5406 20.29 66.4839 20.3282C66.4272 20.3664 66.3617 20.4033 66.2874 20.4387C66.2131 20.4742 66.1322 20.505 66.0448 20.5312C65.9621 20.5509 65.8887 20.5575 65.8245 20.5512C65.3232 20.5381 64.9046 20.5054 64.5688 20.4529C64.233 20.4005 63.9576 20.3322 63.7426 20.248C63.6086 20.2017 63.5201 20.1191 63.4772 20.0001C63.4407 19.8858 63.4303 19.79 63.446 19.7128C63.4737 19.6049 63.5149 19.5262 63.5697 19.4768C63.631 19.4321 63.6853 19.3971 63.7327 19.3719C63.9966 19.2357 64.2618 19.0906 64.5285 18.9367C64.8016 18.7874 65.0204 18.6387 65.1847 18.4905C65.0413 18.3885 64.891 18.2962 64.7336 18.2137C64.6527 18.1757 64.6023 18.1154 64.5827 18.0326C64.5695 17.9545 64.5698 17.8713 64.5836 17.7829C64.6039 17.6992 64.6373 17.6247 64.6837 17.5596C64.73 17.4944 64.7811 17.4571 64.8369 17.4477C64.9662 17.4317 65.1089 17.4105 65.2651 17.3842C65.4212 17.3578 65.5653 17.3278 65.6973 17.2941C65.8405 17.2585 65.9618 17.2123 66.0612 17.1554C66.1671 17.1031 66.2312 17.0407 66.2534 16.9681C66.2709 16.902 66.2043 16.8301 66.0535 16.7522C65.9092 16.679 65.752 16.6309 65.5817 16.608C65.5176 16.6016 65.4589 16.5599 65.4057 16.4828C65.3591 16.4103 65.3357 16.3397 65.3356 16.2708C65.3327 16.2197 65.3499 16.1681 65.387 16.1159C65.4306 16.0684 65.478 16.0432 65.5291 16.0403C65.7076 16.0103 65.8862 16.0146 66.0648 16.0533C66.2546 16.0902 66.4212 16.1596 66.5646 16.2617C66.7015 16.3591 66.8077 16.4789 66.8833 16.621C66.97 16.7613 67.0075 16.9156 66.9957 17.084ZM73.4011 23.6452C73.2422 23.6892 73.0813 23.722 72.9186 23.7437C72.7559 23.7653 72.5974 23.7949 72.4431 23.8324C72.2953 23.8745 72.1592 23.9347 72.0347 24.0131C71.9102 24.0914 71.81 24.2116 71.734 24.3735C71.7147 24.4972 71.6833 24.5828 71.6396 24.6304C71.6006 24.6713 71.5467 24.6919 71.4779 24.692C71.3142 24.6737 71.2178 24.5609 71.1886 24.3536C71.1706 24.2132 71.1871 24.0727 71.238 23.9322C71.3001 23.7898 71.3794 23.6646 71.4759 23.5565C71.5836 23.4466 71.7052 23.3515 71.8409 23.2713C71.983 23.1957 72.1322 23.1448 72.2884 23.1184C72.4446 23.0921 72.6064 23.0649 72.7737 23.0367C72.9457 23.002 73.1102 22.957 73.2673 22.9019C73.4244 22.8467 73.5619 22.7777 73.6798 22.6947C73.8024 22.6052 73.898 22.4916 73.9666 22.3538C73.9925 22.3035 73.9943 22.2459 73.9719 22.1808C73.9541 22.1092 73.9163 22.0382 73.8585 21.9676C73.8053 21.8905 73.7331 21.8195 73.6419 21.7545C73.5618 21.6877 73.4668 21.6349 73.357 21.596C73.1746 21.535 72.9863 21.5237 72.792 21.5622C72.6024 21.5941 72.4579 21.673 72.3586 21.7987C72.33 21.9354 72.2757 22.0048 72.1957 22.0068C72.1269 22.0069 72.0664 21.9884 72.0143 21.9513C71.9687 21.9189 71.9356 21.8757 71.915 21.8218C71.8699 21.554 71.9221 21.3359 72.0715 21.1673C72.2274 21.0033 72.4174 20.8881 72.6414 20.8217C72.8589 20.7506 73.0826 20.733 73.3123 20.7689C73.5532 20.8029 73.7794 20.8852 73.9907 21.016C74.2588 21.1773 74.4643 21.3923 74.607 21.6608C74.761 21.9274 74.7898 22.218 74.6937 22.5325C74.5743 22.8796 74.3934 23.1338 74.151 23.2951C73.9086 23.4564 73.6586 23.5731 73.4011 23.6452ZM70.9021 26.4326C70.8567 26.5377 70.7857 26.6099 70.689 26.6492C70.5924 26.6884 70.491 26.6997 70.385 26.6832C70.2855 26.6713 70.1957 26.6319 70.1156 26.5651C70.042 26.5029 70.0014 26.4151 69.9937 26.3017C69.9871 26.2282 70.0014 26.1598 70.0366 26.0965C70.0718 26.0332 70.1159 25.9713 70.1688 25.9108C70.2282 25.8549 70.2853 25.8022 70.3401 25.7528C70.4014 25.7081 70.4483 25.6629 70.4808 25.6173C70.4947 25.5977 70.5174 25.5795 70.549 25.5627C70.5806 25.5459 70.6108 25.538 70.6396 25.5389C70.6796 25.5379 70.7127 25.5466 70.7387 25.5652C70.7648 25.5837 70.7802 25.6242 70.785 25.6865C70.8252 25.8231 70.8664 25.9653 70.9085 26.1131C70.9552 26.2544 70.9531 26.3609 70.9021 26.4326Z" fill="black"/>
</svg>
