<svg viewBox="0 0 27 40" fill="none" xmlns="http://www.w3.org/2000/svg">
<path d="M3.48188 5.56676C-0.15319 7.07318 1.80301 9.81022 4.56889 9.6776L24.1606 6.79559L21.3451 5.68168L22.7033 4.99212L19.748 4.23185L20.7769 3.00301C16.5265 3.22991 7.11694 4.06033 3.48188 5.56676Z" stroke="black"/>
<path d="M1.5 7.67386V28.1739C1.50001 30.6739 1.5 31.7364 4.49999 31.1739M4.49999 31.1739V10.1739M4.49999 31.1739C15 29.2051 18 28.1739 24.5 26.1739V7.17386" stroke="black"/>
<circle cx="9.5" cy="16.1739" r="0.5" fill="black"/>
<circle cx="18.5" cy="15.1739" r="0.5" fill="black"/>
<ellipse cx="19" cy="17.1739" rx="1" ry="0.5" fill="#FA93B8" fill-opacity="0.67"/>
<ellipse cx="9" cy="18.1739" rx="1" ry="0.5" fill="#FA93B8" fill-opacity="0.67"/>
<path d="M13 21.6739H16.5" stroke="black"/>
<path d="M10.1182 29.6739C9.78483 31.3405 10.1182 34.6739 10.1182 36.1739M10.1182 36.1739C10.1182 37.9766 9.61816 39.6739 8.11815 39.1739C7.61817 37.1739 8.78483 37.0072 10.1182 36.1739Z" stroke="black"/>
<path d="M19.1182 27.6739C18.7848 29.3405 19.1182 32.6739 19.1182 34.1739M19.1182 34.1739C19.1182 35.9766 18.6182 37.6739 17.1182 37.1739C16.6182 35.1739 17.7848 35.0072 19.1182 34.1739Z" stroke="black"/>
</svg>
