<svg width="348" height="181" viewBox="0 0 348 181" fill="none" xmlns="http://www.w3.org/2000/svg">
<path d="M283.215 179.991C282.891 179.964 282.576 179.822 282.345 179.578C270.723 167.372 260.412 153.869 251.696 139.439L251.522 139.159C249.963 136.568 248.344 133.891 245.994 132.227C243.927 130.763 241.431 130.113 238.382 129.417C211.566 123.284 119.401 114.439 58.408 108.583C29.9487 105.848 7.47213 103.694 1.98512 102.794C1.32112 102.685 0.838914 102.107 0.847965 101.428C1.46645 68.4247 3.10574 35.0032 5.72243 2.09143C5.75453 1.70666 5.94701 1.35567 6.25202 1.12282C6.55703 0.889975 6.94531 0.800018 7.32683 0.872633C56.6192 10.3007 200.416 24.7382 286.337 33.3613C326.634 37.4076 347.004 39.7031 347.448 40.2477C348.287 41.2828 348.084 43.7129 337.771 96.0074C334.236 113.929 330.899 130.862 329.502 139.208C329.474 139.389 329.406 139.553 329.318 139.702C329.365 139.713 329.412 139.724 329.458 139.734C330.184 139.917 330.627 140.647 330.444 141.373C330.261 142.099 329.523 142.54 328.804 142.365C316.62 139.336 304.086 137.651 291.531 137.365L284.668 178.868C284.585 179.378 284.224 179.789 283.729 179.945C283.561 179.999 283.39 180.012 283.221 179.998L283.215 179.991ZM3.58173 100.283C10.5447 101.259 31.969 103.311 58.6676 105.879C119.728 111.741 212.001 120.595 238.984 126.768C241.613 127.368 244.889 128.117 247.559 130.012C250.371 132.007 252.133 134.928 253.842 137.755L254.009 138.034C262.152 151.513 271.703 164.178 282.429 175.717L289.033 135.763C289.143 135.1 289.72 134.618 290.392 134.633C302.642 134.832 314.871 136.335 326.805 139.098C326.794 138.989 326.797 138.873 326.82 138.753C328.227 130.374 331.565 113.421 335.109 95.4795C339.352 73.9665 344.562 47.5382 345.062 42.2032C340.05 41.4724 315.944 39.0466 286.072 36.0513C200.954 27.502 59.0651 13.2577 8.31307 3.80303C5.80167 35.7787 4.20971 68.2254 3.58848 100.284L3.58173 100.283Z" fill="black"/>
</svg>
