<svg xmlns="http://www.w3.org/2000/svg" xmlns:xlink="http://www.w3.org/1999/xlink" width="380" zoomAndPan="magnify" viewBox="0 0 285 246.749995" height="329" preserveAspectRatio="xMidYMid meet" version="1.0"><defs><clipPath id="b39d5bdd09"><path d="M 150.554688 96.503906 L 284.667969 96.503906 L 284.667969 246.355469 L 150.554688 246.355469 Z M 150.554688 96.503906 " clip-rule="nonzero"/></clipPath><clipPath id="e935e09f01"><path d="M 2.667969 105.308594 L 150.53125 105.308594 L 150.53125 246.167969 L 2.667969 246.167969 Z M 2.667969 105.308594 " clip-rule="nonzero"/></clipPath><clipPath id="64a663361d"><path d="M 81.296875 84.78125 L 165.714844 84.78125 L 165.714844 150.011719 L 81.296875 150.011719 Z M 81.296875 84.78125 " clip-rule="nonzero"/></clipPath><clipPath id="96a346e7b5"><path d="M 67.417969 0.246094 L 193.441406 0.246094 L 193.441406 90.519531 L 67.417969 90.519531 Z M 67.417969 0.246094 " clip-rule="nonzero"/></clipPath><clipPath id="381b2c28f0"><path d="M 59.335938 56 L 81 56 L 81 93 L 59.335938 93 Z M 59.335938 56 " clip-rule="nonzero"/></clipPath></defs><g clip-path="url(#b39d5bdd09)"><path fill="#000000" d="M 245.613281 96.746094 C 244.035156 96.964844 240.46875 98.671875 224.890625 106.65625 C 222.65625 107.804688 221.5625 108.363281 219.003906 109.671875 C 218.316406 110.019531 216.609375 110.886719 215.207031 111.597656 C 204.851562 116.839844 203.117188 117.792969 201.519531 119.140625 C 200.277344 120.183594 199.308594 121.488281 199.402344 121.988281 C 199.457031 122.289062 199.890625 122.285156 199.992188 121.984375 C 200.144531 121.511719 201.136719 120.386719 202.03125 119.664062 C 203.660156 118.351562 205.394531 117.371094 212.199219 113.921875 C 219.128906 110.40625 220.910156 109.5 222.1875 108.839844 C 230.261719 104.6875 241.574219 98.988281 243.035156 98.34375 C 245.484375 97.261719 246.390625 97.128906 247.511719 97.691406 C 248.542969 98.210938 249.5625 99.207031 249.992188 100.121094 L 250.144531 100.433594 L 248.578125 101.210938 C 246.742188 102.117188 244.597656 103.257812 241.761719 104.832031 C 236.667969 107.664062 229.980469 111.167969 225.375 113.410156 C 213.457031 119.222656 204.703125 123.859375 204.558594 124.4375 C 204.445312 124.875 204.804688 124.957031 205.335938 124.617188 C 205.992188 124.1875 208.324219 122.886719 210.976562 121.460938 C 214.019531 119.832031 219.566406 117.035156 225.628906 114.074219 C 230.550781 111.675781 236.835938 108.386719 242.273438 105.371094 C 245.113281 103.792969 247.179688 102.691406 248.992188 101.792969 C 249.828125 101.375 250.542969 101.011719 250.578125 100.980469 C 250.757812 100.832031 254.933594 104.050781 257.640625 106.417969 C 260.371094 108.8125 262.445312 110.832031 267.910156 116.421875 C 269.199219 117.742188 272.078125 120.65625 274.308594 122.902344 C 276.542969 125.148438 278.535156 127.179688 278.742188 127.414062 C 279.238281 127.972656 279.605469 128.097656 279.6875 127.730469 C 279.773438 127.335938 279.753906 127.316406 273.316406 120.8125 C 261.113281 108.488281 259.957031 107.363281 256.75 104.675781 C 254.734375 102.988281 251.425781 100.539062 250.921875 100.363281 C 250.8125 100.324219 250.761719 100.269531 250.738281 100.15625 C 250.679688 99.847656 250.308594 99.160156 250 98.777344 C 248.792969 97.277344 247.171875 96.527344 245.613281 96.746094 M 199.234375 122.535156 C 198.800781 122.675781 198.402344 123.191406 197.253906 125.125 C 194.851562 129.164062 193.257812 132.71875 190.152344 140.980469 C 189.003906 144.035156 188.429688 145.417969 187.742188 146.800781 C 187.039062 148.210938 186.898438 148.816406 187.269531 148.886719 C 187.523438 148.933594 187.625 148.851562 187.753906 148.492188 C 187.816406 148.3125 188.105469 147.675781 188.394531 147.074219 C 189.199219 145.390625 189.492188 144.671875 190.789062 141.226562 C 193.734375 133.40625 195.417969 129.628906 197.632812 125.894531 C 199.179688 123.285156 199.421875 123 199.871094 123.261719 C 200.511719 123.640625 202.546875 125.519531 203.242188 126.375 C 203.382812 126.550781 203.433594 126.574219 203.613281 126.574219 C 204.34375 126.574219 203.683594 125.605469 201.746094 123.839844 C 200.371094 122.589844 199.871094 122.332031 199.234375 122.535156 M 278.082031 128.96875 C 278.011719 129.003906 277.792969 129.136719 277.597656 129.257812 C 277.023438 129.609375 275.585938 130.375 272.804688 131.808594 C 271.375 132.546875 269.734375 133.390625 269.160156 133.6875 C 265.402344 135.625 263.21875 136.886719 259.578125 139.230469 C 257.003906 140.882812 255.550781 141.800781 253.332031 143.167969 C 249.023438 145.824219 241.75 150.398438 237.9375 152.851562 C 235.527344 154.402344 234.449219 155.0625 233.4375 155.617188 L 232.585938 156.082031 L 232.574219 156.34375 C 232.554688 156.621094 232.601562 156.664062 232.894531 156.667969 C 233.191406 156.667969 235.269531 155.433594 238.882812 153.113281 C 242.886719 150.539062 249.441406 146.417969 254.503906 143.292969 C 255.796875 142.5 257.402344 141.492188 258.074219 141.058594 C 264.09375 137.171875 265.425781 136.402344 271.683594 133.1875 C 275.832031 131.058594 277.878906 129.9375 278.460938 129.488281 C 278.558594 129.414062 278.609375 129.054688 278.535156 128.980469 C 278.464844 128.910156 278.195312 128.902344 278.082031 128.96875 M 206.605469 129.855469 C 206.539062 129.871094 206.515625 129.929688 206.515625 130.078125 C 206.515625 130.273438 206.550781 130.316406 207.484375 131.238281 L 208.453125 132.191406 L 208.300781 132.679688 C 207.695312 134.578125 207.605469 136.417969 208.019531 138.386719 C 208.453125 140.464844 209.769531 144.003906 210.132812 144.085938 C 210.769531 144.226562 210.71875 143.925781 209.753906 141.792969 C 209.511719 141.257812 209.167969 140.183594 208.886719 139.085938 C 208.296875 136.792969 208.257812 135.539062 208.707031 133.535156 C 208.914062 132.625 208.878906 132.648438 209.324219 133.125 C 210.039062 133.898438 215.820312 139.953125 217.269531 141.453125 C 219.195312 143.445312 221.136719 145.398438 224.539062 148.761719 C 227.539062 151.730469 228.757812 152.972656 230.003906 154.332031 C 230.808594 155.203125 230.914062 155.285156 231.203125 155.210938 C 231.355469 155.171875 231.410156 155.042969 231.363281 154.828125 C 231.300781 154.539062 229.597656 152.769531 223.949219 147.125 C 220.875 144.050781 217.570312 140.707031 216.601562 139.695312 C 215.640625 138.683594 213.710938 136.664062 212.320312 135.203125 C 209.539062 132.289062 207.207031 129.949219 207 129.871094 C 206.863281 129.816406 206.761719 129.8125 206.605469 129.855469 M 200.824219 129.910156 C 200.789062 129.929688 200.625 130.269531 200.460938 130.664062 C 198.535156 135.179688 194.457031 144.292969 193.941406 145.222656 C 193.585938 145.871094 193.414062 145.972656 192.089844 146.359375 C 189.59375 147.082031 187.785156 148.015625 187.882812 148.523438 C 187.933594 148.800781 188.195312 148.785156 188.675781 148.472656 C 189.386719 148.011719 190.890625 147.402344 192.320312 146.992188 C 194.230469 146.445312 194.152344 146.523438 195.214844 144.1875 C 195.535156 143.484375 196.113281 142.222656 196.496094 141.382812 C 197.339844 139.542969 198.121094 137.78125 199.300781 135.078125 C 201.53125 129.964844 201.4375 130.199219 201.320312 129.980469 C 201.261719 129.867188 200.957031 129.824219 200.824219 129.910156 M 273.117188 133.019531 C 273.03125 133.105469 273.09375 133.453125 273.238281 133.683594 C 274.320312 135.390625 274.824219 140.960938 274.332031 145.746094 C 274.0625 148.328125 273.777344 149.847656 272.601562 154.855469 C 272.289062 156.1875 272.121094 156.941406 271.867188 158.148438 C 271.351562 160.601562 271.152344 162.480469 271.113281 165.25 C 271.054688 169.496094 271.347656 171.800781 272.753906 178.105469 C 274.105469 184.164062 274.246094 185.699219 273.894531 190.320312 C 273.820312 191.292969 273.839844 191.378906 274.15625 191.378906 C 274.4375 191.378906 274.480469 191.253906 274.554688 190.253906 C 274.902344 185.554688 274.757812 184.046875 273.316406 177.546875 C 271.953125 171.417969 271.566406 168.117188 271.753906 164.324219 C 271.917969 161.125 272.1875 159.523438 273.542969 153.757812 C 274.292969 150.574219 274.65625 148.671875 274.890625 146.664062 C 275.527344 141.183594 275.019531 135.25 273.738281 133.226562 C 273.585938 132.988281 273.257812 132.878906 273.117188 133.019531 M 207.023438 140.871094 C 205.328125 142.632812 200.769531 144.757812 197.339844 145.386719 C 196.273438 145.582031 196.277344 145.578125 196.242188 145.769531 C 196.160156 146.191406 196.398438 146.238281 197.527344 146.03125 C 200.972656 145.394531 204.527344 143.8125 206.949219 141.839844 C 207.640625 141.277344 207.695312 141.207031 207.679688 140.941406 L 207.664062 140.71875 L 207.433594 140.703125 C 207.226562 140.6875 207.183594 140.707031 207.023438 140.871094 M 210.640625 144.011719 C 210.601562 144.089844 210.597656 144.484375 210.621094 145.367188 C 210.664062 146.8125 210.683594 146.671875 210.449219 146.761719 C 208.476562 147.539062 207.167969 148.957031 205.671875 151.9375 C 203.808594 155.648438 202.929688 156.867188 199.863281 159.988281 C 197.410156 162.480469 197.21875 162.765625 196.140625 165.472656 C 195.359375 167.449219 195.316406 167.527344 194.625 168.246094 C 194.101562 168.789062 192.964844 169.46875 191.570312 170.074219 C 188.558594 171.382812 186.3125 173.121094 185.484375 174.785156 C 185.425781 174.898438 185.371094 174.941406 185.277344 174.941406 C 185.066406 174.941406 184.109375 175.089844 183.4375 175.226562 C 177.75 176.386719 172 180.90625 168.25 187.167969 C 166.296875 190.421875 165.03125 193.28125 162.296875 200.589844 C 158.453125 210.867188 155.613281 217.1875 151.238281 225.195312 C 150.617188 226.328125 150.566406 226.550781 150.898438 226.621094 C 151.164062 226.679688 151.28125 226.585938 151.585938 226.046875 C 153.242188 223.117188 155.863281 217.882812 157.542969 214.144531 C 159.546875 209.691406 160.457031 207.453125 162.757812 201.296875 C 167.511719 188.601562 170.230469 184.050781 175.527344 179.914062 C 179.398438 176.890625 182.070312 175.859375 187.144531 175.425781 C 189.105469 175.261719 189.828125 175.1875 191.605469 174.96875 C 195.078125 174.542969 195.890625 174.519531 198.996094 174.765625 C 200.011719 174.84375 200.972656 174.941406 201 174.964844 C 201.023438 174.992188 200.675781 175.398438 199.765625 176.398438 C 195.304688 181.300781 193.4375 185.070312 193.148438 189.769531 C 192.605469 198.628906 198.984375 203.324219 207.867188 200.609375 C 212.195312 199.28125 216.804688 196.648438 225.121094 190.734375 C 228.019531 188.671875 232.078125 185.875 232.726562 185.488281 C 233.183594 185.21875 233.257812 185.121094 233.195312 184.871094 C 233.160156 184.722656 233.027344 184.671875 232.816406 184.71875 C 232.390625 184.808594 229.074219 187.023438 224.8125 190.050781 C 215.390625 196.75 210.3125 199.53125 205.804688 200.460938 C 198.429688 201.984375 193.140625 197.148438 193.820312 189.492188 C 194.207031 185.117188 196.023438 181.605469 200.375 176.832031 C 201.171875 175.957031 201.632812 175.402344 201.769531 175.15625 C 201.847656 175.019531 202.65625 175.175781 202.609375 175.320312 C 202.246094 176.472656 200.15625 180.691406 198.859375 182.890625 C 198.007812 184.335938 197.933594 184.492188 197.972656 184.710938 C 198.011719 184.921875 198.214844 185 198.441406 184.886719 C 198.871094 184.671875 201.871094 178.945312 203.019531 176.140625 C 203.183594 175.75 203.347656 175.402344 203.386719 175.371094 C 203.425781 175.339844 203.476562 175.210938 203.5 175.089844 C 203.523438 174.964844 203.75 174.324219 204.003906 173.664062 C 205.023438 171.011719 205.917969 168.402344 207.382812 163.816406 C 210.453125 154.203125 211.464844 149.507812 211.253906 145.925781 C 211.21875 145.335938 211.1875 144.667969 211.183594 144.445312 C 211.179688 144.21875 211.160156 144.007812 211.136719 143.972656 C 211.066406 143.863281 210.707031 143.890625 210.640625 144.011719 M 252.019531 145.113281 C 251.816406 145.171875 251.851562 145.496094 252.089844 145.796875 C 252.859375 146.761719 253.582031 150.078125 253.582031 152.636719 C 253.578125 155.597656 253.082031 157.691406 251.34375 162.003906 C 249.347656 166.96875 249.03125 168.121094 248.988281 170.550781 C 248.964844 172.03125 249.011719 172.621094 249.164062 172.738281 C 249.25 172.800781 249.511719 172.789062 249.582031 172.71875 C 249.597656 172.699219 249.613281 172.007812 249.617188 171.171875 C 249.625 168.546875 249.902344 167.464844 251.742188 162.871094 C 252.257812 161.578125 252.769531 160.277344 252.871094 159.980469 L 253.0625 159.4375 L 253.375 159.351562 C 253.546875 159.304688 253.886719 159.1875 254.125 159.097656 C 254.363281 159.003906 254.5625 158.929688 254.566406 158.9375 C 254.609375 158.96875 254.269531 160.246094 253.960938 161.210938 C 253.128906 163.835938 252.785156 165.738281 253.132812 165.828125 C 253.503906 165.921875 253.519531 165.894531 253.746094 164.707031 C 253.984375 163.484375 254.160156 162.804688 254.53125 161.644531 C 254.886719 160.546875 255.113281 159.65625 255.203125 159.03125 L 255.261719 158.601562 L 255.609375 158.414062 C 255.804688 158.308594 256.191406 158.082031 256.46875 157.910156 L 256.976562 157.597656 L 257.027344 157.785156 C 257.054688 157.886719 257.191406 158.5 257.335938 159.144531 C 257.875 161.617188 257.953125 161.964844 258.078125 162.386719 C 258.441406 163.605469 258.621094 163.871094 259.515625 164.476562 L 259.628906 164.554688 L 259.398438 165.652344 C 257.644531 173.941406 257.582031 177.820312 259.144531 181.539062 C 259.519531 182.425781 260.363281 183.796875 260.613281 183.917969 C 261.214844 184.207031 261.21875 183.691406 260.621094 182.75 C 258.324219 179.132812 258.101562 175.144531 259.753906 167.210938 C 260.621094 163.039062 260.808594 162.035156 261.027344 160.285156 C 261.664062 155.238281 260.988281 150.550781 259.242188 147.90625 C 258.828125 147.285156 258.339844 146.949219 257.976562 147.042969 C 257.699219 147.109375 257.757812 147.519531 258.0625 147.664062 C 258.382812 147.808594 258.714844 148.269531 259.144531 149.140625 C 260.828125 152.570312 261.070312 157.699219 259.832031 163.496094 L 259.773438 163.765625 L 259.632812 163.664062 C 258.96875 163.191406 258.785156 162.710938 258.152344 159.757812 C 257.984375 158.96875 257.78125 158.070312 257.707031 157.753906 C 257.632812 157.441406 257.578125 157.171875 257.59375 157.164062 C 257.734375 157.039062 258.859375 156.28125 259.085938 156.15625 C 259.40625 155.976562 259.5 155.828125 259.449219 155.589844 C 259.371094 155.234375 258.910156 155.367188 257.941406 156.027344 C 257.625 156.242188 257.363281 156.410156 257.355469 156.402344 C 257.277344 156.324219 256.855469 154.476562 256.746094 153.746094 C 256.71875 153.558594 256.714844 153.554688 256.492188 153.554688 C 256.058594 153.554688 256.074219 153.976562 256.574219 155.964844 C 256.683594 156.40625 256.773438 156.785156 256.773438 156.808594 C 256.773438 156.851562 256.054688 157.339844 255.554688 157.636719 L 255.296875 157.789062 L 255.292969 157.394531 C 255.292969 156.65625 255.105469 156.046875 254.859375 155.984375 C 254.535156 155.902344 254.394531 156.167969 254.558594 156.546875 C 254.625 156.691406 254.65625 156.933594 254.671875 157.4375 L 254.695312 158.132812 L 254.117188 158.390625 C 253.367188 158.726562 253.289062 158.75 253.328125 158.625 C 254.683594 154.105469 254.503906 149.226562 252.851562 145.820312 C 252.535156 145.171875 252.359375 145.019531 252.019531 145.113281 M 210.597656 148.113281 C 210.167969 152.3125 208.859375 157.265625 205.453125 167.566406 C 204.601562 170.148438 203.023438 174.472656 202.882812 174.613281 C 202.871094 174.628906 202.550781 174.582031 202.175781 174.511719 C 199.105469 173.933594 194.1875 173.8125 191.976562 174.257812 C 191.84375 174.285156 191.839844 174.277344 191.882812 174.140625 C 191.90625 174.0625 191.976562 173.777344 192.035156 173.507812 C 192.234375 172.605469 192.558594 172.089844 193.695312 170.859375 C 195.277344 169.140625 195.710938 168.433594 196.703125 165.933594 C 197.742188 163.320312 197.933594 163.027344 200.09375 160.828125 C 203.453125 157.40625 204.3125 156.230469 206.203125 152.460938 C 207.578125 149.71875 208.332031 148.804688 210.160156 147.660156 C 210.699219 147.320312 210.679688 147.300781 210.597656 148.113281 M 250.492188 151.515625 C 250.371094 151.589844 250.378906 151.769531 250.53125 152.25 C 250.804688 153.097656 251.050781 155.464844 250.933594 156.0625 L 250.886719 156.296875 L 250.160156 155.878906 C 249.136719 155.285156 248.519531 154.890625 248.324219 154.710938 C 247.898438 154.3125 247.402344 154.71875 247.789062 155.148438 C 248.046875 155.441406 250.371094 156.859375 250.664062 156.90625 C 250.902344 156.941406 250.902344 156.929688 250.757812 157.796875 C 250.542969 159.078125 250.210938 160.207031 249.589844 161.769531 C 248.953125 163.378906 248.875 163.722656 248.839844 165.066406 C 248.8125 166.207031 248.820312 166.238281 249.121094 166.238281 C 249.40625 166.238281 249.398438 166.25 249.445312 165.355469 C 249.515625 163.953125 249.589844 163.65625 250.339844 161.722656 C 251.523438 158.691406 251.859375 155.871094 251.371094 153.121094 C 251.128906 151.761719 250.875 151.292969 250.492188 151.515625 M 226.484375 153.945312 C 226.390625 153.972656 226.355469 154.335938 226.433594 154.453125 C 226.582031 154.675781 228.449219 155.757812 229.648438 156.3125 C 233.824219 158.238281 236.976562 158.289062 239.675781 156.472656 C 240.441406 155.957031 240.792969 155.605469 240.792969 155.351562 C 240.792969 154.929688 240.46875 154.933594 240 155.359375 C 238.890625 156.367188 237.28125 157.039062 235.695312 157.15625 C 233.648438 157.304688 230.007812 156.023438 227.324219 154.207031 C 226.953125 153.960938 226.703125 153.882812 226.484375 153.945312 M 243.511719 155.476562 C 243.257812 155.550781 243.367188 155.980469 243.710938 156.234375 C 245.144531 157.304688 249.597656 158.46875 249.761719 157.816406 C 249.851562 157.457031 249.734375 157.394531 248.769531 157.277344 C 246.949219 157.058594 244.890625 156.355469 244.097656 155.675781 C 243.890625 155.496094 243.683594 155.425781 243.511719 155.476562 M 239.597656 161.140625 C 239.515625 161.167969 238.609375 162.429688 237.828125 163.609375 C 232.882812 171.050781 231.09375 177.425781 232.636719 182.113281 C 233.144531 183.664062 234.019531 185.144531 235.902344 187.652344 C 236.605469 188.585938 237.25 189.476562 237.929688 190.449219 C 238.351562 191.050781 238.480469 191.152344 238.734375 191.097656 C 239.230469 190.988281 238.96875 190.535156 236.445312 187.152344 C 234.398438 184.410156 233.566406 182.964844 233.097656 181.347656 C 231.773438 176.761719 234.128906 169.964844 239.84375 161.875 C 240.179688 161.402344 240.042969 161 239.597656 161.140625 M 242.4375 162.878906 C 242.339844 162.90625 242.339844 162.90625 242.324219 163.328125 C 242.304688 163.945312 241.699219 165.417969 240.386719 168.027344 C 239.15625 170.476562 238.996094 170.929688 238.753906 172.648438 C 238.578125 173.878906 238.589844 173.972656 238.933594 173.972656 C 239.242188 173.972656 239.234375 173.988281 239.417969 172.691406 C 239.628906 171.195312 239.757812 170.828125 240.824219 168.742188 C 242.410156 165.625 243.25 163.269531 242.898438 162.917969 C 242.855469 162.878906 242.539062 162.847656 242.4375 162.878906 M 192.984375 170.53125 C 191.988281 171.625 191.691406 172.125 191.425781 173.175781 C 191.234375 173.9375 191.230469 174.277344 191.417969 174.277344 C 191.941406 174.277344 189.78125 174.539062 187.789062 174.714844 C 186.121094 174.863281 186.199219 174.871094 186.460938 174.546875 C 187.808594 172.878906 189.378906 171.773438 192.039062 170.632812 C 192.472656 170.445312 192.988281 170.203125 193.1875 170.09375 C 193.382812 169.980469 193.550781 169.890625 193.558594 169.890625 C 193.566406 169.890625 193.308594 170.179688 192.984375 170.53125 M 234.875 176.125 C 234.585938 176.59375 234.578125 179.691406 234.863281 181.167969 C 235.316406 183.527344 237.203125 186.5 238.117188 186.300781 C 238.457031 186.226562 238.347656 185.878906 237.820312 185.363281 C 236.640625 184.199219 235.757812 182.480469 235.472656 180.785156 C 235.253906 179.496094 235.191406 177.570312 235.34375 176.714844 C 235.4375 176.164062 235.402344 176.066406 235.113281 176.066406 C 235.003906 176.066406 234.894531 176.09375 234.875 176.125 M 244.507812 176.511719 C 243.9375 176.898438 245.222656 177.949219 248.101562 179.453125 C 248.726562 179.78125 249.382812 180.144531 249.554688 180.261719 C 249.863281 180.46875 250.175781 180.710938 250.136719 180.710938 C 250.125 180.710938 249.925781 180.652344 249.695312 180.585938 C 245.714844 179.390625 240.546875 179.871094 236.273438 181.835938 C 236.042969 181.941406 236.027344 182.355469 236.25 182.414062 C 236.460938 182.472656 236.585938 182.445312 237.257812 182.183594 C 244.3125 179.484375 250.050781 180.15625 255.085938 184.277344 C 258.617188 187.164062 260.550781 190.390625 265.148438 201.078125 C 268.773438 209.503906 271.316406 214.691406 275.652344 222.507812 C 278.570312 227.761719 278.828125 228.25 280.425781 231.445312 C 282.484375 235.570312 283.636719 238.363281 283.636719 239.238281 C 283.636719 239.25 283.738281 239.257812 283.863281 239.257812 C 284.6875 239.257812 283.683594 236.386719 280.9375 230.886719 C 279.410156 227.828125 279.125 227.289062 276.449219 222.464844 C 273.882812 217.824219 273.246094 216.632812 271.734375 213.621094 L 270.792969 211.75 L 270.925781 211.605469 C 271.5625 210.929688 272.179688 208.722656 272.421875 206.257812 C 272.582031 204.617188 272.695312 203.976562 273.179688 202.011719 C 273.953125 198.875 273.882812 196.777344 272.902344 193.640625 C 272.335938 191.824219 272.21875 191.144531 272.394531 190.617188 C 272.5 190.296875 272.46875 190.125 272.296875 190.082031 C 271.5 189.882812 271.519531 191.375 272.34375 194.082031 C 273.261719 197.09375 273.285156 198.703125 272.46875 202.117188 C 271.988281 204.125 271.9375 204.414062 271.734375 206.492188 C 271.613281 207.75 271.453125 208.570312 271.140625 209.523438 C 270.949219 210.097656 270.492188 211.058594 270.433594 210.996094 C 270.382812 210.941406 269.140625 208.339844 269.054688 208.105469 C 268.976562 207.882812 269.089844 207.566406 269.761719 206.15625 C 270.773438 204.019531 271.246094 202.640625 271.5 201.097656 C 271.71875 199.761719 271.691406 199.132812 271.421875 199.0625 C 271.117188 198.984375 271.046875 199.097656 271.046875 199.671875 C 271.042969 201.039062 270.28125 203.542969 269.226562 205.636719 C 269.097656 205.894531 268.894531 206.328125 268.777344 206.597656 L 268.566406 207.09375 L 267.949219 205.730469 C 267.230469 204.144531 266.488281 202.453125 265.542969 200.234375 C 262.6875 193.554688 261.296875 190.765625 259.402344 187.9375 C 259.304688 187.789062 259.308594 187.792969 259.605469 187.992188 C 260.09375 188.324219 260.40625 188.351562 260.46875 188.0625 C 260.53125 187.777344 260.460938 187.695312 259.664062 187.128906 C 257.765625 185.789062 256.945312 184.78125 256.0625 182.710938 C 255.210938 180.710938 254.429688 179.59375 253.597656 179.1875 C 252.972656 178.878906 252.675781 179.40625 253.277344 179.757812 C 253.59375 179.945312 254.257812 180.675781 254.546875 181.152344 C 254.902344 181.75 255.882812 183.945312 255.742188 183.835938 C 255.707031 183.8125 255.515625 183.664062 255.320312 183.507812 C 254.5 182.855469 253.394531 182.160156 252.347656 181.632812 C 251.917969 181.414062 251.730469 181.292969 251.664062 181.183594 C 251.296875 180.546875 250.167969 179.726562 248.429688 178.824219 C 246.636719 177.898438 245.738281 177.335938 245.152344 176.78125 C 244.878906 176.523438 244.636719 176.421875 244.507812 176.511719 M 173.160156 184.269531 C 171.324219 187.050781 170.425781 188.96875 168.191406 194.855469 C 166.636719 198.949219 166.148438 200.1875 164.78125 203.476562 C 163.371094 206.871094 162.699219 208.523438 161.929688 210.464844 C 161.136719 212.480469 160.691406 213.523438 160.144531 214.652344 C 159.550781 215.882812 159.507812 216.089844 159.820312 216.160156 C 160.292969 216.261719 160.632812 215.574219 162.910156 209.882812 C 163.5625 208.253906 164.59375 205.726562 165.203125 204.265625 C 165.808594 202.808594 166.445312 201.269531 166.613281 200.847656 C 166.949219 200.003906 166.988281 199.933594 166.941406 200.234375 C 166.859375 200.738281 166.546875 203.472656 166.425781 204.699219 C 166.355469 205.445312 166.25 206.523438 166.195312 207.097656 C 165.824219 210.910156 165.308594 213.625 164.113281 218.023438 C 163.433594 220.527344 163.386719 220.800781 163.601562 220.9375 C 163.90625 221.128906 164.054688 220.933594 164.277344 220.035156 C 164.382812 219.617188 164.613281 218.734375 164.792969 218.074219 C 166.046875 213.472656 166.453125 211.207031 166.9375 206.230469 C 167.214844 203.351562 167.691406 199.179688 167.832031 198.355469 C 167.890625 198.023438 167.925781 197.722656 167.910156 197.679688 C 167.863281 197.554688 170.0625 191.800781 170.859375 189.972656 C 171.472656 188.5625 172.835938 186.023438 173.738281 184.609375 C 174.3125 183.714844 174.351562 183.464844 173.914062 183.464844 L 173.691406 183.464844 L 173.160156 184.269531 M 231.542969 194.039062 C 230.753906 194.59375 228.261719 197.164062 226.738281 198.996094 C 224.53125 201.652344 223.117188 203.710938 220.8125 207.636719 C 218.496094 211.585938 217.617188 212.828125 215.679688 214.898438 C 215.128906 215.484375 215.03125 215.835938 215.398438 215.90625 C 215.675781 215.957031 215.800781 215.867188 216.519531 215.078125 C 218.40625 213.011719 218.894531 212.300781 221.910156 207.203125 C 223.859375 203.902344 225.554688 201.503906 227.738281 198.957031 C 229.175781 197.277344 231.332031 195.039062 231.992188 194.539062 C 232.804688 193.921875 232.378906 193.453125 231.542969 194.039062 M 274.75 194.714844 C 274.730469 194.777344 274.761719 195.058594 274.816406 195.339844 C 275.097656 196.808594 275.082031 197.507812 274.742188 198.847656 C 274.449219 200.011719 274.441406 200.277344 274.710938 200.335938 C 274.949219 200.386719 275.105469 200.292969 275.144531 200.070312 C 275.164062 199.964844 275.277344 199.488281 275.394531 199.007812 C 275.71875 197.699219 275.703125 196.53125 275.347656 194.964844 L 275.265625 194.59375 L 275.023438 194.59375 C 274.808594 194.59375 274.773438 194.609375 274.75 194.714844 M 234.925781 194.847656 C 233.378906 195.628906 230.707031 198.644531 229.242188 201.261719 C 228.421875 202.730469 227.210938 205.582031 227.210938 206.046875 C 227.210938 206.542969 227.710938 206.417969 227.921875 205.867188 C 228.480469 204.402344 229.421875 202.375 229.992188 201.398438 C 231.347656 199.082031 233.9375 196.148438 235.3125 195.375 C 235.558594 195.238281 235.570312 195.222656 235.570312 195.015625 C 235.570312 194.660156 235.390625 194.613281 234.925781 194.847656 M 242.265625 199.457031 C 240.550781 200.46875 238.570312 202.234375 237.09375 204.070312 C 236.285156 205.082031 235.984375 205.550781 234.480469 208.183594 C 233.984375 209.046875 233.492188 209.894531 233.386719 210.074219 C 233.03125 210.652344 232.992188 210.992188 233.273438 211.054688 C 233.625 211.132812 233.582031 211.1875 234.726562 209.191406 C 236.996094 205.238281 237.460938 204.585938 239.363281 202.683594 C 240.359375 201.6875 240.976562 201.160156 241.886719 200.527344 C 242.6875 199.96875 242.707031 199.949219 242.707031 199.699219 C 242.707031 199.421875 242.511719 199.3125 242.265625 199.457031 M 239.347656 206.398438 C 239.25 206.660156 239.179688 207.097656 239.011719 208.484375 C 238.515625 212.550781 238.316406 213.308594 235.875 220.421875 C 234.082031 225.652344 233.109375 229.175781 230.34375 240.507812 C 230.042969 241.742188 229.683594 243.167969 229.546875 243.671875 C 229.242188 244.78125 228.855469 246.152344 228.8125 246.265625 C 228.785156 246.339844 228.824219 246.351562 229.140625 246.351562 C 229.339844 246.351562 229.503906 246.339844 229.503906 246.328125 C 229.503906 246.316406 229.605469 245.949219 229.734375 245.515625 C 230.117188 244.183594 230.695312 241.972656 231.109375 240.226562 C 233.238281 231.28125 234.703125 225.964844 236.410156 220.957031 C 239.003906 213.371094 239.246094 212.4375 239.621094 208.65625 C 239.691406 207.925781 239.789062 207.160156 239.832031 206.957031 C 239.945312 206.414062 239.902344 206.28125 239.617188 206.28125 C 239.429688 206.28125 239.382812 206.300781 239.347656 206.398438 " fill-opacity="1" fill-rule="evenodd"/></g><g clip-path="url(#e935e09f01)"><path fill="#040606" d="M 112.625 233.640625 C 113.21875 232.527344 114.078125 231.820312 114.84375 231.808594 C 115.03125 231.804688 115.507812 231.957031 115.902344 232.144531 C 116.914062 232.621094 119.105469 234.089844 119.535156 234.574219 C 119.960938 235.0625 120 235.332031 119.671875 235.542969 C 119.355469 235.75 118.710938 235.996094 117.566406 236.074219 C 116.28125 236.15625 115.261719 235.902344 113.675781 235.09375 C 112.105469 234.296875 112.203125 234.429688 112.625 233.640625 Z M 82.765625 192.496094 C 81.027344 193.425781 80.085938 194.113281 77.9375 196.027344 C 76.777344 197.058594 76.03125 197.351562 75.484375 197.351562 C 75.078125 197.351562 74.554688 197.113281 74.324219 196.667969 C 73.871094 195.792969 74.25 194.773438 75.320312 193.984375 C 76.816406 192.882812 78.234375 192.246094 80.332031 191.851562 C 81.933594 191.546875 83.214844 191.757812 83.550781 191.855469 C 83.777344 191.921875 83.667969 192.011719 82.765625 192.496094 Z M 98.625 175.4375 C 98.113281 176.457031 97.285156 177.542969 96.652344 178.023438 C 96.179688 178.382812 95.714844 178.535156 95.71875 178.328125 C 95.71875 177.949219 98.5625 174.769531 98.980469 174.679688 C 99 174.675781 98.839844 175.019531 98.625 175.4375 Z M 91.335938 176.65625 C 89.175781 178.925781 87.933594 180 87.664062 179.835938 C 87.488281 179.726562 87.519531 179.246094 87.730469 178.835938 C 88.257812 177.820312 89.148438 177.078125 91.109375 176.035156 C 91.800781 175.667969 92.472656 175.289062 92.597656 175.191406 C 92.722656 175.097656 92.839844 175.019531 92.859375 175.019531 C 92.878906 175.015625 92.195312 175.753906 91.335938 176.65625 Z M 18.800781 139.078125 C 18.726562 139.082031 18.054688 138.855469 17.308594 138.574219 C 16.5625 138.296875 14.859375 137.792969 13.527344 137.453125 C 10.429688 136.664062 9.417969 136.25 8.949219 135.585938 C 8.652344 135.164062 8.566406 134.851562 8.566406 134.371094 C 8.566406 133.671875 8.800781 133.246094 9.269531 133.152344 C 9.402344 133.128906 9.804688 133.171875 10.105469 133.289062 C 11.453125 133.820312 15.304688 136.210938 17.160156 137.671875 C 18.976562 139.101562 18.949219 139.078125 18.800781 139.078125 Z M 28.417969 127.929688 C 26.078125 125.238281 24.9375 123.199219 24.675781 120.671875 C 24.554688 119.480469 24.726562 118.042969 24.945312 116.980469 C 25.007812 116.691406 25.085938 116.261719 25.011719 116.085938 C 24.976562 115.996094 24.839844 115.714844 24.5 115.367188 C 24.15625 115.011719 23.699219 114.367188 23.472656 113.917969 C 22.535156 112.058594 21.738281 109.003906 21.882812 107.808594 C 22.101562 105.980469 23.226562 105.269531 24.722656 106.011719 C 25.484375 106.386719 26.472656 107.617188 26.660156 108.421875 C 26.730469 108.71875 26.628906 108.648438 25.839844 107.84375 C 24.816406 106.796875 24.308594 106.582031 23.65625 106.777344 C 23.117188 106.9375 22.828125 107.375 22.828125 108.214844 C 22.828125 109.230469 23.023438 109.910156 23.65625 111.414062 C 24.410156 113.195312 24.597656 113.390625 24.871094 113.398438 C 25.039062 113.398438 25.265625 113.296875 25.503906 112.933594 C 25.820312 112.457031 26.0625 111.550781 25.960938 111.234375 C 25.925781 111.121094 25.734375 110.710938 25.539062 110.328125 C 25.339844 109.941406 25.210938 109.59375 25.25 109.554688 C 25.453125 109.355469 27.394531 110.738281 28.464844 111.84375 C 29.394531 112.804688 30.1875 114.132812 30.378906 115.050781 C 30.414062 115.207031 30.398438 115.808594 30.351562 116.390625 C 30.300781 116.984375 30.304688 117.703125 30.363281 118.035156 C 30.484375 118.714844 31.332031 120.546875 32.207031 122.023438 C 32.539062 122.585938 32.875 123.242188 32.953125 123.484375 C 33.28125 124.507812 32.816406 126.136719 31.859375 127.335938 C 30.921875 128.511719 30.050781 129.488281 29.957031 129.488281 C 29.898438 129.488281 29.054688 128.660156 28.417969 127.929688 Z M 42.984375 116.945312 C 42.582031 117.238281 42.28125 117.113281 41.398438 116.277344 C 40.582031 115.5 40.09375 114.898438 40.46875 115.125 C 40.554688 115.179688 41.203125 115.578125 41.90625 116.011719 C 43.046875 116.714844 43.164062 116.816406 42.984375 116.945312 Z M 41.4375 111.40625 C 40.519531 110.933594 40.539062 110.859375 41.5 111.191406 C 42.199219 111.433594 43.585938 112.402344 44.152344 113.042969 C 44.574219 113.523438 45.320312 114.609375 45.585938 115.125 C 45.828125 115.597656 45.628906 115.683594 45.007812 115.378906 C 44.613281 115.183594 44.480469 115.007812 44.035156 114.105469 C 43.402344 112.820312 42.617188 112.007812 41.4375 111.40625 Z M 98.703125 154.984375 C 97.433594 156.863281 96.910156 157.542969 95.210938 159.542969 C 93.386719 161.683594 93.238281 161.867188 90.835938 165.039062 C 86.929688 170.183594 84.691406 172.832031 81.335938 176.261719 C 80.082031 177.542969 78.511719 178.996094 77.910156 179.550781 C 77.632812 179.800781 76.988281 180.476562 76.917969 180.421875 C 76.492188 180.089844 71.898438 175.726562 69.613281 173.828125 C 66.195312 170.984375 64.875 170.132812 63.835938 170.101562 C 63.347656 170.085938 63.300781 170.253906 63.277344 170.386719 C 63.222656 170.726562 63.570312 171.03125 65.992188 172.871094 C 67.539062 174.046875 69.308594 175.675781 68.570312 175.25 C 68.34375 175.117188 67.515625 174.582031 66.734375 174.058594 C 65.152344 173.003906 64.335938 172.648438 64.066406 172.871094 C 63.566406 173.277344 64.050781 173.8125 66.484375 175.523438 C 67.285156 176.085938 68.507812 176.980469 69.199219 177.511719 C 69.894531 178.042969 70.898438 178.777344 71.429688 179.148438 C 73.578125 180.644531 74.945312 181.734375 74.945312 181.949219 C 74.945312 182.289062 73.644531 181.648438 71.9375 180.476562 C 70.367188 179.394531 68.765625 178.214844 65.527344 175.75 C 64.121094 174.683594 61.984375 173.097656 60.773438 172.230469 L 58.574219 170.652344 L 59.429688 170.566406 C 60.746094 170.433594 62.28125 169.996094 63.949219 169.285156 C 66.652344 168.132812 66.445312 168.179688 68.929688 168.160156 C 69.921875 168.152344 71.292969 168.089844 71.925781 167.839844 C 72.84375 167.480469 73.035156 166.769531 72.140625 166.332031 C 71.785156 166.160156 71.3125 166.109375 69.386719 166.046875 C 67.109375 165.96875 65.917969 165.808594 65.25 165.484375 C 65.066406 165.394531 64.902344 165.265625 64.878906 165.199219 C 64.773438 164.878906 67.359375 162.953125 69.839844 161.503906 C 70.433594 161.15625 71.226562 160.644531 71.601562 160.367188 C 72.671875 159.578125 76.667969 155.734375 77.109375 155.195312 C 77.714844 154.46875 77.890625 153.921875 77.617188 153.410156 C 77.453125 153.101562 77.425781 153.117188 78.085938 152.519531 C 79.492188 151.25 82.292969 148.082031 86.839844 142.625 C 87.375 141.984375 87.773438 141.460938 87.796875 141.460938 C 87.824219 141.460938 88.394531 141.8125 89 142.238281 C 90.417969 143.238281 93.761719 145.46875 94.128906 145.65625 C 94.6875 145.949219 97.042969 147.515625 98.058594 148.277344 C 99.484375 149.34375 100.195312 150.140625 100.371094 150.871094 C 100.625 151.921875 100.394531 152.488281 98.703125 154.984375 Z M 56.488281 169.027344 L 54.882812 167.804688 L 55.976562 167.109375 C 56.578125 166.726562 57.914062 165.71875 58.941406 164.867188 C 61.363281 162.867188 63.292969 161.410156 63.945312 161.09375 C 64.230469 160.957031 65.292969 160.589844 66.304688 160.277344 C 69.929688 159.15625 71.90625 157.972656 75.886719 154.527344 C 76.558594 153.945312 77.160156 153.5 77.222656 153.535156 C 77.28125 153.574219 77.375 153.765625 77.375 153.972656 C 77.375 154.539062 76.867188 155.117188 73.585938 158.140625 C 71.726562 159.851562 71.195312 160.257812 69.558594 161.214844 C 68.808594 161.660156 67.808594 162.273438 67.34375 162.585938 C 66.273438 163.296875 64.527344 164.785156 64.4375 165.066406 C 64.195312 165.832031 66.257812 166.394531 69.378906 166.414062 C 71.1875 166.421875 71.78125 166.5 72.164062 166.78125 C 72.359375 166.925781 72.382812 167.058594 72.210938 167.214844 C 71.738281 167.648438 71.339844 167.695312 68.929688 167.769531 C 66.34375 167.847656 66.234375 167.871094 64.058594 168.828125 C 62.066406 169.707031 59.96875 170.253906 58.617188 170.253906 C 58.125 170.25 57.992188 170.175781 56.488281 169.027344 Z M 49.210938 170.136719 C 48.445312 170.457031 47.042969 170.996094 46.09375 171.339844 C 42.566406 172.609375 35.667969 174.257812 35.320312 173.910156 C 34.964844 173.554688 36.59375 171.738281 40.277344 168.457031 C 42.523438 166.460938 43.359375 166.015625 44.699219 165.773438 C 47.875 165.203125 50.386719 166.078125 50.867188 166.234375 C 51.957031 166.59375 54.0625 167.613281 54.0625 167.75 C 54.0625 167.875 50.855469 169.449219 49.210938 170.136719 Z M 150.367188 242.796875 C 150.003906 242.09375 148.773438 241.601562 146.792969 241.375 C 144.546875 241.113281 143.082031 240.789062 142.148438 240.355469 C 141.441406 240.023438 141.097656 239.746094 139.988281 238.628906 C 139.265625 237.898438 138.195312 236.777344 137.613281 236.136719 C 135.65625 233.984375 132.898438 231.722656 129.199219 229.253906 C 127.042969 227.816406 125.605469 227.050781 122.902344 225.902344 C 117.414062 223.578125 112.878906 220.746094 107.519531 216.292969 C 102.285156 211.941406 98.722656 208.253906 93.164062 201.425781 C 92.175781 200.210938 90.925781 198.703125 90.386719 198.082031 C 89.84375 197.457031 88.769531 196.160156 87.992188 195.195312 C 87.214844 194.230469 86.261719 193.101562 85.871094 192.6875 L 85.160156 191.933594 L 87.003906 191.339844 C 89.515625 190.53125 91.390625 189.773438 93.253906 188.8125 C 95.058594 187.882812 95.558594 187.496094 95.949219 186.734375 C 96.101562 186.433594 96.453125 185.882812 96.726562 185.507812 C 97.417969 184.566406 97.601562 184.09375 97.804688 182.703125 C 98.007812 181.339844 98.046875 181.222656 98.824219 179.894531 C 99.714844 178.371094 100.207031 177.199219 100.476562 175.960938 C 100.75 174.707031 100.6875 174.039062 100.273438 173.742188 C 100.089844 173.609375 100.195312 173.480469 101.421875 172.351562 C 102.167969 171.664062 103.214844 170.734375 103.753906 170.285156 C 104.882812 169.335938 107.570312 166.832031 107.96875 166.359375 C 108.128906 166.164062 108.238281 165.890625 108.238281 165.679688 C 108.234375 165.289062 108.457031 164.925781 109.777344 163.167969 C 110.75 161.871094 112.941406 159.238281 113.804688 158.28125 C 114.261719 157.773438 114.652344 157.144531 114.714844 156.882812 C 114.949219 155.882812 113.917969 155.773438 112.621094 156.851562 C 111.953125 157.40625 109.609375 159.917969 107.832031 161.980469 C 106.476562 163.554688 105.785156 164.277344 105.988281 163.90625 C 106.242188 163.4375 110.171875 157.488281 111.25 155.9375 C 111.78125 155.175781 112 154.597656 111.898438 154.207031 C 111.796875 153.796875 111.445312 153.863281 111.078125 154.355469 C 110.902344 154.589844 110.476562 155.136719 110.128906 155.574219 C 109.78125 156.011719 109.179688 156.8125 108.789062 157.355469 C 106.980469 159.878906 103.277344 164.121094 99.441406 168.066406 C 98.640625 168.890625 97.988281 169.527344 97.988281 169.480469 C 97.988281 169.320312 101.683594 164.722656 104.285156 161.648438 C 107.871094 157.414062 109.898438 154.558594 109.902344 153.746094 C 109.90625 153.191406 108.730469 152.429688 106.667969 152.007812 C 105.320312 151.726562 102.355469 151.667969 100.9375 152.167969 C 100.792969 152.21875 100.773438 152.121094 100.804688 151.554688 C 100.863281 150.535156 100.519531 149.882812 99.398438 148.875 C 98.535156 148.101562 95.605469 146.042969 94.414062 145.371094 C 93.734375 144.988281 91.722656 143.65625 89.511719 142.125 C 88.625 141.511719 87.835938 141.007812 87.75 141.007812 C 87.667969 141.007812 87.363281 141.328125 87.074219 141.71875 C 86.78125 142.109375 85.871094 143.21875 85.042969 144.183594 C 84.21875 145.148438 82.851562 146.757812 82.003906 147.753906 C 80.273438 149.789062 77.199219 152.90625 75.402344 154.449219 C 71.605469 157.707031 69.621094 158.875 65.980469 159.992188 C 64.175781 160.546875 63.382812 160.882812 62.6875 161.398438 C 61.789062 162.0625 59.511719 163.882812 58.714844 164.570312 C 57.617188 165.523438 56.273438 166.515625 55.304688 167.089844 L 54.53125 167.550781 L 53.644531 167.042969 C 52.660156 166.480469 50.296875 165.179688 46.910156 165.226562 C 43.824219 165.269531 42.753906 165.683594 40.160156 168.046875 C 37.621094 170.359375 36.117188 171.84375 35.601562 172.503906 C 34.671875 173.703125 34.820312 174 35.015625 174.199219 C 35.34375 174.523438 37.132812 174.238281 41.011719 173.242188 C 45.425781 172.109375 48.890625 170.84375 52.449219 169.0625 L 54.535156 168.019531 L 56.597656 169.59375 C 57.730469 170.460938 59.730469 171.941406 61.042969 172.886719 C 62.355469 173.828125 64.394531 175.347656 65.582031 176.261719 C 70.902344 180.355469 73.632812 182.207031 74.675781 182.429688 C 75.042969 182.507812 75.402344 182.296875 75.398438 182.003906 C 75.394531 181.640625 74.039062 180.496094 71.65625 178.847656 C 71.0625 178.4375 70.058594 177.699219 69.429688 177.210938 C 68.796875 176.71875 67.570312 175.820312 66.703125 175.207031 C 64.945312 173.96875 64.199219 173.351562 64.320312 173.234375 C 64.445312 173.109375 65.609375 173.730469 66.886719 174.613281 C 68.773438 175.914062 69.371094 176.046875 69.292969 175.5 C 69.238281 175.121094 68.265625 174.128906 66.351562 172.664062 C 65.335938 171.886719 64.289062 171.050781 64.023438 170.808594 C 63.902344 170.695312 63.605469 170.398438 63.878906 170.433594 C 64.527344 170.507812 65.617188 171.164062 66.679688 171.972656 C 69.550781 174.164062 71.949219 176.25 74.898438 179.125 C 76.101562 180.296875 76.816406 180.910156 76.976562 180.910156 C 77.269531 180.910156 82.886719 175.339844 84.808594 173.144531 C 86.324219 171.414062 89.023438 168.0625 90.839844 165.664062 C 92.792969 163.078125 93.585938 162.082031 95.222656 160.148438 C 97.394531 157.578125 99.734375 154.382812 100.414062 153.058594 C 100.714844 152.46875 101.6875 152.195312 103.960938 152.144531 C 108.304688 152.054688 109.523438 153.550781 109.554688 153.714844 C 109.59375 153.890625 109.105469 154.738281 109.011719 154.890625 C 108.308594 156.046875 106.644531 158.265625 104.40625 160.902344 C 102.011719 163.71875 98.460938 168.105469 97.90625 168.933594 C 97.496094 169.539062 97.433594 169.882812 97.71875 169.992188 C 98.007812 170.101562 98.269531 169.875 100.261719 167.773438 C 104.523438 163.277344 107.335938 160.023438 109.246094 157.378906 C 109.8125 156.597656 111.101562 154.933594 111.523438 154.445312 C 111.542969 154.421875 111.554688 154.515625 111.496094 154.71875 C 111.4375 154.917969 110.933594 155.726562 110.378906 156.519531 C 109.820312 157.308594 108.902344 158.667969 108.339844 159.542969 C 107.777344 160.414062 106.921875 161.726562 106.445312 162.457031 C 105.503906 163.890625 105.402344 164.273438 105.945312 164.335938 C 106.265625 164.375 106.699219 163.941406 108.769531 161.527344 C 110.132812 159.9375 112.503906 157.429688 113.035156 157.015625 C 113.632812 156.546875 114.183594 156.347656 114.367188 156.527344 C 114.566406 156.730469 114.234375 157.21875 112.636719 159.054688 C 110.996094 160.945312 109.9375 162.261719 108.769531 163.878906 C 107.9375 165.027344 107.925781 165.039062 107.460938 165.039062 C 106.285156 165.039062 104.476562 166.097656 101.335938 168.617188 C 99.535156 170.0625 97.652344 171.460938 96.058594 172.539062 C 95.527344 172.898438 94.941406 173.304688 94.753906 173.445312 C 94.464844 173.660156 94.441406 173.664062 94.605469 173.476562 C 94.875 173.164062 95.367188 172.003906 95.375 171.691406 C 95.394531 171.1875 95.097656 170.972656 94.785156 170.972656 C 94.632812 170.972656 94.203125 171.140625 93.875 171.390625 C 92.972656 172.078125 91.203125 172.898438 89.246094 173.542969 C 88.128906 173.910156 87.273438 174.265625 86.898438 174.519531 C 86.226562 174.976562 85.320312 176.011719 83.058594 178.910156 C 82.191406 180.023438 81.164062 181.222656 80.78125 181.574219 C 78.667969 183.507812 74.894531 185.628906 71.257812 186.9375 C 70.117188 187.34375 69.371094 187.574219 66.378906 188.445312 C 63.71875 189.21875 60.722656 189.949219 57.296875 190.664062 C 55.238281 191.089844 52.710938 191.648438 51.679688 191.863281 C 43.898438 193.484375 41.308594 193.257812 40.632812 192.910156 C 39.882812 192.523438 39.3125 191.519531 37.667969 187.710938 C 36.914062 185.957031 36.785156 185.644531 35.914062 183.347656 C 35.605469 182.535156 35.039062 181.105469 34.652344 180.171875 C 32.148438 174.074219 30.476562 168.628906 29.109375 162.09375 C 28.121094 157.382812 27.683594 154.882812 27.101562 150.648438 C 26.773438 148.269531 26.4375 147.121094 25.574219 145.441406 C 24.816406 143.96875 23.804688 142.746094 21.984375 141.09375 L 20.460938 139.710938 L 21.015625 139.585938 C 22.304688 139.296875 23.171875 138.554688 24.382812 136.703125 C 24.890625 135.921875 25.714844 134.773438 26.214844 134.148438 C 27.167969 132.957031 29.808594 130.265625 29.980469 130.265625 C 30.035156 130.265625 32.886719 132.945312 34.746094 133.910156 C 36.148438 134.644531 37.429688 134.304688 37.832031 134.101562 C 38.964844 133.53125 39.292969 133.105469 39.589844 131.492188 C 39.832031 130.164062 40.039062 129.789062 40.695312 129.472656 C 41.410156 129.132812 41.714844 128.808594 41.570312 128.089844 C 41.464844 127.570312 41.539062 127.519531 41.78125 127.519531 C 42.652344 127.519531 43.191406 126.847656 42.957031 126.054688 C 42.671875 125.105469 42.835938 124.851562 44.164062 124.1875 C 44.953125 123.789062 45.628906 123.167969 45.722656 122.753906 C 45.773438 122.511719 45.671875 122.109375 45.339844 121.257812 C 44.691406 119.597656 44.414062 118.519531 44.414062 117.628906 C 44.414062 116.890625 44.398438 116.847656 44.078125 116.664062 C 43.828125 116.519531 43.757812 116.410156 43.804688 116.230469 C 43.835938 116.097656 43.785156 115.800781 43.683594 115.5625 C 43.457031 115.015625 43.460938 114.9375 43.722656 114.9375 C 43.839844 114.9375 44.007812 115.078125 44.125 115.226562 C 44.464844 115.671875 45.371094 116.164062 45.953125 115.941406 C 46.632812 115.679688 45.160156 113.214844 43.542969 111.917969 C 42.457031 111.050781 41.457031 110.585938 40.667969 110.578125 C 40.078125 110.574219 40.023438 110.726562 40.011719 110.871094 C 39.996094 111.023438 40.074219 111.214844 41.03125 111.703125 C 41.613281 112 42.257812 112.402344 42.464844 112.597656 C 42.84375 112.957031 43.734375 114.203125 43.734375 114.378906 C 43.734375 114.425781 43.625 114.484375 43.488281 114.507812 C 43.054688 114.570312 42.980469 114.863281 43.214844 115.558594 C 43.335938 115.902344 43.402344 116.214844 43.367188 116.25 C 43.273438 116.34375 42.757812 116.058594 41.25 115.09375 C 40.527344 114.628906 40 114.4375 39.792969 114.417969 C 39.695312 114.40625 39.574219 114.445312 39.558594 114.605469 C 39.519531 114.933594 40.382812 115.980469 41.511719 116.960938 C 42.304688 117.652344 42.714844 117.71875 43.273438 117.25 C 43.792969 116.816406 43.914062 116.9375 43.996094 117.960938 C 44.070312 118.910156 44.402344 120.128906 44.972656 121.53125 C 45.164062 122.007812 45.324219 122.476562 45.324219 122.566406 C 45.324219 122.890625 44.871094 123.289062 43.953125 123.785156 C 43.441406 124.058594 42.871094 124.425781 42.683594 124.597656 C 42.382812 124.882812 42.355469 124.964844 42.40625 125.449219 C 42.4375 125.746094 42.5 126.132812 42.546875 126.304688 C 42.667969 126.785156 42.375 127.03125 41.570312 127.125 C 41.199219 127.167969 40.894531 127.195312 40.894531 127.242188 C 40.894531 127.289062 40.972656 127.566406 41.070312 127.789062 C 41.308594 128.367188 41.1875 128.75 40.683594 128.980469 C 39.648438 129.453125 39.484375 129.722656 39.144531 131.507812 C 38.945312 132.5625 38.746094 132.972656 38.25 133.351562 C 37.085938 134.238281 35.691406 134.117188 34.101562 132.996094 C 33.125 132.308594 31.296875 130.808594 30.765625 130.3125 C 30.671875 130.226562 30.296875 129.875 30.296875 129.875 L 30.863281 129.191406 C 32.773438 127.207031 33.597656 125.613281 33.488281 124.109375 C 33.449219 123.503906 33.347656 123.195312 32.949219 122.464844 C 31.921875 120.570312 31.117188 119 30.941406 118.535156 C 30.804688 118.175781 30.667969 117.746094 30.75 116.460938 C 30.78125 116.007812 30.859375 115.320312 30.785156 114.875 C 30.726562 114.507812 30.457031 113.890625 30.367188 113.710938 C 29.613281 112.257812 28.136719 110.730469 26.34375 109.546875 C 24.867188 108.574219 24.359375 109.027344 25.183594 110.582031 C 25.515625 111.207031 25.574219 111.417969 25.515625 111.761719 C 25.429688 112.273438 25.046875 112.929688 24.871094 112.871094 C 24.75 112.832031 24.398438 112.066406 23.699219 110.332031 C 23.355469 109.476562 23.148438 108.144531 23.300781 107.75 C 23.453125 107.34375 23.738281 107.03125 24.285156 107.167969 C 24.460938 107.214844 25.019531 107.664062 25.558594 108.203125 C 26.078125 108.726562 26.523438 109.003906 26.601562 109.035156 C 27.140625 109.230469 27.160156 108.53125 27.046875 108.171875 C 26.726562 107.167969 25.71875 105.984375 24.835938 105.570312 C 24.167969 105.257812 23.296875 105.222656 22.792969 105.480469 C 21.242188 106.289062 21.039062 108.34375 22.167969 111.8125 C 22.777344 113.675781 23.378906 114.851562 24.09375 115.582031 C 24.238281 115.730469 24.609375 116.097656 24.609375 116.304688 C 24.605469 116.617188 24.5 117.019531 24.441406 117.300781 C 24.164062 118.664062 24.144531 120.289062 24.382812 121.695312 C 24.738281 123.777344 25.710938 125.414062 28.417969 128.609375 C 28.59375 128.8125 29.613281 129.886719 29.613281 129.886719 L 28.15625 131.359375 C 26.359375 133.175781 25.445312 134.292969 24.121094 136.300781 C 23.589844 137.105469 22.972656 137.9375 22.746094 138.144531 C 22.089844 138.753906 21.097656 139.195312 20.390625 139.195312 C 19.789062 139.195312 19.785156 139.195312 17.941406 137.738281 C 16.007812 136.207031 14.253906 135.039062 11.78125 133.640625 C 10.476562 132.898438 9.226562 132.394531 8.621094 132.992188 C 8.15625 133.449219 7.984375 134.339844 8.203125 135.105469 C 8.5625 136.351562 9.746094 137.003906 13.03125 137.777344 C 14.714844 138.175781 15.609375 138.441406 17.265625 139.035156 C 18.03125 139.308594 18.796875 139.535156 18.96875 139.535156 C 19.136719 139.535156 19.441406 139.625 19.640625 139.734375 C 20.523438 140.21875 23.34375 142.917969 24.265625 144.125 C 25.140625 145.269531 25.644531 146.46875 26.074219 147.675781 C 26.257812 148.191406 26.476562 149.28125 26.65625 150.566406 C 27.171875 154.28125 27.398438 155.644531 28.027344 158.917969 C 29.726562 167.742188 31.101562 172.441406 34.398438 180.738281 C 35.265625 182.921875 36.171875 185.214844 36.410156 185.839844 C 36.960938 187.277344 38.132812 189.902344 38.925781 191.480469 C 39.898438 193.417969 40.445312 193.671875 43.445312 193.574219 C 45.140625 193.515625 48.277344 193.050781 50.828125 192.480469 C 53.007812 191.988281 55.578125 191.441406 57.808594 190.996094 C 62.195312 190.121094 68.757812 188.339844 71.882812 187.175781 C 76.683594 185.390625 80.785156 182.671875 82.859375 179.902344 C 84.199219 178.113281 86.0625 175.847656 86.605469 175.339844 C 87.332031 174.660156 87.515625 174.570312 89.546875 173.902344 C 91.5625 173.238281 92.914062 172.613281 93.890625 171.898438 C 94.863281 171.179688 95.105469 171.292969 94.753906 172.292969 C 94.339844 173.464844 92.996094 174.617188 90.722656 175.75 C 88.105469 177.054688 86.527344 179.035156 87.269531 180.089844 C 87.699219 180.707031 88.40625 180.21875 91.347656 177.261719 C 93.953125 174.644531 94.855469 173.855469 96.566406 172.714844 C 97.933594 171.800781 99.945312 170.308594 101.335938 169.179688 C 103.117188 167.730469 105.042969 166.347656 105.898438 165.90625 C 106.515625 165.589844 107.164062 165.457031 107.507812 165.484375 C 107.730469 165.5 107.863281 165.675781 107.863281 165.726562 C 107.863281 165.910156 106.769531 167.007812 105.25 168.355469 C 99.734375 173.246094 98.085938 174.78125 96.5625 176.457031 C 95.355469 177.785156 95.101562 178.300781 95.46875 178.667969 C 95.824219 179.023438 96.378906 178.863281 97.128906 178.175781 C 97.953125 177.421875 98.488281 176.679688 99.195312 175.300781 C 99.515625 174.675781 99.859375 174.148438 99.953125 174.128906 C 100.246094 174.070312 100.308594 174.792969 100.089844 175.722656 C 99.738281 177.210938 99.332031 178.152344 98.269531 179.945312 C 97.632812 181.015625 97.578125 181.175781 97.363281 182.691406 C 97.1875 183.929688 97 184.378906 96.140625 185.628906 C 95.875 186.011719 95.539062 186.527344 95.394531 186.773438 C 95.074219 187.3125 94.441406 187.734375 92.550781 188.679688 C 90.816406 189.546875 89.660156 190 86.75 190.957031 L 84.539062 191.683594 L 83.914062 191.519531 C 81.921875 190.992188 79.597656 191.300781 77.132812 192.421875 C 75.847656 193.007812 74.527344 193.921875 74.152344 194.488281 C 73.546875 195.402344 73.570312 196.515625 74.207031 197.214844 C 74.558594 197.59375 75.042969 197.734375 75.371094 197.753906 C 76.175781 197.800781 77.023438 197.449219 78.804688 195.867188 C 80.398438 194.453125 81.777344 193.484375 83.253906 192.742188 C 84.367188 192.183594 84.660156 192.140625 85.082031 192.472656 C 85.351562 192.6875 87.179688 194.835938 87.550781 195.375 C 87.640625 195.511719 88.480469 196.523438 89.417969 197.628906 C 90.355469 198.734375 91.855469 200.535156 92.753906 201.636719 C 96.269531 205.945312 98.289062 208.207031 101.269531 211.179688 C 106.375 216.273438 111.765625 220.503906 116.921875 223.460938 C 118.921875 224.609375 119.773438 225.03125 122.289062 226.113281 C 124.691406 227.148438 126.476562 228.023438 127.382812 228.605469 C 132.183594 231.6875 134.492188 233.519531 137.203125 236.402344 C 140.078125 239.457031 140.964844 240.273438 141.910156 240.722656 C 142.882812 241.1875 144.167969 241.480469 146.28125 241.722656 C 148.101562 241.933594 149.175781 242.253906 149.699219 242.746094 C 150.03125 243.058594 150.085938 243.179688 150.085938 243.640625 C 150.085938 244.320312 149.738281 244.695312 148.777344 245.0625 C 148.210938 245.28125 147.769531 245.339844 146.109375 245.414062 C 145.015625 245.464844 143.59375 245.558594 142.949219 245.625 C 141.296875 245.792969 139.613281 245.773438 138.4375 245.570312 C 136.375 245.214844 134.148438 244.507812 132.152344 243.570312 C 127.429688 241.347656 122.261719 241.140625 117.496094 242.976562 C 116.175781 243.488281 114.855469 243.613281 113.859375 243.324219 C 112.867188 243.035156 111.855469 241.820312 111.445312 240.425781 C 111.085938 239.1875 111.257812 236.929688 111.828125 235.410156 L 112.070312 234.769531 C 112.070312 234.769531 113.152344 235.308594 113.511719 235.492188 C 115.351562 236.414062 116.402344 236.621094 117.886719 236.480469 C 119.226562 236.355469 120.851562 235.921875 120.171875 234.707031 C 119.804688 234.054688 117.457031 232.34375 116.089844 231.742188 C 115.117188 231.3125 114.636719 231.28125 113.953125 231.617188 C 112.730469 232.222656 112.015625 233.703125 111.914062 234 C 111.867188 234.144531 110.113281 232.839844 108.941406 231.773438 C 106.394531 229.472656 100.492188 225.902344 92.539062 221.847656 C 88.929688 220.007812 87.96875 219.429688 84.679688 217.132812 C 80.535156 214.238281 79.136719 212.941406 77.148438 210.144531 C 75.855469 208.328125 74.101562 205.578125 72.703125 203.183594 C 71.234375 200.664062 70.765625 199.988281 70.164062 199.523438 C 69.285156 198.851562 68.421875 198.894531 67.597656 199.648438 C 67.3125 199.90625 66.46875 200.9375 65.71875 201.933594 C 63.824219 204.460938 62.789062 205.640625 59.972656 208.492188 C 53.316406 215.226562 44.976562 222.640625 39.535156 226.667969 C 35.085938 229.953125 29.324219 233.40625 24.835938 235.46875 C 19.230469 238.042969 13.226562 239.898438 8.265625 240.582031 C 6.695312 240.800781 3.804688 241.097656 3.269531 241.097656 C 2.890625 241.097656 2.621094 241.339844 2.800781 241.515625 C 2.96875 241.6875 9.058594 240.972656 11.222656 240.53125 C 13.574219 240.050781 17.242188 238.960938 20.296875 237.839844 C 26.421875 235.589844 33.585938 231.609375 39.816406 226.996094 C 45.21875 223 53.179688 215.953125 59.738281 209.371094 C 62.792969 206.300781 64.242188 204.65625 66.238281 201.976562 C 66.980469 200.980469 67.773438 200.046875 68.042969 199.851562 C 69.226562 198.980469 70.1875 199.660156 71.773438 202.488281 C 72.164062 203.183594 72.59375 203.925781 72.730469 204.144531 C 72.867188 204.363281 73.609375 205.535156 74.375 206.753906 C 77.175781 211.191406 78.882812 213.292969 81.1875 215.132812 C 82.414062 216.109375 86.550781 219.011719 88 219.910156 C 88.53125 220.238281 90.523438 221.308594 92.425781 222.285156 C 100.707031 226.53125 105.753906 229.601562 108.84375 232.269531 C 109.519531 232.855469 110.4375 233.601562 110.882812 233.925781 L 111.6875 234.523438 L 111.378906 235.402344 C 110.949219 236.609375 110.777344 237.804688 110.835938 239.128906 C 110.902344 240.488281 111.160156 241.273438 111.886719 242.289062 C 112.546875 243.210938 113.21875 243.617188 113.820312 243.757812 C 115.058594 244.042969 116.21875 243.957031 117.710938 243.359375 C 118.984375 242.847656 120.988281 242.367188 122.433594 242.21875 C 125.265625 241.933594 128.714844 242.5 131.242188 243.667969 C 133.457031 244.695312 135.742188 245.480469 137.597656 245.859375 C 139.273438 246.199219 140.949219 246.253906 143.234375 246.039062 C 144.300781 245.941406 145.707031 245.859375 146.355469 245.859375 C 148.296875 245.859375 149.964844 245.273438 150.355469 244.457031 C 150.585938 243.96875 150.589844 243.230469 150.367188 242.796875 " fill-opacity="1" fill-rule="nonzero"/></g><path fill="#040606" d="M 1.625 158.566406 C 1.625 157.347656 2.5625 157.199219 2.773438 157.128906 C 3.335938 156.9375 4.746094 157.054688 5.339844 157.34375 C 6.808594 158.066406 7.972656 159.335938 9.335938 161.527344 C 12.078125 165.933594 15.078125 171.691406 16.183594 174.675781 C 16.554688 175.679688 17.105469 177.476562 17.007812 177.378906 C 16.984375 177.359375 16.417969 176.523438 15.75 175.523438 C 13.191406 171.703125 9.691406 167.253906 7.242188 164.714844 C 6.019531 163.441406 4.628906 162.230469 3.414062 161.375 C 2.234375 160.546875 1.625 159.585938 1.625 158.566406 Z M 17.75 181.210938 C 17.75 180.21875 17.769531 179.425781 17.789062 179.449219 C 17.8125 179.472656 18.542969 180.640625 19.410156 182.042969 C 22.386719 186.835938 25.074219 191.40625 27.671875 196.097656 C 29.222656 198.894531 30.261719 200.757812 31.414062 202.457031 C 31.910156 203.191406 32.390625 203.832031 32.367188 203.847656 C 32.347656 203.863281 31.714844 204.125 30.964844 204.425781 C 27.480469 205.835938 23.464844 208.214844 20.070312 210.886719 L 18.820312 211.867188 L 18.632812 210.183594 C 18.402344 208.09375 18.15625 206.753906 17.78125 205.503906 C 17.402344 204.238281 16.117188 201.054688 15.011719 198.648438 C 13.796875 196 13.722656 195.742188 13.800781 194.472656 C 13.882812 193.105469 14.5 191.414062 15.945312 188.617188 C 17.292969 186 17.742188 184.160156 17.75 181.210938 Z M 18.140625 214.375 C 17.714844 216.042969 16.652344 217.5625 15.195312 218.59375 C 13.644531 219.691406 12.09375 220.109375 11.128906 219.925781 C 10.410156 219.792969 10.226562 219.585938 10.226562 219.210938 C 10.226562 218.761719 10.734375 218.3125 12.480469 217.132812 C 14.242188 215.945312 16.511719 214.300781 17.515625 213.488281 L 18.253906 212.886719 L 18.289062 213.277344 C 18.308594 213.488281 18.242188 213.984375 18.140625 214.375 Z M 33.480469 203.90625 C 34.589844 203.46875 39.085938 202.054688 40.613281 201.667969 C 45.390625 200.457031 48.550781 199.949219 54.460938 199.445312 C 56.355469 199.285156 59.871094 199.253906 60.585938 199.382812 C 61.496094 199.546875 61.257812 200.039062 60.789062 200.273438 C 59.792969 200.773438 56.703125 201.8125 53.152344 202.84375 C 48.257812 204.265625 44.769531 205.371094 43.085938 206.03125 C 40.304688 207.121094 39.007812 207.390625 37.414062 207.121094 C 35.910156 206.867188 35.023438 206.261719 33.652344 204.621094 L 33.191406 204.039062 Z M 12.632812 171.898438 C 13.898438 173.574219 16.734375 177.710938 17.179688 178.527344 C 17.378906 178.898438 17.386719 182.800781 17.191406 183.855469 C 16.9375 185.207031 16.363281 186.785156 15.453125 188.640625 C 13.503906 192.605469 13.089844 194.085938 13.425781 195.863281 C 13.539062 196.445312 13.699219 196.835938 14.960938 199.613281 C 15.984375 201.863281 17.25 205.128906 17.550781 206.300781 C 17.929688 207.761719 18.222656 209.859375 18.238281 211.226562 L 18.253906 212.355469 L 17.117188 213.246094 C 15.875 214.21875 14.6875 215.074219 12.269531 216.746094 C 11.398438 217.347656 10.558594 217.964844 10.398438 218.105469 C 9.464844 218.921875 9.570312 219.898438 10.503906 220.253906 C 11.285156 220.550781 12.824219 220.375 13.785156 219.933594 C 16.679688 218.601562 18.527344 216.152344 18.726562 213.371094 L 18.796875 212.453125 L 19.921875 211.558594 C 22.398438 209.589844 25.957031 207.277344 28.296875 206.113281 C 29.761719 205.386719 32.417969 204.257812 32.667969 204.257812 C 32.746094 204.257812 33.019531 204.53125 33.28125 204.867188 C 34.015625 205.820312 35.128906 207.199219 37.230469 207.558594 C 38.710938 207.808594 40.09375 207.609375 42.117188 206.851562 C 45.4375 205.609375 47.648438 204.902344 54.800781 202.800781 C 58.222656 201.792969 60.875 200.789062 61.304688 200.40625 C 61.789062 199.980469 61.757812 199.371094 61.332031 199.167969 C 60.738281 198.886719 57.898438 198.664062 51.007812 199.335938 C 46.136719 199.808594 40.859375 200.96875 35.660156 202.707031 C 33.65625 203.378906 32.84375 203.640625 32.8125 203.601562 C 31.339844 201.621094 30.207031 199.878906 27.726562 195.304688 C 24.855469 190.003906 22.179688 185.625 18.847656 180.316406 C 17.859375 178.738281 17.636719 178.296875 17.523438 177.707031 C 17.324219 176.644531 16.660156 174.582031 16.078125 173.21875 C 14.785156 170.199219 11.582031 164.222656 9.503906 160.957031 C 8.144531 158.824219 6.460938 157.199219 5.234375 156.828125 C 4.457031 156.589844 1.980469 156.113281 1.332031 157.734375 C 0.738281 159.214844 1.648438 160.765625 3.578125 162.054688 C 5.75 163.511719 8.816406 166.839844 12.632812 171.898438 " fill-opacity="1" fill-rule="nonzero"/><path fill="#040606" d="M 146.984375 13.914062 C 145.023438 16.769531 140.597656 22.558594 140.421875 22.496094 C 140.1875 22.414062 141.136719 19.28125 141.769531 18.058594 C 142.59375 16.476562 143.195312 15.589844 145.257812 12.949219 C 147.5625 10 148.792969 8.121094 149.308594 5.875 C 149.519531 4.945312 149.832031 4.265625 149.886719 4.191406 C 150.238281 3.726562 150.609375 4.316406 150.78125 4.871094 C 150.898438 5.246094 150.835938 5.945312 150.617188 6.964844 C 150.167969 9.023438 148.988281 11 146.984375 13.914062 Z M 134.0625 38.21875 C 135.277344 37.300781 138.667969 36.839844 141.636719 37.191406 C 142.882812 37.339844 144.339844 37.785156 144.582031 38.097656 C 144.691406 38.230469 144.019531 38.339844 142.683594 38.398438 C 141.550781 38.449219 139.175781 38.605469 137.414062 38.746094 C 132.945312 39.097656 132.910156 39.09375 134.0625 38.21875 Z M 139.125 42.628906 C 139.234375 42.492188 141.804688 41.90625 142.023438 41.96875 C 142.101562 41.992188 141.714844 42.28125 141.164062 42.609375 C 139.945312 43.339844 139.453125 43.449219 139.207031 43.042969 C 139.109375 42.882812 139.074219 42.695312 139.125 42.628906 Z M 149.625 3.519531 C 149.320312 3.734375 149.117188 4.203125 148.59375 5.964844 C 147.78125 8.675781 147.058594 9.617188 144.644531 12.71875 C 143.628906 14.03125 142.507812 15.550781 142.152344 16.105469 C 141.257812 17.503906 140.304688 19.910156 139.761719 22.132812 L 139.300781 24.011719 L 137.132812 26.757812 C 133.828125 30.945312 132.984375 32.269531 132.214844 34.476562 C 131.617188 36.195312 131.625 36.929688 131.703125 37.632812 C 131.957031 39.941406 133.410156 39.945312 134.292969 40.308594 C 135.019531 40.605469 135.382812 40.878906 135.789062 41.425781 C 136.496094 42.375 136.875 42.628906 137.660156 42.679688 C 138.203125 42.714844 138.359375 42.804688 138.625 43.222656 C 139.230469 44.167969 139.992188 44.144531 141.570312 43.125 C 142.144531 42.753906 143.125 42.167969 143.753906 41.824219 C 145.652344 40.785156 146.179688 40.390625 146.042969 40.109375 C 145.953125 39.929688 145.585938 40.003906 144.695312 40.386719 C 143.511719 40.894531 140.140625 41.761719 138.417969 41.996094 C 137.308594 42.148438 136.988281 42.015625 136.375 41.128906 C 136.046875 40.660156 135.5625 40.234375 135.066406 39.984375 L 134.28125 39.589844 L 135.78125 39.5 C 136.605469 39.449219 137.894531 39.351562 138.648438 39.277344 C 139.398438 39.207031 141.09375 39.097656 142.410156 39.035156 C 143.730469 38.976562 144.445312 38.816406 144.597656 38.769531 C 145.1875 38.59375 145.539062 38.308594 145.171875 37.828125 C 144.429688 36.863281 141.21875 36.292969 137.734375 36.503906 C 135.4375 36.644531 133.300781 37.554688 132.957031 38.539062 C 132.738281 39.164062 132.445312 38.644531 132.289062 37.671875 C 132.15625 36.855469 132.191406 36.308594 132.882812 34.421875 C 133.753906 32.03125 134.414062 31.125 139.855469 24.335938 C 143.71875 19.523438 145.921875 16.59375 148.058594 13.4375 C 149.367188 11.503906 150.105469 10.300781 150.71875 8.746094 C 151.320312 7.214844 151.511719 5.976562 151.488281 5.277344 C 151.445312 3.917969 150.414062 2.949219 149.625 3.519531 " fill-opacity="1" fill-rule="nonzero"/><g clip-path="url(#64a663361d)"><path fill="#040606" d="M 165.089844 148.929688 C 165.046875 149.414062 164.75 149.558594 164.285156 149.304688 C 163.492188 148.867188 162.945312 148.105469 162.117188 145.878906 C 161.542969 144.332031 161.171875 141.1875 161.242188 139.902344 C 161.269531 139.355469 163.78125 144.753906 164.613281 147.015625 C 164.902344 147.792969 165.117188 148.652344 165.089844 148.929688 Z M 160.625 135.832031 C 160.574219 135.902344 160.183594 134.878906 159.769531 133.5625 C 158.492188 129.527344 157.648438 127.285156 154.941406 120.691406 C 153.976562 118.335938 153.769531 117.707031 153.984375 117.785156 C 154.015625 117.792969 154.429688 118.105469 154.898438 118.476562 C 155.585938 119.015625 156 119.609375 157.035156 121.535156 C 157.742188 122.851562 158.910156 124.984375 159.632812 126.273438 C 160.519531 127.859375 160.988281 128.921875 161.074219 129.542969 C 161.195312 130.425781 160.828125 135.566406 160.625 135.832031 Z M 138.84375 120.171875 C 140.558594 126.699219 141.488281 132.222656 141.132812 133.785156 C 140.859375 134.996094 140.558594 134.730469 139.824219 132.617188 C 138.347656 128.371094 137.066406 119.570312 137.667969 117.832031 C 137.921875 117.105469 138.160156 117.582031 138.84375 120.171875 Z M 84.5625 87.085938 C 82.945312 87.332031 81.441406 86.464844 82.265625 85.777344 C 82.609375 85.488281 83.648438 85.332031 84.898438 85.425781 C 86.015625 85.511719 87.183594 85.839844 88.046875 86.253906 C 88.1875 86.320312 86.132812 86.847656 84.5625 87.085938 Z M 161.144531 137.945312 L 161.480469 134.378906 C 161.664062 132.421875 161.777344 130.375 161.730469 129.832031 C 161.648438 128.867188 160.527344 126.371094 159.207031 124.203125 C 158.898438 123.699219 158.089844 122.230469 157.40625 120.945312 C 156.273438 118.804688 156.074219 118.539062 155.101562 117.824219 L 154.035156 117.046875 L 153.996094 115.945312 C 153.972656 115.339844 153.617188 112.085938 153.199219 108.71875 C 152.78125 105.347656 152.082031 99.703125 151.648438 96.171875 C 150.753906 88.933594 150.519531 87.761719 149.914062 87.496094 C 149.691406 87.398438 147.613281 87.457031 145.296875 87.625 C 140.117188 88.007812 137.257812 88.074219 131.828125 87.929688 C 129.515625 87.871094 121.914062 87.734375 114.945312 87.628906 C 101.515625 87.425781 99.679688 87.359375 94.140625 86.894531 C 90.449219 86.585938 90.234375 86.394531 87.789062 85.507812 C 86.835938 85.164062 85.011719 84.777344 84.03125 84.816406 C 82.355469 84.878906 81.75 85.132812 81.46875 85.847656 C 81.261719 86.378906 81.492188 87.40625 83.316406 87.671875 C 85.503906 87.992188 88.464844 86.800781 88.628906 86.75 C 89.304688 86.550781 89.265625 86.679688 89.4375 87.191406 C 89.867188 88.492188 92.070312 100.167969 92.738281 103.328125 C 93.789062 108.300781 96.160156 116.730469 96.761719 119.128906 C 96.96875 119.953125 97.734375 120.484375 97.414062 119.285156 C 95.65625 112.75 94.449219 108.300781 93.644531 104.796875 C 92.785156 101.0625 91.71875 95.308594 91.019531 91.808594 C 90.699219 90.195312 90.320312 88.441406 90.203125 87.835938 C 90.105469 87.320312 90.046875 87.144531 90.222656 87.152344 C 90.359375 87.15625 91.699219 87.28125 93.207031 87.425781 C 98.144531 87.90625 102.25 88.0625 115.101562 88.257812 C 122.074219 88.363281 129.925781 88.5 132.550781 88.566406 C 137.503906 88.691406 141.257812 88.585938 146.5625 88.183594 C 147.335938 88.125 148.746094 88.039062 149.578125 88.097656 C 150.179688 88.140625 150.539062 92.453125 151.039062 96.527344 C 151.542969 100.601562 152.238281 106.117188 152.585938 108.789062 C 153.207031 113.558594 153.523438 116.765625 153.328125 116.324219 C 153.273438 116.199219 152.875 115.085938 152.445312 113.84375 C 151.6875 111.660156 149.890625 107.753906 149.082031 106.539062 C 148.496094 105.65625 147.675781 105.277344 147.0625 105.519531 C 146.648438 105.6875 146.652344 106.703125 146.855469 107.484375 C 147.285156 109.101562 148.742188 115.410156 149.015625 116.839844 C 149.34375 118.539062 149.125 118.085938 148.492188 115.757812 C 147.703125 112.851562 146.46875 109.578125 145.457031 107.703125 C 144.203125 105.382812 142.648438 103.929688 141.835938 104.320312 C 141.238281 104.613281 141.269531 105.316406 141.972656 107.355469 C 143.347656 111.351562 143.660156 112.421875 144.335938 115.40625 C 144.714844 117.070312 145.128906 119.296875 145.261719 120.359375 C 145.542969 122.648438 145.792969 128.28125 145.621094 128.503906 C 145.554688 128.59375 145.261719 127.734375 144.96875 126.597656 C 143.515625 120.953125 139.414062 111.324219 137.726562 109.609375 C 136.8125 108.675781 136.277344 108.613281 135.917969 109.386719 C 135.554688 110.171875 135.773438 111.308594 136.835938 114.15625 C 137.765625 116.648438 137.789062 116.753906 137.425781 117.097656 C 136.957031 117.539062 136.828125 118.269531 136.90625 120.050781 C 137.109375 124.761719 138.367188 131.011719 139.765625 134.234375 C 140.386719 135.671875 141.488281 135.617188 141.726562 134.140625 C 142.207031 131.128906 140.289062 121.652344 137.894531 115.1875 C 136.609375 111.722656 136.324219 110.65625 136.386719 109.898438 C 136.480469 108.746094 137.800781 110.371094 139.894531 114.730469 C 141.832031 118.769531 143.410156 123.117188 144.65625 127.832031 C 145.007812 129.160156 145.417969 129.832031 145.863281 129.820312 C 146.308594 129.804688 146.371094 129.378906 146.304688 126.914062 C 146.183594 122.5625 145.921875 119.96875 145.289062 116.925781 C 144.449219 112.867188 144.074219 111.492188 142.875 108.082031 C 142.320312 106.503906 141.894531 105.140625 141.921875 105.050781 C 142.054688 104.671875 142.566406 104.929688 143.390625 105.78125 C 144.367188 106.792969 145.960938 109.894531 146.917969 112.648438 C 147.671875 114.820312 148.929688 119.824219 149.417969 122.589844 C 149.824219 124.878906 150.011719 125.324219 150.476562 125.097656 C 150.660156 125.011719 150.703125 124.640625 150.644531 123.746094 C 150.449219 120.800781 148.910156 112.804688 147.601562 107.921875 C 147.359375 107.019531 147.050781 105.824219 147.75 106.15625 C 148.109375 106.324219 148.492188 106.785156 149.324219 108.28125 C 150.503906 110.40625 151.128906 111.933594 152.890625 117.023438 C 153.527344 118.855469 154.566406 121.558594 155.207031 123.03125 C 156.636719 126.324219 158.152344 130.53125 160.101562 136.648438 C 160.40625 137.601562 160.570312 138.605469 160.554688 139.441406 C 160.519531 141.191406 160.761719 143.417969 161.054688 144.582031 C 161.730469 147.253906 162.65625 148.589844 163.230469 149.191406 C 164.203125 150.210938 165.273438 150.289062 165.59375 149.367188 C 165.90625 148.464844 165.445312 147.09375 163.234375 142.390625 L 161.144531 137.945312 " fill-opacity="1" fill-rule="nonzero"/></g><g clip-path="url(#96a346e7b5)"><path fill="#040606" d="M 160.523438 46.121094 L 159.703125 45.355469 C 158.054688 43.816406 157.015625 42.410156 154.34375 38.109375 C 152.089844 34.472656 148.488281 29.386719 147.191406 28.007812 C 145.988281 26.71875 144.894531 25.949219 143.660156 25.511719 C 142.828125 25.21875 142.386719 24.796875 142.941406 24.824219 C 143.132812 24.832031 143.6875 24.921875 144.171875 25.019531 C 144.65625 25.117188 145.351562 25.1875 145.71875 25.179688 C 147.28125 25.144531 148.316406 25.566406 149.382812 26.671875 C 150.257812 27.582031 152.851562 30.996094 154.15625 32.953125 C 154.667969 33.722656 155.488281 34.90625 155.976562 35.585938 C 157.667969 37.925781 160.148438 43.386719 160.421875 45.378906 Z M 192.730469 89.777344 C 192.410156 89.933594 190.871094 87.945312 189.019531 84.984375 C 186.035156 80.210938 184.601562 78.648438 180.90625 76.140625 C 178.175781 74.292969 177.632812 73.765625 176.804688 72.167969 C 176.0625 70.742188 174.484375 66.363281 173.898438 64.105469 C 173.15625 61.261719 171.699219 57.175781 170.8125 55.457031 C 169.746094 53.390625 168.140625 51.726562 165.515625 49.964844 C 164.503906 49.289062 163.113281 48.316406 162.425781 47.808594 L 161.175781 46.882812 L 161.09375 45.855469 C 161.046875 45.292969 160.839844 44.273438 160.628906 43.59375 C 160.066406 41.765625 157.523438 36.640625 156.398438 35.058594 C 155.855469 34.300781 154.75 32.714844 153.941406 31.539062 C 152.25 29.085938 150.542969 26.921875 149.519531 25.925781 C 148.644531 25.074219 147.332031 24.578125 145.914062 24.570312 C 145.351562 24.570312 144.460938 24.472656 143.925781 24.363281 C 142.792969 24.125 142.078125 24.253906 141.914062 24.726562 C 141.757812 25.171875 142.136719 25.472656 143.945312 26.339844 C 145.992188 27.320312 146.863281 28.246094 150.121094 32.882812 C 151.503906 34.851562 152.136719 35.816406 155.066406 40.382812 C 156.5625 42.71875 157.421875 43.847656 158.710938 45.179688 C 160.628906 47.160156 160.589844 47.007812 159.753906 49.429688 C 158.546875 52.90625 156.339844 55.058594 150.769531 58.179688 C 146.765625 60.425781 142.359375 61.933594 140.722656 61.625 C 139.25 61.347656 138.316406 60.121094 138.328125 58.480469 C 138.332031 58.140625 138.253906 57.589844 138.15625 57.253906 L 137.980469 56.648438 L 139.1875 56.0625 C 140.65625 55.34375 141.449219 54.601562 141.355469 54.019531 C 141.269531 53.460938 141.046875 53.421875 139.273438 53.675781 C 136.707031 54.042969 135.128906 53.464844 135.53125 52.304688 C 135.96875 51.054688 134.964844 50.007812 133.308594 49.984375 C 131.492188 49.957031 131.351562 49.464844 132.117188 45.839844 C 132.785156 42.679688 132.867188 40.753906 132.34375 40.570312 C 131.890625 40.410156 131.132812 41.421875 129.539062 44.289062 C 127.140625 48.617188 125.789062 52.039062 124.832031 56.195312 C 124.535156 57.496094 124.277344 58.757812 124.261719 59.003906 C 124.140625 60.964844 122.589844 54.179688 121.832031 48.378906 C 120.875 41.019531 120.84375 37.59375 121.6875 32.386719 C 122.621094 26.636719 125.933594 18.679688 129.859375 12.769531 C 131.367188 10.5 131.9375 9.816406 133.902344 7.902344 C 136.1875 5.679688 137.78125 4.539062 140.269531 3.347656 C 145.210938 0.980469 148.796875 0.398438 153.390625 1.214844 C 155.40625 1.570312 159.476562 3.085938 161.320312 4.164062 C 164.273438 5.890625 165.960938 7.53125 168.492188 11.144531 C 171.871094 15.953125 174.523438 24.773438 174.804688 32.121094 C 174.835938 32.964844 174.929688 35.550781 175.015625 37.867188 C 175.335938 46.699219 176.375 50.164062 181.484375 59.414062 C 183.433594 62.941406 188.054688 71.835938 189.394531 74.640625 C 190.734375 77.441406 191.796875 80.617188 192.316406 83.382812 C 192.746094 85.679688 193.003906 89.640625 192.730469 89.777344 Z M 136.792969 55.828125 C 136.367188 55.679688 136.191406 55.171875 136.417969 54.738281 C 136.5625 54.46875 136.847656 54.398438 137.71875 54.433594 C 138.332031 54.457031 139.253906 54.375 139.761719 54.253906 C 140.78125 54.011719 140.949219 54.175781 140.253906 54.726562 C 139.160156 55.59375 137.574219 56.101562 136.792969 55.828125 Z M 125.414062 63.929688 C 125.902344 64.820312 126.550781 66.101562 126.855469 66.78125 C 127.929688 69.179688 128.523438 72.628906 128.3125 75.273438 C 128.199219 76.734375 127.238281 80.476562 127.003906 80.394531 C 126.625 80.261719 125.777344 77.191406 125.277344 74.121094 C 124.582031 69.878906 124.367188 67.101562 124.480469 63.671875 L 124.527344 62.308594 Z M 193.421875 89.5 C 193.5 88.683594 193.347656 85.804688 192.964844 83.492188 C 192.167969 78.660156 190.835938 75.625 183.578125 62.078125 C 179.933594 55.277344 177.652344 50.441406 176.980469 48.097656 C 176 44.691406 175.59375 40.644531 175.480469 33.222656 C 175.378906 26.492188 173.140625 17.722656 170.273438 12.816406 C 166.675781 6.660156 163.261719 3.78125 157.042969 1.652344 C 155.636719 1.171875 153.84375 0.671875 153.058594 0.546875 C 151.207031 0.246094 148.75 0.15625 147.371094 0.34375 C 144.175781 0.773438 138.765625 3.035156 136.269531 4.980469 C 132.929688 7.582031 130.472656 10.410156 128.195312 14.277344 C 124.355469 20.796875 121.882812 27.128906 121.023438 32.652344 C 120.238281 37.671875 120.277344 41.304688 121.191406 48.308594 C 121.859375 53.433594 122.457031 56.421875 123.351562 59.109375 C 123.855469 60.613281 123.894531 61.03125 123.863281 64.203125 C 123.792969 70.5625 125.089844 77.496094 126.40625 80.628906 C 126.5 80.855469 126.675781 81.269531 126.867188 81.425781 C 127.296875 81.769531 128.441406 81.949219 128.984375 82.042969 C 133.277344 82.8125 139.023438 83.585938 143.441406 83.25 C 143.992188 83.207031 145.515625 83.039062 145.589844 83.105469 C 145.820312 83.320312 147.972656 85.078125 148.21875 85.261719 C 148.632812 85.570312 148.242188 85.589844 146.171875 85.515625 C 141.746094 85.359375 134.300781 85.1875 129.808594 85.21875 C 127.292969 85.238281 123.007812 85.15625 120.289062 85.042969 C 117.570312 84.925781 113.222656 84.890625 110.628906 84.964844 C 108.035156 85.039062 105.113281 85.078125 104.132812 85.050781 C 102.054688 84.992188 92.886719 84.21875 92.820312 84.09375 C 92.753906 83.976562 96.855469 83.46875 99.664062 83.25 C 102.777344 83.003906 106.9375 82.941406 111.90625 83.0625 C 115.601562 83.148438 123.035156 83.042969 123.929688 82.839844 C 124.714844 82.664062 124.929688 82.550781 125.0625 82.246094 C 125.140625 82.0625 125.058594 81.882812 124.542969 81.652344 C 123.324219 81.109375 115.855469 80.257812 110.234375 80.019531 C 102.042969 79.671875 95.070312 80.675781 88.960938 83.082031 C 88.179688 83.390625 87.4375 83.609375 87.316406 83.566406 C 87.191406 83.527344 86.570312 82.390625 85.929688 81.042969 C 84.28125 77.574219 81.949219 73.980469 79.5 71.128906 C 78.363281 69.804688 77.164062 68.175781 76.789062 67.625 C 75.128906 65.195312 73.328125 61.867188 71.867188 58.878906 C 70.910156 56.921875 70.019531 54.945312 69.863281 54.890625 C 69.671875 54.824219 69.136719 55.007812 68.457031 55.738281 C 68.207031 56.007812 67.699219 56.535156 67.492188 56.839844 C 67.371094 57.023438 69.753906 61.015625 71.273438 63.363281 C 77.71875 73.320312 81.28125 80.296875 81.285156 82.960938 C 81.285156 83.285156 81.355469 83.570312 81.441406 83.601562 C 81.777344 83.71875 81.9375 83.207031 81.828125 82.382812 C 81.378906 79.105469 77.664062 71.949219 71.71875 62.910156 C 70.5625 61.160156 69.324219 59.269531 68.929688 58.511719 C 68.75 58.164062 68.070312 56.988281 68.140625 56.910156 C 68.3125 56.71875 68.648438 56.316406 68.835938 56.136719 C 69.066406 55.917969 69.550781 55.476562 69.667969 55.707031 C 70.09375 56.546875 70.824219 58.171875 71.222656 59.003906 C 73.75 64.28125 75.976562 68.035156 79.953125 72.683594 C 81.71875 74.75 84.734375 79.648438 85.761719 82.121094 C 86.769531 84.554688 86.90625 84.605469 89.582031 83.515625 C 91.488281 82.742188 96.726562 81.375 98.851562 81.097656 C 102.386719 80.636719 106.332031 80.484375 110.476562 80.652344 C 113.730469 80.785156 119.644531 81.324219 121.730469 81.683594 C 122.660156 81.84375 123.53125 81.957031 123.828125 82.007812 C 123.960938 82.03125 124.394531 82.136719 124.265625 82.183594 C 123.960938 82.292969 123.390625 82.308594 123.210938 82.328125 C 121.941406 82.449219 115.539062 82.527344 112.027344 82.4375 C 104.699219 82.25 100.335938 82.421875 95.089844 83.097656 C 91.675781 83.539062 91.296875 83.640625 91.3125 84.097656 C 91.324219 84.476562 91.933594 84.695312 93.261719 84.796875 C 93.824219 84.839844 96.039062 85.046875 98.183594 85.257812 C 102.25 85.652344 106.625 85.75 112.203125 85.566406 C 114.011719 85.503906 117.699219 85.550781 120.402344 85.667969 C 123.105469 85.78125 127.265625 85.863281 129.648438 85.847656 C 137.277344 85.796875 147.375 86.136719 148.039062 86.148438 C 148.652344 86.15625 149.441406 85.984375 149.328125 85.644531 C 149.292969 85.535156 149.082031 85.277344 148.824219 85.066406 C 148.570312 84.859375 145.894531 82.574219 145.769531 82.53125 C 145.671875 82.503906 144.90625 82.527344 144.644531 82.558594 C 142.164062 82.863281 138.4375 82.746094 135.980469 82.445312 C 129.242188 81.617188 127.488281 80.984375 127.488281 80.984375 L 128.132812 79.136719 C 129.195312 76.03125 129.253906 73.0625 128.328125 69.261719 C 127.96875 67.792969 127.464844 66.550781 126.292969 64.226562 C 125.4375 62.53125 124.726562 60.90625 124.71875 60.613281 C 124.664062 58.613281 126.109375 53.070312 127.558594 49.710938 C 128.644531 47.203125 130.765625 43.175781 131.644531 41.953125 C 131.765625 41.789062 132.109375 41.210938 132.101562 41.414062 C 132.082031 41.828125 132.070312 42.140625 132.054688 42.421875 C 132.015625 43.042969 131.78125 44.484375 131.535156 45.621094 C 130.882812 48.621094 130.914062 49.140625 131.171875 49.683594 C 131.449219 50.25 132.015625 50.527344 133.339844 50.625 C 134.742188 50.726562 135.171875 51.3125 134.867188 52.699219 C 134.796875 53.019531 134.929688 53.292969 135.347656 53.699219 C 135.824219 54.160156 135.894531 54.339844 135.757812 54.738281 C 135.511719 55.4375 135.84375 56.0625 136.605469 56.328125 C 137.40625 56.609375 137.574219 56.960938 137.738281 58.695312 C 137.8125 59.457031 138.070312 60.292969 138.191406 60.515625 C 138.910156 61.824219 140.085938 62.289062 141.53125 62.332031 C 142.4375 62.363281 146.121094 61.183594 148.28125 60.175781 C 150.34375 59.214844 154.21875 56.964844 155.515625 55.980469 C 158.0625 54.039062 159.371094 52.421875 160.40625 49.5 C 160.578125 49.015625 161.101562 47.558594 161.101562 47.558594 L 161.761719 48.101562 C 162.179688 48.441406 163.097656 49.097656 163.796875 49.558594 C 167.527344 52.011719 169.164062 53.609375 170.378906 55.992188 C 171.171875 57.546875 172.402344 60.96875 173.027344 63.359375 C 173.652344 65.742188 175.113281 69.996094 175.914062 71.761719 C 176.878906 73.882812 177.695312 74.738281 180.582031 76.671875 C 184.039062 78.984375 185.8125 80.941406 188.679688 85.609375 C 189.949219 87.671875 191.753906 90.066406 192.265625 90.351562 C 193.074219 90.800781 193.363281 90.109375 193.421875 89.5 " fill-opacity="1" fill-rule="nonzero"/></g><g clip-path="url(#381b2c28f0)"><path fill="#040606" d="M 67.640625 71.605469 C 67.714844 71.632812 67.902344 72.1875 68.0625 72.839844 L 68.355469 74.027344 L 67.648438 74.253906 C 67.261719 74.378906 65.832031 74.875 64.46875 75.355469 C 63.109375 75.835938 61.976562 76.191406 61.953125 76.144531 C 61.890625 76.015625 63.394531 74.488281 64.3125 73.753906 C 65.367188 72.90625 67.472656 71.546875 67.640625 71.605469 Z M 71.207031 73.984375 C 71.417969 74.058594 71.464844 74.21875 71.363281 74.511719 C 71.210938 74.953125 70.867188 75.15625 66.050781 77.695312 C 63.054688 79.277344 62.375 79.722656 62.199219 80.230469 C 61.996094 80.816406 62.460938 81.179688 63.875 81.539062 C 66.96875 82.324219 71.574219 83.316406 73.191406 83.546875 C 75.132812 83.824219 75.910156 84.074219 76.011719 84.34375 C 76.179688 84.792969 75.679688 84.929688 75.21875 84.972656 C 74.828125 85.007812 69.835938 84.855469 65.921875 84.6875 C 64.433594 84.625 63.445312 84.84375 63.617188 85.199219 C 63.742188 85.460938 65.5625 86.019531 66.945312 86.222656 C 67.667969 86.328125 69.507812 86.5 71.027344 86.601562 C 74.390625 86.828125 75.511719 87.046875 75.683594 87.511719 C 75.902344 88.097656 75.183594 88.179688 68.246094 88.363281 C 66.097656 88.417969 65.542969 88.535156 65.398438 88.953125 C 65.273438 89.304688 65.808594 89.6875 66.964844 90.082031 C 68.082031 90.464844 69.15625 90.515625 71.382812 90.292969 C 72.53125 90.179688 73.585938 90.140625 73.792969 90.171875 C 74.144531 90.21875 74.160156 90.355469 73.808594 90.609375 C 73.214844 91.039062 70.558594 91.828125 69.207031 91.980469 C 67.707031 92.144531 65.441406 92.015625 64.574219 91.710938 C 63.671875 91.394531 63.179688 90.804688 62.730469 89.503906 C 62.519531 88.886719 62.078125 88.097656 61.746094 87.746094 C 61.273438 87.246094 61.15625 86.96875 61.191406 86.421875 C 61.214844 86.039062 61.285156 85.574219 61.285156 85.484375 C 61.285156 85.117188 61.042969 84.769531 60.683594 83.976562 C 60.515625 83.617188 60.167969 82.945312 60.167969 82.550781 C 60.167969 82.226562 60.425781 81.660156 60.558594 81.367188 C 60.984375 80.429688 61.121094 79.863281 61.242188 78.554688 C 61.355469 77.273438 61.441406 76.917969 61.632812 76.921875 C 61.765625 76.921875 62.855469 76.578125 64.058594 76.15625 C 68.199219 74.699219 70.902344 73.878906 71.207031 73.984375 Z M 67.863281 59.539062 C 65.9375 56.644531 65.835938 56.527344 65.445312 56.761719 C 65.199219 56.910156 65.191406 57.285156 65.398438 58.871094 C 65.75 61.53125 66.40625 65.347656 67.03125 68.324219 L 67.554688 70.828125 L 66.210938 71.664062 C 65.472656 72.125 64.277344 72.996094 63.546875 73.601562 C 61.441406 75.359375 60.703125 76.621094 60.609375 78.621094 C 60.578125 79.371094 60.421875 79.957031 60.003906 80.902344 C 59.332031 82.417969 59.347656 82.78125 60.179688 84.367188 C 60.503906 84.988281 60.703125 85.617188 60.636719 85.808594 C 60.378906 86.554688 60.59375 87.40625 61.214844 88.074219 C 61.585938 88.476562 61.9375 89.132812 62.09375 89.714844 C 62.644531 91.757812 64.21875 92.636719 67.378906 92.675781 C 69.335938 92.703125 70.320312 92.546875 72.328125 91.90625 C 73.921875 91.398438 74.804688 90.746094 74.671875 90.171875 C 74.53125 89.542969 73.957031 89.453125 71.453125 89.671875 C 69.03125 89.882812 67.070312 89.707031 66.660156 89.246094 C 66.535156 89.101562 67.09375 89.015625 68.34375 88.980469 C 73.0625 88.851562 74.78125 88.757812 75.394531 88.597656 C 76.203125 88.386719 76.550781 87.789062 76.222656 87.183594 C 75.890625 86.578125 74.789062 86.269531 72.25 86.074219 C 71.085938 85.984375 69.359375 85.851562 68.414062 85.777344 C 67.464844 85.703125 66.011719 85.441406 65.816406 85.367188 C 65.484375 85.234375 67.546875 85.386719 73.058594 85.570312 C 75.523438 85.652344 76.429688 85.457031 76.660156 84.792969 C 76.984375 83.863281 75.917969 83.320312 72.890625 82.875 C 70.488281 82.523438 62.734375 80.941406 62.824219 80.414062 C 62.855469 80.222656 63.175781 80.046875 63.335938 79.9375 C 63.6875 79.695312 65.609375 78.632812 67.609375 77.578125 C 69.609375 76.523438 71.160156 75.625 71.355469 75.480469 C 72.144531 74.90625 72.253906 74.261719 72.011719 73.820312 C 71.710938 73.273438 71.234375 73.273438 70.191406 73.519531 C 69.582031 73.667969 69.035156 73.726562 68.980469 73.660156 C 68.566406 73.144531 66.617188 63.535156 66.046875 59.171875 L 65.859375 57.722656 L 66.457031 58.539062 C 66.785156 58.988281 67.332031 59.804688 67.671875 60.351562 C 68.011719 60.902344 68.929688 62.332031 69.707031 63.527344 C 73.757812 69.746094 77.929688 77.496094 79.9375 82.511719 C 80.40625 83.683594 80.546875 83.894531 80.730469 83.683594 C 80.894531 83.496094 80.726562 82.867188 80.078125 81.261719 C 78.003906 76.078125 73.292969 67.703125 67.863281 59.539062 " fill-opacity="1" fill-rule="nonzero"/></g></svg>