<svg viewBox="0 0 63 62" fill="none" xmlns="http://www.w3.org/2000/svg">
<g clip-path="url(#clip0_0_1)">
<path d="M24.9183 4.79571C22.0949 4.96392 17.34 19.6641 16.868 22.6687L41.9107 24.0918L42.2393 40.5354C43.8738 41.4302 45.8259 41.7525 45.2022 43.6282C44.7129 45.0999 43.4485 45.7333 41.2339 44.47C38.7561 43.4705 33.5161 42.0093 32.3793 44.1605C30.9583 46.8495 40.763 49.0557 44.5587 50.3177C48.3544 51.5798 50.2511 50.6297 52.3043 47.624C53.9469 45.2194 51.4554 40.1405 50.557 37.0316L48.6568 33.2383L46.4399 28.8128C43.7473 22.6484 49.3013 7.0177 44.8421 6.67807C40.7309 6.36494 40.3917 17.8443 39.6337 19.173C39.2127 19.9112 38.6872 22.0197 34.2605 22.6555C29.8326 21.7102 29.3187 21.671 26.8257 18.0758C23.9765 13.967 30.8944 4.43966 24.9183 4.79571Z" fill="black" stroke="black"/>
<path d="M22.4733 38.1786L26.5845 38.4917" stroke="black"/>
<path d="M17.8268 30.7072C18.0092 27.7128 19.9852 28.1671 21.0037 27.8952C21.8355 27.9459 23.4625 28.6461 23.3166 31.0417C23.1706 33.4372 21.4908 33.6021 20.6692 33.385C19.6812 33.1578 17.7295 32.3042 17.8268 30.7072Z" stroke="black"/>
<path d="M17.8217 30.7901C17.8876 29.709 18.6062 29.8734 18.9765 29.7754C19.2789 29.7938 19.8707 30.0469 19.818 30.9117C19.7653 31.7765 19.1545 31.8358 18.8557 31.7573C18.4964 31.6751 17.7866 31.3666 17.8217 30.7901Z" fill="black" stroke="black"/>
<path d="M26.8101 31.2545C26.9926 28.2601 28.9686 28.7144 29.987 28.4425C30.8188 28.4932 32.4459 29.1935 32.2999 31.589C32.154 33.9846 30.4742 34.1494 29.6525 33.9323C28.6645 33.7052 26.7128 32.8516 26.8101 31.2545Z" stroke="black"/>
<path d="M26.8051 31.3374C26.8709 30.2564 27.5895 30.4207 27.9598 30.3227C28.2623 30.3411 28.8541 30.5942 28.8014 31.459C28.7487 32.3239 28.1379 32.3831 27.8391 32.3046C27.4798 32.2224 26.7699 31.9139 26.8051 31.3374Z" fill="black" stroke="black"/>
<path d="M12.3423 22.6911L41.7529 24.5663L41.9262 44.6466M12.3423 22.6911L11.0981 50.2038L41.9321 52.5523L41.9297 49.39M12.3423 22.6911L17.2423 20.6319M26.7267 17.4625L38.4245 13.9752L38.746 20.9319" stroke="black"/>
<path d="M36.0881 16.9936L12.5881 22.9936L36.0881 23.4936V21.9936V16.9936Z" stroke="black"/>
<path d="M43.9889 54.29L43.3472 41.9576L42.0815 41.0099L41.9321 52.5523L15.6838 50.6747L17.584 54.468C16.7006 57.125 16.3745 58.1055 17.7453 58.737C23.2277 60.2086 36.1841 62.2332 44.1502 58.559C52.1164 54.8847 47.3619 54.1821 43.9889 54.29Z" fill="black" stroke="black"/>
<path d="M34.0881 19.4936L14.0881 23.1859L34.0881 23.4936V22.5705V19.4936Z" stroke="black"/>
<path d="M48.8436 52.9277C50.0406 52.8358 51.6911 52.9517 52.2931 53.6734C52.7248 54.1909 52.6175 55.0199 51.4175 56.3069" stroke="black"/>
<path d="M55.1273 50.518C56.0128 50.4859 57.2399 50.6053 57.7044 51.1075C58.0375 51.4675 57.9786 52.0244 57.1207 52.8631" stroke="black"/>
<path d="M52.5858 51.9764C53.5203 51.7972 54.7905 51.7867 55.203 52.4454C55.4988 52.9177 55.3536 53.734 54.3274 55.0789" stroke="black"/>
<path d="M4.01098 12.8C4.00395 12.8752 3.94864 12.9611 3.84505 13.0579C3.74502 13.1439 3.62353 13.2318 3.48057 13.3215C3.33761 13.4112 3.18928 13.4991 3.03559 13.5852C2.88545 13.6606 2.75854 13.7198 2.65486 13.7629C2.7837 13.7878 2.8643 13.8502 2.89667 13.9503C3.01531 14.2936 3.15365 14.6494 3.31169 15.0176C3.47688 15.3822 3.65811 15.7165 3.8554 16.0202C4.05902 15.8374 4.30543 15.5705 4.59464 15.2194C4.88025 14.8611 5.13175 14.426 5.34913 13.914C5.4275 13.7135 5.50963 13.6186 5.59551 13.6292C5.66351 13.6398 5.70295 13.6916 5.71384 13.7846C5.72829 13.8669 5.73201 13.9545 5.72502 14.0476C5.71461 14.2408 5.67562 14.4573 5.60804 14.6971C5.53688 14.9298 5.44247 15.1696 5.32482 15.4167C5.21073 15.653 5.07518 15.8912 4.91817 16.1311C4.76471 16.3604 4.59333 16.5717 4.40404 16.7653C4.30045 16.862 4.19143 16.9213 4.07698 16.9429C3.96968 16.961 3.86413 16.9558 3.76032 16.9273C3.66008 16.8882 3.5616 16.8347 3.46489 16.7668C3.37174 16.6883 3.29467 16.5972 3.23367 16.4935C2.98616 16.1076 2.76723 15.6983 2.57689 15.2657C2.38295 14.826 2.22304 14.4094 2.09716 14.0161C1.93984 14.0772 1.80034 14.0935 1.67865 14.0651C1.56052 14.0259 1.47812 13.9599 1.43146 13.8669C1.4171 13.8383 1.40989 13.8062 1.40983 13.7704C1.41333 13.7239 1.44901 13.6701 1.51689 13.6092C1.55975 13.5698 1.65445 13.4999 1.80096 13.3994C1.94748 13.299 2.11904 13.195 2.31563 13.0873C2.51222 12.9796 2.71598 12.8773 2.9269 12.7804C3.14497 12.6798 3.34342 12.6115 3.52225 12.5755C3.66174 12.5502 3.77982 12.5625 3.8765 12.6124C3.9696 12.6552 4.01442 12.7177 4.01098 12.8ZM7.75435 14.5057C7.81537 14.6272 7.81376 14.731 7.74951 14.8169C7.68525 14.9029 7.60306 14.9621 7.50294 14.9945C7.43857 15.0089 7.35985 15.0036 7.26679 14.9787C7.17372 14.9539 7.09312 14.8914 7.02498 14.7913C6.82763 14.4518 6.63027 14.1033 6.4329 13.7458C6.24267 13.3848 6.0614 13.0327 5.8891 12.6895C5.71679 12.3464 5.55703 12.0193 5.40982 11.7083C5.25902 11.3901 5.12975 11.1059 5.022 10.8556C4.98969 10.7913 4.9842 10.718 5.00553 10.6356C5.034 10.5497 5.08757 10.487 5.16621 10.4475C5.30205 10.3793 5.43443 10.3845 5.56336 10.463C5.69944 10.5379 5.79261 10.6254 5.84286 10.7255C5.94344 10.9614 6.04938 11.1992 6.16069 11.4387C6.272 11.6782 6.38511 11.9213 6.50001 12.168C6.71787 11.9422 6.97511 11.7325 7.27174 11.5388C7.56477 11.3379 7.9276 11.1513 8.36021 10.9788C8.48178 10.9357 8.60697 10.9176 8.73578 10.9245C8.87174 10.9279 8.96126 10.9724 9.00433 11.0582C9.02961 11.1977 9.00118 11.3105 8.91904 11.3965C8.83689 11.4825 8.73683 11.5506 8.61885 11.6009C8.54736 11.6368 8.45621 11.687 8.34541 11.7516C8.24176 11.8126 8.13097 11.8862 8.01305 11.9722C7.89154 12.0511 7.76647 12.1408 7.63785 12.2412C7.50922 12.3416 7.38774 12.4384 7.27341 12.5316C7.19123 12.5997 7.10544 12.6428 7.01603 12.6608C6.92662 12.6789 6.83897 12.6826 6.75309 12.672C7.08334 13.3297 7.4171 13.941 7.75435 14.5057ZM11.3 9.14019C11.293 9.21533 11.2377 9.30129 11.1341 9.39806C11.0341 9.48409 10.9126 9.57195 10.7696 9.66163C10.6266 9.75132 10.4783 9.83922 10.3246 9.92534C10.1745 10.0007 10.0476 10.06 9.94389 10.1031C10.0727 10.1279 10.1533 10.1904 10.1857 10.2905C10.3043 10.6338 10.4427 10.9895 10.6007 11.3578C10.7659 11.7224 10.9471 12.0566 11.1444 12.3604C11.3481 12.1776 11.5945 11.9106 11.8837 11.5595C12.1693 11.2013 12.4208 10.7662 12.6382 10.2542C12.7165 10.0537 12.7987 9.95875 12.8845 9.96934C12.9525 9.97996 12.992 10.0318 13.0029 10.1248C13.0173 10.207 13.021 10.2947 13.014 10.3877C13.0036 10.5809 12.9646 10.7974 12.8971 11.0373C12.8259 11.2699 12.7315 11.5098 12.6139 11.7569C12.4998 11.9932 12.3642 12.2313 12.2072 12.4713C12.0537 12.7005 11.8824 12.9119 11.6931 13.1054C11.5895 13.2022 11.4805 13.2614 11.366 13.2831C11.2587 13.3011 11.1532 13.2959 11.0494 13.2675C10.9491 13.2283 10.8506 13.1748 10.7539 13.107C10.6608 13.0284 10.5837 12.9373 10.5227 12.8337C10.2752 12.4477 10.0563 12.0384 9.86592 11.6059C9.67198 11.1661 9.51207 10.7496 9.38619 10.3562C9.22888 10.4173 9.08937 10.4337 8.96768 10.4053C8.84955 10.3661 8.76715 10.3 8.72049 10.2071C8.70613 10.1785 8.69892 10.1463 8.69886 10.1105C8.70236 10.064 8.73804 10.0103 8.80592 9.94936C8.84878 9.90994 8.94348 9.84001 9.08999 9.73959C9.23651 9.63917 9.40807 9.53513 9.60466 9.42746C9.80125 9.3198 10.005 9.21749 10.2159 9.12054C10.434 9.02 10.6325 8.95169 10.8113 8.91561C10.9508 8.89033 11.0689 8.90266 11.1655 8.95258C11.2586 8.99536 11.3035 9.05789 11.3 9.14019ZM15.0434 10.8458C15.1044 10.9674 15.1028 11.0711 15.0385 11.1571C14.9743 11.2431 14.8921 11.3022 14.792 11.3346C14.7276 11.349 14.6489 11.3438 14.5558 11.3189C14.4628 11.294 14.3822 11.2315 14.314 11.1315C14.1167 10.7919 13.9193 10.4434 13.7219 10.086C13.5317 9.72497 13.3504 9.37287 13.1781 9.0297C13.0058 8.68653 12.8461 8.35943 12.6989 8.04842C12.5481 7.73026 12.4188 7.44605 12.311 7.19579C12.2787 7.13144 12.2732 7.05811 12.2946 6.97579C12.323 6.88987 12.3766 6.82717 12.4552 6.78769C12.5911 6.71948 12.7235 6.72463 12.8524 6.80312C12.9885 6.87802 13.0816 6.96552 13.1319 7.06561C13.2325 7.30157 13.3384 7.53931 13.4497 7.77883C13.561 8.01835 13.6741 8.26144 13.789 8.50811C14.0069 8.28235 14.2641 8.07262 14.5608 7.87893C14.8538 7.67808 15.2166 7.49143 15.6492 7.31898C15.7708 7.27584 15.896 7.25774 16.0248 7.26468C16.1608 7.26803 16.2503 7.3126 16.2934 7.39839C16.3186 7.53788 16.2902 7.65063 16.2081 7.73663C16.1259 7.82263 16.0259 7.89078 15.9079 7.94106C15.8364 7.97696 15.7452 8.0272 15.6344 8.09179C15.5308 8.15278 15.42 8.22631 15.3021 8.31237C15.1806 8.39129 15.0555 8.48094 14.9269 8.58133C14.7982 8.68173 14.6768 8.77853 14.5624 8.87174C14.4803 8.93986 14.3945 8.98293 14.3051 9.00097C14.2156 9.01901 14.128 9.02274 14.0421 9.01215C14.3724 9.66989 14.7061 10.2811 15.0434 10.8458Z" fill="black"/>
<path d="M53.1392 10.3333C53.1603 10.2894 53.1738 10.2353 53.1799 10.1711C53.1859 10.1069 53.1785 10.0479 53.1576 9.99413C53.1074 9.87082 53.0187 9.82313 52.8915 9.85106C52.3819 9.99163 51.9008 10.1961 51.4481 10.4646C50.9999 10.7266 50.6201 11.1 50.3085 11.5851C50.2625 11.6505 50.2194 11.7327 50.1792 11.8316C50.1456 11.9351 50.1241 12.0422 50.1147 12.1529C50.0941 12.2656 50.0945 12.3832 50.1159 12.5058C50.1419 12.6219 50.1981 12.7298 50.2844 12.8296C50.4093 12.9858 50.5667 13.0818 50.7567 13.1176C50.9513 13.1468 51.1545 13.1429 51.3662 13.106C51.5714 13.0645 51.7695 12.9983 51.9604 12.9076C52.1513 12.8169 52.3078 12.7264 52.4299 12.6362C52.6195 12.5055 52.7866 12.3443 52.9312 12.1525C53.0823 11.9654 53.1958 11.7274 53.2717 11.4385C53.3213 11.2289 53.2925 11.0473 53.1853 10.8937C53.082 10.7624 52.9665 10.6763 52.8388 10.6355C52.9129 10.5996 52.9763 10.5512 53.0288 10.4903C53.086 10.4229 53.1228 10.3706 53.1392 10.3333ZM50.8791 12.3382C50.9181 12.1994 50.9973 12.0449 51.117 11.8747C51.2412 11.698 51.3657 11.5557 51.4904 11.4478C51.6631 11.2856 51.8485 11.147 52.0466 11.0321C52.2559 10.9151 52.4593 10.8136 52.6567 10.7275C52.6707 10.972 52.6139 11.2059 52.4863 11.4291C52.3633 11.6458 52.2024 11.826 52.0035 11.9698C51.8499 12.077 51.66 12.1733 51.4337 12.2587C51.2075 12.3441 51.0226 12.3706 50.8791 12.3382ZM54.2743 15.0621C54.1826 14.9977 54.135 14.9055 54.1313 14.7856C54.1205 14.5922 54.1599 14.3901 54.2495 14.1793C54.37 13.8826 54.5272 13.5824 54.7211 13.2787C54.9216 12.9796 55.1385 12.692 55.3717 12.4159C55.6049 12.1397 55.8433 11.8771 56.0869 11.6278C56.3417 11.3767 56.5814 11.154 56.8059 10.9598C56.8604 10.9101 56.9197 10.8882 56.9839 10.8943C57.0482 10.9003 57.1028 10.9338 57.1479 10.9949C57.2061 11.0651 57.2344 11.1779 57.2328 11.3332C57.2423 11.4866 57.1742 11.6391 57.0284 11.7909C56.7598 12.0617 56.5033 12.3361 56.259 12.6142C56.0258 12.8903 55.8028 13.1589 55.5899 13.42C55.3882 13.6791 55.2078 13.9288 55.0487 14.169C54.8943 14.4027 54.7713 14.6194 54.6798 14.8191C54.6469 14.8938 54.594 14.969 54.5211 15.0449C54.4547 15.1254 54.3724 15.1311 54.2743 15.0621ZM53.9445 16.2825C53.884 16.3964 53.7861 16.5427 53.6507 16.7213C53.5199 16.8934 53.3813 17.0698 53.2348 17.2504C53.0929 17.4244 52.9491 17.5874 52.8033 17.7391C52.6686 17.8889 52.5629 17.9906 52.4861 18.0442C52.4231 18.0782 52.353 18.0876 52.2757 18.0723C52.1984 18.0571 52.1316 18.02 52.0753 17.9609C52.0126 17.8972 51.979 17.8198 51.9745 17.7287C51.9655 17.6441 51.9906 17.5737 52.0497 17.5174C52.2434 17.3114 52.4559 17.0647 52.6872 16.7774C52.9296 16.4882 53.1612 16.1866 53.382 15.8724C53.28 15.7811 53.1674 15.7117 53.0442 15.6643C52.9277 15.6215 52.8075 15.5908 52.6836 15.5722C52.5664 15.5582 52.4533 15.5521 52.3445 15.5538C52.2357 15.5556 52.1469 15.5567 52.0781 15.5572C51.9916 15.5551 51.9061 15.5097 51.8218 15.4211C51.7374 15.3324 51.6943 15.2337 51.6926 15.1249C51.6928 15.0273 51.7345 14.9539 51.8179 14.9049C51.9996 14.8273 52.1848 14.7864 52.3735 14.7822C52.5623 14.7779 52.7438 14.798 52.9181 14.8422C53.0969 14.8799 53.2587 14.935 53.4034 15.0073C53.5592 15.0778 53.6928 15.1521 53.804 15.2303C53.9349 15.3223 54.0215 15.4565 54.0638 15.6329C54.1172 15.8073 54.0774 16.0238 53.9445 16.2825ZM56.748 16.7716C56.7855 16.6904 56.8896 16.5632 57.0604 16.3898C57.2311 16.2165 57.4176 16.0346 57.6198 15.8443C57.8267 15.6475 58.0243 15.4637 58.2127 15.293C58.4123 15.1204 58.5607 14.9997 58.6578 14.9311C58.4828 14.9157 58.2732 14.8661 58.0289 14.7824C57.7846 14.6987 57.5872 14.6039 57.4367 14.4981C57.3058 14.4061 57.2317 14.2611 57.2144 14.0632C57.2036 13.8698 57.2413 13.691 57.3275 13.5266C57.4347 13.3184 57.5829 13.1146 57.7721 12.915C57.9723 12.7136 58.1821 12.5334 58.4013 12.3746C58.3528 12.3601 58.3067 12.3423 58.2628 12.3212C58.2189 12.3002 58.176 12.2847 58.1341 12.2748C58.0856 12.2603 58.0444 12.2215 58.0105 12.1585C57.983 12.1001 57.9635 12.0375 57.9518 11.9706C57.9402 11.9038 57.9397 11.835 57.9503 11.7642C57.9609 11.6934 57.9879 11.6342 58.0312 11.5864C58.0588 11.5472 58.0963 11.5148 58.1435 11.4893C58.1796 11.4658 58.2222 11.4469 58.2714 11.4325C58.3271 11.4228 58.3891 11.4321 58.4572 11.4604C58.5122 11.4796 58.6274 11.5312 58.8029 11.6155C58.983 11.6931 59.1781 11.7912 59.3882 11.9096C59.6095 12.026 59.8295 12.1513 60.0481 12.2854C60.2668 12.4195 60.4445 12.5493 60.5812 12.6748C60.6571 12.7477 60.7005 12.832 60.7114 12.9277C60.7289 13.028 60.7101 13.1174 60.6549 13.1959C60.6319 13.2287 60.5925 13.2499 60.5368 13.2596C60.4811 13.2693 60.4257 13.2646 60.3707 13.2455C60.1906 13.1678 59.9942 13.0786 59.7813 12.978C59.5751 12.8819 59.3633 12.7867 59.1459 12.6926C58.9233 12.898 58.7263 13.1017 58.5548 13.3039C58.3834 13.5061 58.224 13.7119 58.0768 13.9213C58.1691 13.9569 58.2769 13.9984 58.4 14.0458C58.5277 14.0867 58.6554 14.1276 58.7832 14.1685C58.9174 14.214 59.0442 14.2493 59.1634 14.2744C59.2892 14.3041 59.4019 14.3247 59.5015 14.336C59.6122 14.3454 59.7124 14.3767 59.8021 14.43C59.8983 14.4879 59.9677 14.5562 60.0101 14.6349C60.0526 14.7136 60.0402 14.8076 59.9732 14.917C59.9127 15.0309 59.8398 15.1068 59.7545 15.1446C59.6174 15.2145 59.4392 15.3288 59.22 15.4876C59.0119 15.6445 58.7878 15.8243 58.5475 16.027C58.3118 16.2232 58.0804 16.4272 57.8532 16.6391C57.6261 16.851 57.435 17.0394 57.28 17.2042C57.5727 17.3025 57.8567 17.3994 58.1317 17.4949C58.4068 17.5905 58.6236 17.6647 58.7821 17.7174C58.8371 17.7365 58.8964 17.7635 58.9599 17.7984C59.0299 17.8378 59.0898 17.8848 59.1395 17.9393C59.2004 17.9918 59.2422 18.0506 59.265 18.1155C59.2878 18.1804 59.2795 18.2479 59.24 18.318C59.1611 18.4581 59.0234 18.5079 58.8268 18.4676C58.6545 18.4345 58.4263 18.3767 58.142 18.2942C57.8642 18.2163 57.5757 18.126 57.2764 18.0231C56.9771 17.9203 56.6922 17.8178 56.4217 17.7157C56.1559 17.6071 55.9529 17.5133 55.8128 17.4344C55.6923 17.3692 55.5778 17.2887 55.4692 17.1928C55.3671 17.1015 55.3319 16.9986 55.3636 16.8839C55.388 16.7935 55.4573 16.7298 55.5714 16.6926C55.6921 16.6601 55.8261 16.6712 55.9734 16.7259C56.0592 16.7568 56.1637 16.796 56.2868 16.8435C56.4099 16.8909 56.5452 16.942 56.6925 16.9966C56.692 16.9278 56.7105 16.8528 56.748 16.7716ZM56.1104 21.5599C56.0651 21.5966 55.9812 21.6256 55.8586 21.6469C55.7314 21.6749 55.6191 21.6399 55.5216 21.5421C55.4719 21.4876 55.4439 21.4092 55.4375 21.307C55.4331 21.2158 55.4752 21.1281 55.5639 21.0437C55.6525 20.9594 55.7517 20.8531 55.8614 20.7248C55.9776 20.6012 56.0952 20.4687 56.2141 20.3274C56.333 20.186 56.4473 20.0512 56.557 19.923C56.6667 19.7948 56.7561 19.6816 56.8251 19.5834C56.6404 19.5122 56.4311 19.4483 56.1973 19.3914C55.968 19.3281 55.7574 19.2729 55.5655 19.226C55.4574 19.1989 55.3677 19.1457 55.2964 19.0662C55.2363 18.9849 55.2198 18.8901 55.2468 18.782C55.2778 18.6962 55.3359 18.6344 55.4212 18.5966C55.5111 18.5522 55.5937 18.532 55.6691 18.5361C55.7556 18.5382 55.8728 18.5522 56.0209 18.5781C56.169 18.6039 56.3213 18.6377 56.4779 18.6793C56.639 18.7143 56.79 18.7569 56.9308 18.807C57.0762 18.8505 57.1905 18.8966 57.2736 18.9453C57.5054 19.0886 57.6335 19.2471 57.6581 19.4208C57.6892 19.5992 57.6347 19.7809 57.4948 19.9661C57.4258 20.0643 57.3272 20.1906 57.1991 20.345C57.0756 20.4929 56.9475 20.6473 56.8148 20.8083C56.6867 20.9627 56.5567 21.106 56.4247 21.2381C56.2992 21.3748 56.1945 21.4821 56.1104 21.5599Z" fill="black"/>
</g>
<defs>
<clipPath id="clip0_0_1">
<rect width="63" height="62" fill="white"/>
</clipPath>
</defs>
</svg>
