<svg viewBox="0 0 64 69" fill="none" xmlns="http://www.w3.org/2000/svg">
<g clip-path="url(#clip0_0_1)">
<path d="M23.5982 6.30213C20.7748 6.47035 16.0199 21.1706 15.5478 24.1751L40.5905 25.5982L40.9191 42.0418C42.5537 42.9366 44.5058 43.2589 43.8821 45.1347C43.3928 46.6063 42.1283 47.2397 39.9138 45.9764C37.4359 44.9769 32.196 43.5157 31.0592 45.6669C29.6382 48.3559 39.4429 50.5621 43.2386 51.8242C47.0343 53.0862 48.9309 52.1361 50.9842 49.1304C52.6267 46.7258 50.1352 41.647 49.2369 38.5381L47.3367 34.7448L45.1198 30.3192C42.4272 24.1548 47.9812 8.52412 43.522 8.18449C39.4108 7.87137 39.0716 19.3507 38.3136 20.6794C37.8925 21.4176 37.3671 23.5262 32.9404 24.162C28.5125 23.2166 27.9986 23.1775 25.5056 19.5823C22.6564 15.4734 29.5742 5.94608 23.5982 6.30213Z" fill="black" stroke="black"/>
<path d="M21.1531 39.685L25.2643 39.9982" stroke="black"/>
<path d="M16.5066 32.2136C16.6891 29.2192 18.6651 29.6735 19.6835 29.4016C20.5153 29.4523 22.1424 30.1525 21.9965 32.5481C21.8505 34.9437 20.1707 35.1085 19.3491 34.8914C18.361 34.6643 16.4093 33.8107 16.5066 32.2136Z" stroke="black"/>
<path d="M16.5016 32.2965C16.5675 31.2155 17.2861 31.3798 17.6563 31.2818C17.9588 31.3002 18.5506 31.5533 18.4979 32.4181C18.4452 33.2829 17.8344 33.3422 17.5356 33.2637C17.1763 33.1815 16.4665 32.873 16.5016 32.2965Z" fill="black" stroke="black"/>
<path d="M25.49 32.761C25.6724 29.7665 27.6485 30.2209 28.6669 29.949C29.4987 29.9996 31.1258 30.6999 30.9798 33.0954C30.8338 35.491 29.154 35.6558 28.3324 35.4388C27.3444 35.2116 25.3927 34.358 25.49 32.761Z" stroke="black"/>
<path d="M25.4849 32.8438C25.5508 31.7628 26.2694 31.9271 26.6397 31.8291C26.9422 31.8476 27.5339 32.1006 27.4812 32.9655C27.4285 33.8303 26.8177 33.8895 26.5189 33.811C26.1596 33.7289 25.4498 33.4204 25.4849 32.8438Z" fill="black" stroke="black"/>
<path d="M11.0222 24.1975L40.4328 26.0727L40.606 46.153M11.0222 24.1975L9.77799 51.7102L40.612 54.0587L40.6096 50.8965M11.0222 24.1975L15.9222 22.1383M25.4066 18.9689L37.1044 15.4816L37.4259 22.4383" stroke="black"/>
<path d="M42.6688 55.7964L42.027 43.464L40.7614 42.5163L40.612 54.0587L14.3637 52.1811L16.2639 55.9744C15.3804 58.6314 15.0544 59.612 16.4252 60.2434C21.9076 61.715 34.8639 63.7396 42.8301 60.0654C50.7963 56.3911 46.0418 55.6885 42.6688 55.7964Z" fill="black" stroke="black"/>
<path d="M46.1133 54.9452C47.3103 54.8533 48.9607 54.9693 49.5628 55.691C49.9945 56.2085 49.8871 57.0374 48.6872 58.3245" stroke="black"/>
<path d="M52.1836 52.5356C53.0691 52.5034 54.2962 52.6229 54.7607 53.125C55.0938 53.4851 55.0349 54.0419 54.177 54.8807" stroke="black"/>
<path d="M49.5911 53.9939C50.5255 53.8147 51.7957 53.8043 52.2082 54.463C52.504 54.9353 52.3588 55.7516 51.3326 57.0964" stroke="black"/>
<path d="M4.6868 13.5768C4.67313 13.651 4.61041 13.7317 4.49863 13.8189C4.39136 13.8957 4.26254 13.9724 4.11218 14.049C3.96183 14.1257 3.80628 14.2001 3.64554 14.2722C3.48931 14.334 3.35764 14.3817 3.25054 14.4154C3.37666 14.4516 3.4514 14.521 3.47475 14.6236C3.56244 14.976 3.66865 15.3427 3.79337 15.7235C3.92552 16.1013 4.07637 16.4503 4.2459 16.7704C4.46495 16.6064 4.73409 16.3624 5.05333 16.0384C5.36963 15.7069 5.65877 15.2958 5.92075 14.8052C6.01662 14.6124 6.10685 14.5252 6.19145 14.5433C6.25824 14.5599 6.29292 14.6151 6.29551 14.7087C6.3026 14.7919 6.29853 14.8795 6.28329 14.9716C6.25577 15.1631 6.19771 15.3753 6.10911 15.6082C6.01756 15.8336 5.90223 16.0641 5.76311 16.2998C5.62849 16.525 5.47232 16.7502 5.29462 16.9753C5.12141 17.19 4.93195 17.3853 4.72622 17.5612C4.61444 17.6484 4.5006 17.6977 4.38467 17.7091C4.27619 17.7176 4.17152 17.7031 4.07065 17.6655C3.97429 17.6176 3.88095 17.5555 3.79064 17.4794C3.70483 17.3929 3.63615 17.2953 3.5846 17.1867C3.37234 16.7802 3.19062 16.3531 3.03944 15.9053C2.88531 15.4501 2.76302 15.021 2.67256 14.6181C2.51044 14.665 2.37004 14.6688 2.25135 14.6297C2.13717 14.5802 2.06096 14.5071 2.02273 14.4104C2.01097 14.3806 2.00664 14.3479 2.00976 14.3123C2.01738 14.2663 2.05769 14.2159 2.13071 14.1613C2.17691 14.1258 2.27744 14.0646 2.43229 13.9776C2.58715 13.8905 2.76726 13.8021 2.97264 13.7124C3.17802 13.6226 3.39005 13.5388 3.60875 13.4609C3.83489 13.3801 4.03862 13.3297 4.21994 13.3097C4.36112 13.2969 4.47765 13.3196 4.56951 13.378C4.65844 13.4288 4.69754 13.4951 4.6868 13.5768ZM8.26393 15.6081C8.31393 15.7345 8.3031 15.8377 8.23147 15.9177C8.15984 15.9976 8.07272 16.0492 7.97012 16.0726C7.90472 16.0812 7.82677 16.069 7.73629 16.036C7.6458 16.0029 7.57107 15.9335 7.51208 15.8278C7.34566 15.4721 7.18002 15.1074 7.01517 14.7339C6.85775 14.3574 6.70847 13.9906 6.56731 13.6335C6.42616 13.2764 6.29607 12.9364 6.17706 12.6135C6.05511 12.2832 5.95158 11.9886 5.86648 11.7298C5.84001 11.6629 5.84105 11.5893 5.86961 11.5092C5.9056 11.4262 5.96452 11.3685 6.04636 11.3361C6.18771 11.2803 6.31912 11.2971 6.44057 11.3868C6.56946 11.4735 6.65449 11.5689 6.69566 11.673C6.77488 11.917 6.8593 12.1632 6.9489 12.4117C7.0385 12.6601 7.12958 12.9123 7.22212 13.1682C7.45917 12.9627 7.73402 12.7766 8.04667 12.61C8.35638 12.436 8.73435 12.2823 9.18057 12.1489C9.30549 12.1168 9.43179 12.1098 9.55947 12.1282C9.6946 12.1436 9.7798 12.1959 9.81509 12.2852C9.82789 12.4264 9.78955 12.5362 9.7001 12.6145C9.61064 12.6929 9.50493 12.7519 9.38295 12.7915C9.30855 12.8209 9.2133 12.8629 9.0972 12.9174C8.98854 12.9689 8.87167 13.0323 8.74657 13.1076C8.61854 13.1754 8.486 13.2536 8.34896 13.3422C8.21193 13.4307 8.08233 13.5164 7.96018 13.5991C7.87228 13.6596 7.783 13.6949 7.69234 13.7049C7.60168 13.7149 7.51405 13.7109 7.42945 13.6927C7.69999 14.3772 7.97815 15.0156 8.26393 15.6081ZM12.272 10.5786C12.2583 10.6528 12.1956 10.7335 12.0838 10.8207C11.9766 10.8975 11.8478 10.9743 11.6974 11.0509C11.547 11.1275 11.3915 11.2019 11.2308 11.274C11.0745 11.3358 10.9428 11.3835 10.8357 11.4173C10.9619 11.4534 11.0366 11.5228 11.06 11.6254C11.1477 11.9779 11.2539 12.3445 11.3786 12.7253C11.5107 13.1032 11.6616 13.4522 11.8311 13.7723C12.0502 13.6083 12.3193 13.3642 12.6385 13.0402C12.9548 12.7087 13.244 12.2977 13.506 11.807C13.6018 11.6143 13.6921 11.527 13.7767 11.5452C13.8434 11.5618 13.8781 11.6169 13.8807 11.7105C13.8878 11.7937 13.8837 11.8814 13.8685 11.9734C13.841 12.1649 13.7829 12.3771 13.6943 12.61C13.6028 12.8354 13.4874 13.066 13.3483 13.3016C13.2137 13.5269 13.0575 13.752 12.8798 13.9771C12.7066 14.1918 12.5172 14.3871 12.3114 14.5631C12.1997 14.6503 12.0858 14.6996 11.9699 14.711C11.8614 14.7194 11.7567 14.7049 11.6559 14.6673C11.5595 14.6194 11.4662 14.5574 11.3759 14.4813C11.29 14.3947 11.2214 14.2971 11.1698 14.1885C10.9576 13.7821 10.7758 13.355 10.6246 12.9072C10.4705 12.452 10.3482 12.0229 10.2578 11.6199C10.0957 11.6668 9.95525 11.6707 9.83657 11.6316C9.72238 11.5821 9.64617 11.509 9.60794 11.4122C9.59618 11.3825 9.59186 11.3498 9.59497 11.3141C9.60259 11.2681 9.64291 11.2178 9.71592 11.1631C9.76212 11.1276 9.86265 11.0664 10.0175 10.9794C10.1724 10.8924 10.3525 10.804 10.5579 10.7142C10.7632 10.6244 10.9753 10.5406 11.194 10.4628C11.4201 10.382 11.6238 10.3316 11.8052 10.3115C11.9463 10.2987 12.0629 10.3215 12.1547 10.3798C12.2437 10.4307 12.2827 10.4969 12.272 10.5786ZM15.8491 12.6099C15.8991 12.7364 15.8883 12.8396 15.8167 12.9195C15.745 12.9994 15.6579 13.0511 15.5553 13.0744C15.4899 13.0831 15.412 13.0709 15.3215 13.0378C15.231 13.0048 15.1563 12.9354 15.0973 12.8297C14.9309 12.4739 14.7652 12.1093 14.6004 11.7357C14.443 11.3592 14.2937 10.9924 14.1525 10.6353C14.0114 10.2782 13.8813 9.93821 13.7623 9.61535C13.6403 9.28506 13.5368 8.99049 13.4517 8.73165C13.4252 8.66469 13.4263 8.59116 13.4548 8.51105C13.4908 8.42801 13.5497 8.37031 13.6316 8.33797C13.7729 8.28209 13.9043 8.29897 14.0258 8.3886C14.1547 8.47529 14.2397 8.57072 14.2809 8.67488C14.3601 8.91883 14.4445 9.16504 14.5341 9.4135C14.6237 9.66196 14.7148 9.91413 14.8073 10.17C15.0444 9.96451 15.3192 9.77845 15.6319 9.61186C15.9416 9.43782 16.3196 9.28413 16.7658 9.15077C16.8907 9.11859 17.017 9.11168 17.1447 9.13003C17.2798 9.14544 17.365 9.19778 17.4003 9.28706C17.4131 9.42824 17.3748 9.53802 17.2853 9.61639C17.1959 9.69476 17.0901 9.75375 16.9682 9.79336C16.8938 9.82277 16.7985 9.86472 16.6824 9.91921C16.5738 9.97076 16.4569 10.0342 16.3318 10.1094C16.2037 10.1772 16.0712 10.2554 15.9342 10.344C15.7971 10.4326 15.6675 10.5182 15.5454 10.6009C15.4575 10.6614 15.3682 10.6967 15.2776 10.7068C15.1869 10.7168 15.0993 10.7127 15.0147 10.6945C15.2852 11.379 15.5634 12.0175 15.8491 12.6099Z" fill="black"/>
<path d="M51.2087 16.5126C51.2218 16.4657 51.2257 16.4101 51.2204 16.3458C51.2152 16.2816 51.1976 16.2248 51.1677 16.1754C51.0967 16.0628 51.0011 16.0312 50.8807 16.0809C50.4034 16.3081 49.9653 16.5932 49.5662 16.9365C49.1705 17.2724 48.8615 17.7064 48.6392 18.2383C48.6053 18.3107 48.5771 18.3991 48.5548 18.5035C48.5397 18.6113 48.5372 18.7205 48.5472 18.8312C48.5466 18.9457 48.5675 19.0615 48.6099 19.1785C48.6557 19.2882 48.7298 19.3847 48.8322 19.468C48.9824 19.6001 49.1541 19.6672 49.3474 19.6693C49.5441 19.6642 49.7435 19.625 49.9456 19.5517C50.1405 19.4751 50.324 19.3755 50.4962 19.2529C50.6684 19.1303 50.8067 19.014 50.9112 18.9039C51.0752 18.7421 51.2117 18.5543 51.3206 18.3403C51.4368 18.1297 51.5072 17.8755 51.5316 17.5778C51.5439 17.3628 51.4839 17.189 51.3516 17.0564C51.2271 16.9451 51.0983 16.8805 50.9654 16.8625C51.0322 16.8142 51.0861 16.7555 51.1273 16.6865C51.1718 16.6102 51.1989 16.5522 51.2087 16.5126ZM49.3323 18.8805C49.3464 18.737 49.3976 18.571 49.4857 18.3827C49.5773 18.187 49.6751 18.0252 49.7791 17.8972C49.9209 17.7074 50.0794 17.5387 50.2545 17.391C50.4402 17.2394 50.6228 17.104 50.8022 16.9848C50.8585 17.2232 50.8433 17.4633 50.7565 17.7054C50.6732 17.9402 50.5461 18.1457 50.3753 18.3219C50.2428 18.4542 50.0725 18.5821 49.8646 18.7056C49.6566 18.8291 49.4792 18.8874 49.3323 18.8805ZM53.1499 20.9715C53.0485 20.924 52.9855 20.8416 52.961 20.7241C52.9167 20.5356 52.9203 20.3297 52.9717 20.1065C53.0387 19.7933 53.1413 19.4704 53.2794 19.1375C53.4247 18.8081 53.5881 18.4871 53.7697 18.1746C53.9512 17.862 54.1403 17.5619 54.3368 17.274C54.5439 16.9823 54.7411 16.7213 54.9284 16.4909C54.9734 16.4325 55.028 16.4007 55.0923 16.3954C55.1566 16.3902 55.2163 16.4137 55.2713 16.4659C55.3408 16.5249 55.3883 16.6311 55.4138 16.7843C55.4499 16.9337 55.4094 17.0958 55.2922 17.2706C55.0749 17.5841 54.8702 17.899 54.678 18.2153C54.4964 18.5279 54.3236 18.8312 54.1595 19.1254C54.006 19.4157 53.8718 19.6929 53.757 19.9572C53.6456 20.2142 53.5622 20.449 53.5069 20.6616C53.4875 20.7408 53.4485 20.8242 53.3899 20.9116C53.3386 21.0024 53.2586 21.0224 53.1499 20.9715ZM53.0377 22.2306C52.998 22.3533 52.927 22.5144 52.8248 22.7139C52.7261 22.9062 52.6203 23.104 52.5074 23.3074C52.398 23.5035 52.2847 23.6889 52.1676 23.8638C52.0611 24.0348 51.9747 24.1533 51.9084 24.2195C51.8523 24.2639 51.7849 24.2853 51.7061 24.2838C51.6273 24.2823 51.5551 24.2573 51.4894 24.2089C51.4165 24.1571 51.3699 24.0867 51.3497 23.9978C51.3261 23.9161 51.3385 23.8424 51.3869 23.7767C51.5418 23.5401 51.7081 23.2602 51.8858 22.937C52.0741 22.61 52.2497 22.2726 52.4124 21.9248C52.296 21.8527 52.1731 21.804 52.0436 21.7787C51.9213 21.7568 51.7976 21.7475 51.6724 21.7508C51.5545 21.7574 51.4421 21.7711 51.3353 21.7918C51.2285 21.8124 51.1412 21.829 51.0735 21.8415C50.988 21.8545 50.8959 21.8247 50.7974 21.7521C50.6989 21.6795 50.6393 21.5898 50.6186 21.4829C50.6018 21.3867 50.6302 21.3073 50.7037 21.2445C50.8691 21.1364 51.0443 21.0639 51.2295 21.0268C51.4146 20.9898 51.5968 20.9779 51.7761 20.9911C51.9588 20.9971 52.1277 21.0232 52.2828 21.0692C52.4485 21.1114 52.593 21.1614 52.7162 21.219C52.8611 21.2868 52.9697 21.4039 53.042 21.5702C53.125 21.7327 53.1236 21.9528 53.0377 22.2306ZM55.8836 22.2241C55.9064 22.1376 55.9867 21.9941 56.1247 21.7937C56.2626 21.5932 56.4146 21.3817 56.5806 21.1591C56.75 20.9292 56.9126 20.7138 57.0684 20.5129C57.2349 20.3082 57.3599 20.1635 57.4436 20.0791C57.2687 20.0943 57.0536 20.082 56.7985 20.0422C56.5433 20.0023 56.3324 19.9433 56.1658 19.8654C56.0208 19.7976 55.9226 19.6677 55.8711 19.4758C55.8268 19.2872 55.8328 19.1046 55.8891 18.9277C55.9584 18.704 56.0688 18.4775 56.2203 18.2481C56.3825 18.0148 56.5576 17.8009 56.7458 17.6063C56.6956 17.6004 56.647 17.591 56.6001 17.5779C56.5533 17.5648 56.5083 17.557 56.4653 17.5545C56.4151 17.5487 56.3677 17.5177 56.3233 17.4616C56.2862 17.4089 56.256 17.3506 56.2329 17.2868C56.2098 17.223 56.1973 17.1553 56.1954 17.0838C56.1935 17.0122 56.2098 16.9492 56.2442 16.8946C56.2645 16.8511 56.2957 16.8127 56.3378 16.7794C56.3692 16.75 56.4079 16.7239 56.4539 16.7013C56.507 16.682 56.5696 16.6803 56.6416 16.6964C56.6991 16.7056 56.8216 16.7364 57.0091 16.7888C57.1999 16.8339 57.4091 16.8965 57.6367 16.9765C57.8749 17.0526 58.1133 17.1377 58.352 17.2317C58.5906 17.3257 58.7882 17.4225 58.9447 17.5222C59.0321 17.5808 59.0895 17.6562 59.117 17.7486C59.1517 17.8443 59.1487 17.9357 59.108 18.0226C59.0911 18.0588 59.056 18.0866 59.0028 18.1059C58.9496 18.1251 58.8943 18.1302 58.8368 18.1209C58.6459 18.0758 58.437 18.0222 58.2099 17.9601C57.99 17.9014 57.7649 17.8446 57.5344 17.7898C57.351 18.0307 57.1925 18.2657 57.0588 18.4947C56.9252 18.7236 56.8042 18.954 56.6957 19.1859C56.7928 19.2048 56.9061 19.2269 57.0356 19.2522C57.1685 19.2702 57.3014 19.2882 57.4343 19.3063C57.5744 19.3277 57.7054 19.3404 57.8271 19.3443C57.9562 19.3517 58.0707 19.3523 58.1708 19.3461C58.2815 19.3361 58.3856 19.3495 58.4832 19.3863C58.588 19.4265 58.6682 19.4817 58.7237 19.5519C58.7792 19.622 58.7835 19.7167 58.7365 19.836C58.6967 19.9588 58.6381 20.0462 58.5608 20.0983C58.4379 20.191 58.2824 20.3346 58.0942 20.5292C57.9166 20.7199 57.7272 20.936 57.5259 21.1774C57.328 21.4116 57.1356 21.6528 56.9488 21.9011C56.762 22.1493 56.6067 22.3681 56.4828 22.5574C56.7882 22.6031 57.0846 22.6491 57.3721 22.6953C57.6596 22.7415 57.886 22.7768 58.0513 22.8011C58.1088 22.8104 58.1719 22.8266 58.2405 22.8499C58.3163 22.8765 58.3835 22.9124 58.4419 22.9574C58.511 22.9985 58.5624 23.0491 58.5962 23.109C58.6299 23.169 58.6335 23.2369 58.6068 23.3128C58.5535 23.4645 58.4266 23.5376 58.226 23.532C58.0506 23.5294 57.8157 23.5123 57.5214 23.4806C57.2344 23.4523 56.9345 23.4135 56.6219 23.3644C56.3092 23.3153 56.0108 23.264 55.7267 23.2105C55.446 23.1499 55.2298 23.0928 55.0781 23.0395C54.9481 22.9964 54.8213 22.9371 54.6976 22.8615C54.5812 22.7894 54.5287 22.6941 54.5399 22.5758C54.5482 22.4825 54.6053 22.4076 54.7112 22.3512C54.8243 22.2981 54.9582 22.2857 55.1129 22.3139C55.2027 22.3295 55.3124 22.3499 55.4419 22.3751C55.5714 22.4004 55.7135 22.4271 55.8681 22.4553C55.8556 22.3876 55.8608 22.3105 55.8836 22.2241ZM56.0897 27.0502C56.0514 27.0942 55.9738 27.1374 55.8568 27.1798C55.7364 27.2294 55.6197 27.2146 55.5067 27.1352C55.4483 27.0902 55.407 27.0179 55.383 26.9183C55.3628 26.8294 55.389 26.7356 55.4616 26.6371C55.5342 26.5386 55.6133 26.4166 55.699 26.2712C55.7919 26.1292 55.8846 25.9783 55.9771 25.8184C56.0696 25.6586 56.1586 25.5059 56.2443 25.3605C56.33 25.2151 56.3983 25.0881 56.4492 24.9794C56.2549 24.9415 56.0377 24.915 55.7975 24.8997C55.5607 24.8773 55.3437 24.8597 55.1466 24.8469C55.0354 24.839 54.9378 24.8022 54.8538 24.7364C54.7804 24.6667 54.7476 24.5763 54.7555 24.4652C54.771 24.3753 54.8175 24.3043 54.8949 24.2522C54.9756 24.1928 55.0535 24.1586 55.1284 24.1495C55.214 24.1365 55.3319 24.1299 55.4822 24.1295C55.6325 24.1292 55.7884 24.1359 55.9498 24.1496C56.1146 24.156 56.2707 24.1717 56.418 24.1964C56.5688 24.214 56.6894 24.2395 56.7797 24.2729C57.0329 24.3737 57.1867 24.5075 57.2411 24.6743C57.3028 24.8445 57.2809 25.0329 57.1753 25.2397C57.1244 25.3484 57.0494 25.4899 56.9501 25.6643C56.8543 25.8314 56.755 26.0058 56.6524 26.1874C56.5531 26.3618 56.45 26.5255 56.3431 26.6786C56.2433 26.8351 56.1589 26.959 56.0897 27.0502Z" fill="black"/>
</g>
<defs>
<clipPath id="clip0_0_1">
<rect width="64" height="69" fill="white"/>
</clipPath>
</defs>
</svg>
